%TF.GenerationSoftware,KiCad,Pcbnew,(6.0.9)*%
%TF.CreationDate,2022-12-23T01:27:24-06:00*%
%TF.ProjectId,CEM3340 VCO,43454d33-3334-4302-9056-434f2e6b6963,rev?*%
%TF.SameCoordinates,Original*%
%TF.FileFunction,Copper,L2,Bot*%
%TF.FilePolarity,Positive*%
%FSLAX46Y46*%
G04 Gerber Fmt 4.6, Leading zero omitted, Abs format (unit mm)*
G04 Created by KiCad (PCBNEW (6.0.9)) date 2022-12-23 01:27:24*
%MOMM*%
%LPD*%
G01*
G04 APERTURE LIST*
%TA.AperFunction,ComponentPad*%
%ADD10C,1.440000*%
%TD*%
%TA.AperFunction,ComponentPad*%
%ADD11O,3.240000X2.720000*%
%TD*%
%TA.AperFunction,ComponentPad*%
%ADD12R,1.800000X1.800000*%
%TD*%
%TA.AperFunction,ComponentPad*%
%ADD13C,1.800000*%
%TD*%
%TA.AperFunction,ComponentPad*%
%ADD14R,2.500000X1.000000*%
%TD*%
%TA.AperFunction,ComponentPad*%
%ADD15R,1.600000X1.600000*%
%TD*%
%TA.AperFunction,ComponentPad*%
%ADD16C,1.600000*%
%TD*%
%TA.AperFunction,ComponentPad*%
%ADD17C,2.000000*%
%TD*%
%TA.AperFunction,ComponentPad*%
%ADD18R,1.700000X1.700000*%
%TD*%
%TA.AperFunction,ComponentPad*%
%ADD19O,1.700000X1.700000*%
%TD*%
G04 APERTURE END LIST*
D10*
%TO.P,RV6,1,1*%
%TO.N,Net-(R15-Pad1)*%
X100020000Y-115040000D03*
%TO.P,RV6,2,2*%
%TO.N,-5VA*%
X97480000Y-115040000D03*
%TO.P,RV6,3,3*%
X94940000Y-115040000D03*
%TD*%
D11*
%TO.P,RV1,*%
%TO.N,*%
X76120000Y-99540000D03*
X76120000Y-109140000D03*
D12*
%TO.P,RV1,1,1*%
%TO.N,Net-(J1-Pad3)*%
X68620000Y-101840000D03*
D13*
%TO.P,RV1,2,2*%
%TO.N,Net-(RV1-Pad2)*%
X68620000Y-104340000D03*
%TO.P,RV1,3,3*%
%TO.N,GND*%
X68620000Y-106840000D03*
%TD*%
D11*
%TO.P,RV3,*%
%TO.N,*%
X76120000Y-85670000D03*
X76120000Y-95270000D03*
D12*
%TO.P,RV3,1,1*%
%TO.N,+5VA*%
X68620000Y-87970000D03*
D13*
%TO.P,RV3,2,2*%
%TO.N,Net-(R12-Pad1)*%
X68620000Y-90470000D03*
%TO.P,RV3,3,3*%
%TO.N,GND*%
X68620000Y-92970000D03*
%TD*%
D14*
%TO.P,J6,1*%
%TO.N,GND*%
X104170000Y-96770000D03*
%TO.P,J6,2*%
%TO.N,unconnected-(J6-Pad2)*%
X104170000Y-93670000D03*
%TO.P,J6,3*%
%TO.N,Net-(J6-Pad3)*%
X104170000Y-85370000D03*
%TD*%
D15*
%TO.P,C11,1*%
%TO.N,+12VA*%
X114105241Y-101690000D03*
D16*
%TO.P,C11,2*%
%TO.N,GND*%
X116605241Y-101690000D03*
%TD*%
D10*
%TO.P,RV8,1,1*%
%TO.N,Net-(R25-Pad2)*%
X135120000Y-72890000D03*
%TO.P,RV8,2,2*%
%TO.N,Net-(R26-Pad2)*%
X132580000Y-72890000D03*
%TO.P,RV8,3,3*%
%TO.N,Net-(R25-Pad1)*%
X130040000Y-72890000D03*
%TD*%
D14*
%TO.P,J8,1*%
%TO.N,GND*%
X86820000Y-111390000D03*
%TO.P,J8,2*%
%TO.N,unconnected-(J8-Pad2)*%
X86820000Y-108290000D03*
%TO.P,J8,3*%
%TO.N,Net-(J8-Pad3)*%
X86820000Y-99990000D03*
%TD*%
D10*
%TO.P,RV7,1,1*%
%TO.N,Net-(R22-Pad2)*%
X135120000Y-79340000D03*
%TO.P,RV7,2,2*%
X132580000Y-79340000D03*
%TO.P,RV7,3,3*%
%TO.N,Net-(R23-Pad2)*%
X130040000Y-79340000D03*
%TD*%
D17*
%TO.P,SW2,1,A*%
%TO.N,Net-(R7-Pad1)*%
X121480000Y-87275000D03*
%TO.P,SW2,2,B*%
%TO.N,Net-(C1-Pad2)*%
X124020000Y-87275000D03*
%TO.P,SW2,3,C*%
%TO.N,S_SYNC*%
X126560000Y-87275000D03*
%TD*%
D14*
%TO.P,J2,1*%
%TO.N,GND*%
X111770000Y-82720000D03*
%TO.P,J2,2*%
%TO.N,unconnected-(J2-Pad2)*%
X111770000Y-79620000D03*
%TO.P,J2,3*%
%TO.N,Net-(J2-Pad3)*%
X111770000Y-71320000D03*
%TD*%
D11*
%TO.P,RV4,*%
%TO.N,*%
X90920000Y-81400000D03*
X90920000Y-71800000D03*
D12*
%TO.P,RV4,1,1*%
%TO.N,+5VA*%
X83420000Y-74100000D03*
D13*
%TO.P,RV4,2,2*%
%TO.N,Net-(R13-Pad1)*%
X83420000Y-76600000D03*
%TO.P,RV4,3,3*%
%TO.N,GND*%
X83420000Y-79100000D03*
%TD*%
D14*
%TO.P,J4,1*%
%TO.N,GND*%
X96970000Y-110820000D03*
%TO.P,J4,2*%
%TO.N,unconnected-(J4-Pad2)*%
X96970000Y-107720000D03*
%TO.P,J4,3*%
%TO.N,Net-(C1-Pad1)*%
X96970000Y-99420000D03*
%TD*%
%TO.P,J7,1*%
%TO.N,GND*%
X114320000Y-96770000D03*
%TO.P,J7,2*%
%TO.N,unconnected-(J7-Pad2)*%
X114320000Y-93670000D03*
%TO.P,J7,3*%
%TO.N,Net-(J7-Pad3)*%
X114320000Y-85370000D03*
%TD*%
D17*
%TO.P,SW1,1,A*%
%TO.N,Net-(C2-Pad2)*%
X104130000Y-101325000D03*
%TO.P,SW1,2,B*%
%TO.N,Net-(RV1-Pad2)*%
X106670000Y-101325000D03*
%TO.P,SW1,3,C*%
%TO.N,Net-(R10-Pad1)*%
X109210000Y-101325000D03*
%TD*%
D14*
%TO.P,J1,1*%
%TO.N,GND*%
X94020000Y-96770000D03*
%TO.P,J1,2*%
%TO.N,unconnected-(J1-Pad2)*%
X94020000Y-93670000D03*
%TO.P,J1,3*%
%TO.N,Net-(J1-Pad3)*%
X94020000Y-85370000D03*
%TD*%
D15*
%TO.P,C13,1*%
%TO.N,GND*%
X105855241Y-115250000D03*
D16*
%TO.P,C13,2*%
%TO.N,-12VA*%
X108355241Y-115250000D03*
%TD*%
D10*
%TO.P,RV5,1,1*%
%TO.N,Net-(RV5-Pad1)*%
X83520000Y-115610000D03*
%TO.P,RV5,2,2*%
%TO.N,Net-(R8-Pad1)*%
X80980000Y-115610000D03*
%TO.P,RV5,3,3*%
%TO.N,GND*%
X78440000Y-115610000D03*
%TD*%
D18*
%TO.P,J5,1,Pin_1*%
%TO.N,-12VA*%
X84070000Y-85860000D03*
D19*
%TO.P,J5,2,Pin_2*%
X86610000Y-85860000D03*
%TO.P,J5,3,Pin_3*%
%TO.N,GND*%
X84070000Y-88400000D03*
%TO.P,J5,4,Pin_4*%
X86610000Y-88400000D03*
%TO.P,J5,5,Pin_5*%
X84070000Y-90940000D03*
%TO.P,J5,6,Pin_6*%
X86610000Y-90940000D03*
%TO.P,J5,7,Pin_7*%
X84070000Y-93480000D03*
%TO.P,J5,8,Pin_8*%
X86610000Y-93480000D03*
%TO.P,J5,9,Pin_9*%
%TO.N,+12VA*%
X84070000Y-96020000D03*
%TO.P,J5,10,Pin_10*%
X86610000Y-96020000D03*
%TD*%
D14*
%TO.P,J3,1*%
%TO.N,GND*%
X121920000Y-82720000D03*
%TO.P,J3,2*%
%TO.N,+5VA*%
X121920000Y-79620000D03*
%TO.P,J3,3*%
%TO.N,Net-(J3-Pad3)*%
X121920000Y-71320000D03*
%TD*%
%TO.P,J9,1*%
%TO.N,GND*%
X101620000Y-82720000D03*
%TO.P,J9,2*%
%TO.N,unconnected-(J9-Pad2)*%
X101620000Y-79620000D03*
%TO.P,J9,3*%
%TO.N,Net-(J9-Pad3)*%
X101620000Y-71320000D03*
%TD*%
D11*
%TO.P,RV2,*%
%TO.N,*%
X76120000Y-81400000D03*
X76120000Y-71800000D03*
D12*
%TO.P,RV2,1,1*%
%TO.N,Net-(J3-Pad3)*%
X68620000Y-74100000D03*
D13*
%TO.P,RV2,2,2*%
%TO.N,Net-(R2-Pad1)*%
X68620000Y-76600000D03*
%TO.P,RV2,3,3*%
%TO.N,GND*%
X68620000Y-79100000D03*
%TD*%
M02*
