%TF.GenerationSoftware,KiCad,Pcbnew,(6.0.9)*%
%TF.CreationDate,2022-12-23T01:27:24-06:00*%
%TF.ProjectId,CEM3340 VCO,43454d33-3334-4302-9056-434f2e6b6963,rev?*%
%TF.SameCoordinates,Original*%
%TF.FileFunction,Legend,Bot*%
%TF.FilePolarity,Positive*%
%FSLAX46Y46*%
G04 Gerber Fmt 4.6, Leading zero omitted, Abs format (unit mm)*
G04 Created by KiCad (PCBNEW (6.0.9)) date 2022-12-23 01:27:24*
%MOMM*%
%LPD*%
G01*
G04 APERTURE LIST*
%ADD10C,1.440000*%
%ADD11O,3.240000X2.720000*%
%ADD12R,1.800000X1.800000*%
%ADD13C,1.800000*%
%ADD14R,2.500000X1.000000*%
%ADD15R,1.600000X1.600000*%
%ADD16C,1.600000*%
%ADD17C,2.000000*%
%ADD18R,1.700000X1.700000*%
%ADD19O,1.700000X1.700000*%
G04 APERTURE END LIST*
%LPC*%
D10*
%TO.C,RV6*%
X100020000Y-115040000D03*
X97480000Y-115040000D03*
X94940000Y-115040000D03*
%TD*%
D11*
%TO.C,RV1*%
X76120000Y-99540000D03*
X76120000Y-109140000D03*
D12*
X68620000Y-101840000D03*
D13*
X68620000Y-104340000D03*
X68620000Y-106840000D03*
%TD*%
D11*
%TO.C,RV3*%
X76120000Y-85670000D03*
X76120000Y-95270000D03*
D12*
X68620000Y-87970000D03*
D13*
X68620000Y-90470000D03*
X68620000Y-92970000D03*
%TD*%
D14*
%TO.C,J6*%
X104170000Y-96770000D03*
X104170000Y-93670000D03*
X104170000Y-85370000D03*
%TD*%
D15*
%TO.C,C11*%
X114105241Y-101690000D03*
D16*
X116605241Y-101690000D03*
%TD*%
D10*
%TO.C,RV8*%
X135120000Y-72890000D03*
X132580000Y-72890000D03*
X130040000Y-72890000D03*
%TD*%
D14*
%TO.C,J8*%
X86820000Y-111390000D03*
X86820000Y-108290000D03*
X86820000Y-99990000D03*
%TD*%
D10*
%TO.C,RV7*%
X135120000Y-79340000D03*
X132580000Y-79340000D03*
X130040000Y-79340000D03*
%TD*%
D17*
%TO.C,SW2*%
X121480000Y-87275000D03*
X124020000Y-87275000D03*
X126560000Y-87275000D03*
%TD*%
D14*
%TO.C,J2*%
X111770000Y-82720000D03*
X111770000Y-79620000D03*
X111770000Y-71320000D03*
%TD*%
D11*
%TO.C,RV4*%
X90920000Y-81400000D03*
X90920000Y-71800000D03*
D12*
X83420000Y-74100000D03*
D13*
X83420000Y-76600000D03*
X83420000Y-79100000D03*
%TD*%
D14*
%TO.C,J4*%
X96970000Y-110820000D03*
X96970000Y-107720000D03*
X96970000Y-99420000D03*
%TD*%
%TO.C,J7*%
X114320000Y-96770000D03*
X114320000Y-93670000D03*
X114320000Y-85370000D03*
%TD*%
D17*
%TO.C,SW1*%
X104130000Y-101325000D03*
X106670000Y-101325000D03*
X109210000Y-101325000D03*
%TD*%
D14*
%TO.C,J1*%
X94020000Y-96770000D03*
X94020000Y-93670000D03*
X94020000Y-85370000D03*
%TD*%
D15*
%TO.C,C13*%
X105855241Y-115250000D03*
D16*
X108355241Y-115250000D03*
%TD*%
D10*
%TO.C,RV5*%
X83520000Y-115610000D03*
X80980000Y-115610000D03*
X78440000Y-115610000D03*
%TD*%
D18*
%TO.C,J5*%
X84070000Y-85860000D03*
D19*
X86610000Y-85860000D03*
X84070000Y-88400000D03*
X86610000Y-88400000D03*
X84070000Y-90940000D03*
X86610000Y-90940000D03*
X84070000Y-93480000D03*
X86610000Y-93480000D03*
X84070000Y-96020000D03*
X86610000Y-96020000D03*
%TD*%
D14*
%TO.C,J3*%
X121920000Y-82720000D03*
X121920000Y-79620000D03*
X121920000Y-71320000D03*
%TD*%
%TO.C,J9*%
X101620000Y-82720000D03*
X101620000Y-79620000D03*
X101620000Y-71320000D03*
%TD*%
D11*
%TO.C,RV2*%
X76120000Y-81400000D03*
X76120000Y-71800000D03*
D12*
X68620000Y-74100000D03*
D13*
X68620000Y-76600000D03*
X68620000Y-79100000D03*
%TD*%
M02*
