%TF.GenerationSoftware,KiCad,Pcbnew,(6.0.9)*%
%TF.CreationDate,2022-12-23T01:27:24-06:00*%
%TF.ProjectId,CEM3340 VCO,43454d33-3334-4302-9056-434f2e6b6963,rev?*%
%TF.SameCoordinates,Original*%
%TF.FileFunction,Legend,Top*%
%TF.FilePolarity,Positive*%
%FSLAX46Y46*%
G04 Gerber Fmt 4.6, Leading zero omitted, Abs format (unit mm)*
G04 Created by KiCad (PCBNEW (6.0.9)) date 2022-12-23 01:27:24*
%MOMM*%
%LPD*%
G01*
G04 APERTURE LIST*
G04 Aperture macros list*
%AMRoundRect*
0 Rectangle with rounded corners*
0 $1 Rounding radius*
0 $2 $3 $4 $5 $6 $7 $8 $9 X,Y pos of 4 corners*
0 Add a 4 corners polygon primitive as box body*
4,1,4,$2,$3,$4,$5,$6,$7,$8,$9,$2,$3,0*
0 Add four circle primitives for the rounded corners*
1,1,$1+$1,$2,$3*
1,1,$1+$1,$4,$5*
1,1,$1+$1,$6,$7*
1,1,$1+$1,$8,$9*
0 Add four rect primitives between the rounded corners*
20,1,$1+$1,$2,$3,$4,$5,0*
20,1,$1+$1,$4,$5,$6,$7,0*
20,1,$1+$1,$6,$7,$8,$9,0*
20,1,$1+$1,$8,$9,$2,$3,0*%
%AMFreePoly0*
4,1,9,3.862500,-0.866500,0.737500,-0.866500,0.737500,-0.450000,-0.737500,-0.450000,-0.737500,0.450000,0.737500,0.450000,0.737500,0.866500,3.862500,0.866500,3.862500,-0.866500,3.862500,-0.866500,$1*%
G04 Aperture macros list end*
%ADD10C,0.150000*%
%ADD11C,0.120000*%
%ADD12R,2.500000X1.000000*%
%ADD13RoundRect,0.150000X-0.825000X-0.150000X0.825000X-0.150000X0.825000X0.150000X-0.825000X0.150000X0*%
%ADD14RoundRect,0.200000X-0.200000X-0.275000X0.200000X-0.275000X0.200000X0.275000X-0.200000X0.275000X0*%
%ADD15C,1.440000*%
%ADD16O,3.240000X2.720000*%
%ADD17R,1.800000X1.800000*%
%ADD18C,1.800000*%
%ADD19RoundRect,0.225000X-0.225000X-0.250000X0.225000X-0.250000X0.225000X0.250000X-0.225000X0.250000X0*%
%ADD20RoundRect,0.150000X-0.725000X-0.150000X0.725000X-0.150000X0.725000X0.150000X-0.725000X0.150000X0*%
%ADD21RoundRect,0.150000X-0.587500X-0.150000X0.587500X-0.150000X0.587500X0.150000X-0.587500X0.150000X0*%
%ADD22R,1.600000X1.600000*%
%ADD23C,1.600000*%
%ADD24C,2.000000*%
%ADD25R,0.900000X1.200000*%
%ADD26R,1.300000X0.900000*%
%ADD27FreePoly0,0.000000*%
%ADD28R,1.700000X1.700000*%
%ADD29O,1.700000X1.700000*%
G04 APERTURE END LIST*
D10*
%TO.C,U1*%
X105508095Y-104152380D02*
X105508095Y-104961904D01*
X105555714Y-105057142D01*
X105603333Y-105104761D01*
X105698571Y-105152380D01*
X105889047Y-105152380D01*
X105984285Y-105104761D01*
X106031904Y-105057142D01*
X106079523Y-104961904D01*
X106079523Y-104152380D01*
X107079523Y-105152380D02*
X106508095Y-105152380D01*
X106793809Y-105152380D02*
X106793809Y-104152380D01*
X106698571Y-104295238D01*
X106603333Y-104390476D01*
X106508095Y-104438095D01*
%TO.C,R33*%
X104297142Y-119452380D02*
X103963809Y-118976190D01*
X103725714Y-119452380D02*
X103725714Y-118452380D01*
X104106666Y-118452380D01*
X104201904Y-118500000D01*
X104249523Y-118547619D01*
X104297142Y-118642857D01*
X104297142Y-118785714D01*
X104249523Y-118880952D01*
X104201904Y-118928571D01*
X104106666Y-118976190D01*
X103725714Y-118976190D01*
X104630476Y-118452380D02*
X105249523Y-118452380D01*
X104916190Y-118833333D01*
X105059047Y-118833333D01*
X105154285Y-118880952D01*
X105201904Y-118928571D01*
X105249523Y-119023809D01*
X105249523Y-119261904D01*
X105201904Y-119357142D01*
X105154285Y-119404761D01*
X105059047Y-119452380D01*
X104773333Y-119452380D01*
X104678095Y-119404761D01*
X104630476Y-119357142D01*
X105582857Y-118452380D02*
X106201904Y-118452380D01*
X105868571Y-118833333D01*
X106011428Y-118833333D01*
X106106666Y-118880952D01*
X106154285Y-118928571D01*
X106201904Y-119023809D01*
X106201904Y-119261904D01*
X106154285Y-119357142D01*
X106106666Y-119404761D01*
X106011428Y-119452380D01*
X105725714Y-119452380D01*
X105630476Y-119404761D01*
X105582857Y-119357142D01*
%TO.C,R19*%
X116397142Y-113422380D02*
X116063809Y-112946190D01*
X115825714Y-113422380D02*
X115825714Y-112422380D01*
X116206666Y-112422380D01*
X116301904Y-112470000D01*
X116349523Y-112517619D01*
X116397142Y-112612857D01*
X116397142Y-112755714D01*
X116349523Y-112850952D01*
X116301904Y-112898571D01*
X116206666Y-112946190D01*
X115825714Y-112946190D01*
X117349523Y-113422380D02*
X116778095Y-113422380D01*
X117063809Y-113422380D02*
X117063809Y-112422380D01*
X116968571Y-112565238D01*
X116873333Y-112660476D01*
X116778095Y-112708095D01*
X117825714Y-113422380D02*
X118016190Y-113422380D01*
X118111428Y-113374761D01*
X118159047Y-113327142D01*
X118254285Y-113184285D01*
X118301904Y-112993809D01*
X118301904Y-112612857D01*
X118254285Y-112517619D01*
X118206666Y-112470000D01*
X118111428Y-112422380D01*
X117920952Y-112422380D01*
X117825714Y-112470000D01*
X117778095Y-112517619D01*
X117730476Y-112612857D01*
X117730476Y-112850952D01*
X117778095Y-112946190D01*
X117825714Y-112993809D01*
X117920952Y-113041428D01*
X118111428Y-113041428D01*
X118206666Y-112993809D01*
X118254285Y-112946190D01*
X118301904Y-112850952D01*
%TO.C,RV6*%
X96884761Y-111832380D02*
X96551428Y-111356190D01*
X96313333Y-111832380D02*
X96313333Y-110832380D01*
X96694285Y-110832380D01*
X96789523Y-110880000D01*
X96837142Y-110927619D01*
X96884761Y-111022857D01*
X96884761Y-111165714D01*
X96837142Y-111260952D01*
X96789523Y-111308571D01*
X96694285Y-111356190D01*
X96313333Y-111356190D01*
X97170476Y-110832380D02*
X97503809Y-111832380D01*
X97837142Y-110832380D01*
X98599047Y-110832380D02*
X98408571Y-110832380D01*
X98313333Y-110880000D01*
X98265714Y-110927619D01*
X98170476Y-111070476D01*
X98122857Y-111260952D01*
X98122857Y-111641904D01*
X98170476Y-111737142D01*
X98218095Y-111784761D01*
X98313333Y-111832380D01*
X98503809Y-111832380D01*
X98599047Y-111784761D01*
X98646666Y-111737142D01*
X98694285Y-111641904D01*
X98694285Y-111403809D01*
X98646666Y-111308571D01*
X98599047Y-111260952D01*
X98503809Y-111213333D01*
X98313333Y-111213333D01*
X98218095Y-111260952D01*
X98170476Y-111308571D01*
X98122857Y-111403809D01*
%TO.C,RV1*%
X74734761Y-97652380D02*
X74401428Y-97176190D01*
X74163333Y-97652380D02*
X74163333Y-96652380D01*
X74544285Y-96652380D01*
X74639523Y-96700000D01*
X74687142Y-96747619D01*
X74734761Y-96842857D01*
X74734761Y-96985714D01*
X74687142Y-97080952D01*
X74639523Y-97128571D01*
X74544285Y-97176190D01*
X74163333Y-97176190D01*
X75020476Y-96652380D02*
X75353809Y-97652380D01*
X75687142Y-96652380D01*
X76544285Y-97652380D02*
X75972857Y-97652380D01*
X76258571Y-97652380D02*
X76258571Y-96652380D01*
X76163333Y-96795238D01*
X76068095Y-96890476D01*
X75972857Y-96938095D01*
%TO.C,C12*%
X92267142Y-120957142D02*
X92219523Y-121004761D01*
X92076666Y-121052380D01*
X91981428Y-121052380D01*
X91838571Y-121004761D01*
X91743333Y-120909523D01*
X91695714Y-120814285D01*
X91648095Y-120623809D01*
X91648095Y-120480952D01*
X91695714Y-120290476D01*
X91743333Y-120195238D01*
X91838571Y-120100000D01*
X91981428Y-120052380D01*
X92076666Y-120052380D01*
X92219523Y-120100000D01*
X92267142Y-120147619D01*
X93219523Y-121052380D02*
X92648095Y-121052380D01*
X92933809Y-121052380D02*
X92933809Y-120052380D01*
X92838571Y-120195238D01*
X92743333Y-120290476D01*
X92648095Y-120338095D01*
X93600476Y-120147619D02*
X93648095Y-120100000D01*
X93743333Y-120052380D01*
X93981428Y-120052380D01*
X94076666Y-120100000D01*
X94124285Y-120147619D01*
X94171904Y-120242857D01*
X94171904Y-120338095D01*
X94124285Y-120480952D01*
X93552857Y-121052380D01*
X94171904Y-121052380D01*
%TO.C,R27*%
X128777142Y-98632380D02*
X128443809Y-98156190D01*
X128205714Y-98632380D02*
X128205714Y-97632380D01*
X128586666Y-97632380D01*
X128681904Y-97680000D01*
X128729523Y-97727619D01*
X128777142Y-97822857D01*
X128777142Y-97965714D01*
X128729523Y-98060952D01*
X128681904Y-98108571D01*
X128586666Y-98156190D01*
X128205714Y-98156190D01*
X129158095Y-97727619D02*
X129205714Y-97680000D01*
X129300952Y-97632380D01*
X129539047Y-97632380D01*
X129634285Y-97680000D01*
X129681904Y-97727619D01*
X129729523Y-97822857D01*
X129729523Y-97918095D01*
X129681904Y-98060952D01*
X129110476Y-98632380D01*
X129729523Y-98632380D01*
X130062857Y-97632380D02*
X130729523Y-97632380D01*
X130300952Y-98632380D01*
%TO.C,R15*%
X124647142Y-99662380D02*
X124313809Y-99186190D01*
X124075714Y-99662380D02*
X124075714Y-98662380D01*
X124456666Y-98662380D01*
X124551904Y-98710000D01*
X124599523Y-98757619D01*
X124647142Y-98852857D01*
X124647142Y-98995714D01*
X124599523Y-99090952D01*
X124551904Y-99138571D01*
X124456666Y-99186190D01*
X124075714Y-99186190D01*
X125599523Y-99662380D02*
X125028095Y-99662380D01*
X125313809Y-99662380D02*
X125313809Y-98662380D01*
X125218571Y-98805238D01*
X125123333Y-98900476D01*
X125028095Y-98948095D01*
X126504285Y-98662380D02*
X126028095Y-98662380D01*
X125980476Y-99138571D01*
X126028095Y-99090952D01*
X126123333Y-99043333D01*
X126361428Y-99043333D01*
X126456666Y-99090952D01*
X126504285Y-99138571D01*
X126551904Y-99233809D01*
X126551904Y-99471904D01*
X126504285Y-99567142D01*
X126456666Y-99614761D01*
X126361428Y-99662380D01*
X126123333Y-99662380D01*
X126028095Y-99614761D01*
X125980476Y-99567142D01*
%TO.C,U2*%
X141608095Y-68942380D02*
X141608095Y-69751904D01*
X141655714Y-69847142D01*
X141703333Y-69894761D01*
X141798571Y-69942380D01*
X141989047Y-69942380D01*
X142084285Y-69894761D01*
X142131904Y-69847142D01*
X142179523Y-69751904D01*
X142179523Y-68942380D01*
X142608095Y-69037619D02*
X142655714Y-68990000D01*
X142750952Y-68942380D01*
X142989047Y-68942380D01*
X143084285Y-68990000D01*
X143131904Y-69037619D01*
X143179523Y-69132857D01*
X143179523Y-69228095D01*
X143131904Y-69370952D01*
X142560476Y-69942380D01*
X143179523Y-69942380D01*
%TO.C,U3*%
X70408095Y-110552380D02*
X70408095Y-111361904D01*
X70455714Y-111457142D01*
X70503333Y-111504761D01*
X70598571Y-111552380D01*
X70789047Y-111552380D01*
X70884285Y-111504761D01*
X70931904Y-111457142D01*
X70979523Y-111361904D01*
X70979523Y-110552380D01*
X71360476Y-110552380D02*
X71979523Y-110552380D01*
X71646190Y-110933333D01*
X71789047Y-110933333D01*
X71884285Y-110980952D01*
X71931904Y-111028571D01*
X71979523Y-111123809D01*
X71979523Y-111361904D01*
X71931904Y-111457142D01*
X71884285Y-111504761D01*
X71789047Y-111552380D01*
X71503333Y-111552380D01*
X71408095Y-111504761D01*
X71360476Y-111457142D01*
%TO.C,R23*%
X146017142Y-78902380D02*
X145683809Y-78426190D01*
X145445714Y-78902380D02*
X145445714Y-77902380D01*
X145826666Y-77902380D01*
X145921904Y-77950000D01*
X145969523Y-77997619D01*
X146017142Y-78092857D01*
X146017142Y-78235714D01*
X145969523Y-78330952D01*
X145921904Y-78378571D01*
X145826666Y-78426190D01*
X145445714Y-78426190D01*
X146398095Y-77997619D02*
X146445714Y-77950000D01*
X146540952Y-77902380D01*
X146779047Y-77902380D01*
X146874285Y-77950000D01*
X146921904Y-77997619D01*
X146969523Y-78092857D01*
X146969523Y-78188095D01*
X146921904Y-78330952D01*
X146350476Y-78902380D01*
X146969523Y-78902380D01*
X147302857Y-77902380D02*
X147921904Y-77902380D01*
X147588571Y-78283333D01*
X147731428Y-78283333D01*
X147826666Y-78330952D01*
X147874285Y-78378571D01*
X147921904Y-78473809D01*
X147921904Y-78711904D01*
X147874285Y-78807142D01*
X147826666Y-78854761D01*
X147731428Y-78902380D01*
X147445714Y-78902380D01*
X147350476Y-78854761D01*
X147302857Y-78807142D01*
%TO.C,RV3*%
X74734761Y-83782380D02*
X74401428Y-83306190D01*
X74163333Y-83782380D02*
X74163333Y-82782380D01*
X74544285Y-82782380D01*
X74639523Y-82830000D01*
X74687142Y-82877619D01*
X74734761Y-82972857D01*
X74734761Y-83115714D01*
X74687142Y-83210952D01*
X74639523Y-83258571D01*
X74544285Y-83306190D01*
X74163333Y-83306190D01*
X75020476Y-82782380D02*
X75353809Y-83782380D01*
X75687142Y-82782380D01*
X75925238Y-82782380D02*
X76544285Y-82782380D01*
X76210952Y-83163333D01*
X76353809Y-83163333D01*
X76449047Y-83210952D01*
X76496666Y-83258571D01*
X76544285Y-83353809D01*
X76544285Y-83591904D01*
X76496666Y-83687142D01*
X76449047Y-83734761D01*
X76353809Y-83782380D01*
X76068095Y-83782380D01*
X75972857Y-83734761D01*
X75925238Y-83687142D01*
%TO.C,R16*%
X134927142Y-88632380D02*
X134593809Y-88156190D01*
X134355714Y-88632380D02*
X134355714Y-87632380D01*
X134736666Y-87632380D01*
X134831904Y-87680000D01*
X134879523Y-87727619D01*
X134927142Y-87822857D01*
X134927142Y-87965714D01*
X134879523Y-88060952D01*
X134831904Y-88108571D01*
X134736666Y-88156190D01*
X134355714Y-88156190D01*
X135879523Y-88632380D02*
X135308095Y-88632380D01*
X135593809Y-88632380D02*
X135593809Y-87632380D01*
X135498571Y-87775238D01*
X135403333Y-87870476D01*
X135308095Y-87918095D01*
X136736666Y-87632380D02*
X136546190Y-87632380D01*
X136450952Y-87680000D01*
X136403333Y-87727619D01*
X136308095Y-87870476D01*
X136260476Y-88060952D01*
X136260476Y-88441904D01*
X136308095Y-88537142D01*
X136355714Y-88584761D01*
X136450952Y-88632380D01*
X136641428Y-88632380D01*
X136736666Y-88584761D01*
X136784285Y-88537142D01*
X136831904Y-88441904D01*
X136831904Y-88203809D01*
X136784285Y-88108571D01*
X136736666Y-88060952D01*
X136641428Y-88013333D01*
X136450952Y-88013333D01*
X136355714Y-88060952D01*
X136308095Y-88108571D01*
X136260476Y-88203809D01*
%TO.C,R7*%
X139413333Y-90372380D02*
X139080000Y-89896190D01*
X138841904Y-90372380D02*
X138841904Y-89372380D01*
X139222857Y-89372380D01*
X139318095Y-89420000D01*
X139365714Y-89467619D01*
X139413333Y-89562857D01*
X139413333Y-89705714D01*
X139365714Y-89800952D01*
X139318095Y-89848571D01*
X139222857Y-89896190D01*
X138841904Y-89896190D01*
X139746666Y-89372380D02*
X140413333Y-89372380D01*
X139984761Y-90372380D01*
%TO.C,J6*%
X107646666Y-96092380D02*
X107646666Y-96806666D01*
X107599047Y-96949523D01*
X107503809Y-97044761D01*
X107360952Y-97092380D01*
X107265714Y-97092380D01*
X108551428Y-96092380D02*
X108360952Y-96092380D01*
X108265714Y-96140000D01*
X108218095Y-96187619D01*
X108122857Y-96330476D01*
X108075238Y-96520952D01*
X108075238Y-96901904D01*
X108122857Y-96997142D01*
X108170476Y-97044761D01*
X108265714Y-97092380D01*
X108456190Y-97092380D01*
X108551428Y-97044761D01*
X108599047Y-96997142D01*
X108646666Y-96901904D01*
X108646666Y-96663809D01*
X108599047Y-96568571D01*
X108551428Y-96520952D01*
X108456190Y-96473333D01*
X108265714Y-96473333D01*
X108170476Y-96520952D01*
X108122857Y-96568571D01*
X108075238Y-96663809D01*
%TO.C,Q1*%
X129444761Y-61647619D02*
X129349523Y-61600000D01*
X129254285Y-61504761D01*
X129111428Y-61361904D01*
X129016190Y-61314285D01*
X128920952Y-61314285D01*
X128968571Y-61552380D02*
X128873333Y-61504761D01*
X128778095Y-61409523D01*
X128730476Y-61219047D01*
X128730476Y-60885714D01*
X128778095Y-60695238D01*
X128873333Y-60600000D01*
X128968571Y-60552380D01*
X129159047Y-60552380D01*
X129254285Y-60600000D01*
X129349523Y-60695238D01*
X129397142Y-60885714D01*
X129397142Y-61219047D01*
X129349523Y-61409523D01*
X129254285Y-61504761D01*
X129159047Y-61552380D01*
X128968571Y-61552380D01*
X130349523Y-61552380D02*
X129778095Y-61552380D01*
X130063809Y-61552380D02*
X130063809Y-60552380D01*
X129968571Y-60695238D01*
X129873333Y-60790476D01*
X129778095Y-60838095D01*
%TO.C,C6*%
X125243333Y-97057142D02*
X125195714Y-97104761D01*
X125052857Y-97152380D01*
X124957619Y-97152380D01*
X124814761Y-97104761D01*
X124719523Y-97009523D01*
X124671904Y-96914285D01*
X124624285Y-96723809D01*
X124624285Y-96580952D01*
X124671904Y-96390476D01*
X124719523Y-96295238D01*
X124814761Y-96200000D01*
X124957619Y-96152380D01*
X125052857Y-96152380D01*
X125195714Y-96200000D01*
X125243333Y-96247619D01*
X126100476Y-96152380D02*
X125910000Y-96152380D01*
X125814761Y-96200000D01*
X125767142Y-96247619D01*
X125671904Y-96390476D01*
X125624285Y-96580952D01*
X125624285Y-96961904D01*
X125671904Y-97057142D01*
X125719523Y-97104761D01*
X125814761Y-97152380D01*
X126005238Y-97152380D01*
X126100476Y-97104761D01*
X126148095Y-97057142D01*
X126195714Y-96961904D01*
X126195714Y-96723809D01*
X126148095Y-96628571D01*
X126100476Y-96580952D01*
X126005238Y-96533333D01*
X125814761Y-96533333D01*
X125719523Y-96580952D01*
X125671904Y-96628571D01*
X125624285Y-96723809D01*
%TO.C,C5*%
X131393333Y-88537142D02*
X131345714Y-88584761D01*
X131202857Y-88632380D01*
X131107619Y-88632380D01*
X130964761Y-88584761D01*
X130869523Y-88489523D01*
X130821904Y-88394285D01*
X130774285Y-88203809D01*
X130774285Y-88060952D01*
X130821904Y-87870476D01*
X130869523Y-87775238D01*
X130964761Y-87680000D01*
X131107619Y-87632380D01*
X131202857Y-87632380D01*
X131345714Y-87680000D01*
X131393333Y-87727619D01*
X132298095Y-87632380D02*
X131821904Y-87632380D01*
X131774285Y-88108571D01*
X131821904Y-88060952D01*
X131917142Y-88013333D01*
X132155238Y-88013333D01*
X132250476Y-88060952D01*
X132298095Y-88108571D01*
X132345714Y-88203809D01*
X132345714Y-88441904D01*
X132298095Y-88537142D01*
X132250476Y-88584761D01*
X132155238Y-88632380D01*
X131917142Y-88632380D01*
X131821904Y-88584761D01*
X131774285Y-88537142D01*
%TO.C,R28*%
X140527142Y-82182380D02*
X140193809Y-81706190D01*
X139955714Y-82182380D02*
X139955714Y-81182380D01*
X140336666Y-81182380D01*
X140431904Y-81230000D01*
X140479523Y-81277619D01*
X140527142Y-81372857D01*
X140527142Y-81515714D01*
X140479523Y-81610952D01*
X140431904Y-81658571D01*
X140336666Y-81706190D01*
X139955714Y-81706190D01*
X140908095Y-81277619D02*
X140955714Y-81230000D01*
X141050952Y-81182380D01*
X141289047Y-81182380D01*
X141384285Y-81230000D01*
X141431904Y-81277619D01*
X141479523Y-81372857D01*
X141479523Y-81468095D01*
X141431904Y-81610952D01*
X140860476Y-82182380D01*
X141479523Y-82182380D01*
X142050952Y-81610952D02*
X141955714Y-81563333D01*
X141908095Y-81515714D01*
X141860476Y-81420476D01*
X141860476Y-81372857D01*
X141908095Y-81277619D01*
X141955714Y-81230000D01*
X142050952Y-81182380D01*
X142241428Y-81182380D01*
X142336666Y-81230000D01*
X142384285Y-81277619D01*
X142431904Y-81372857D01*
X142431904Y-81420476D01*
X142384285Y-81515714D01*
X142336666Y-81563333D01*
X142241428Y-81610952D01*
X142050952Y-81610952D01*
X141955714Y-81658571D01*
X141908095Y-81706190D01*
X141860476Y-81801428D01*
X141860476Y-81991904D01*
X141908095Y-82087142D01*
X141955714Y-82134761D01*
X142050952Y-82182380D01*
X142241428Y-82182380D01*
X142336666Y-82134761D01*
X142384285Y-82087142D01*
X142431904Y-81991904D01*
X142431904Y-81801428D01*
X142384285Y-81706190D01*
X142336666Y-81658571D01*
X142241428Y-81610952D01*
%TO.C,C11*%
X114712383Y-97647142D02*
X114664764Y-97694761D01*
X114521907Y-97742380D01*
X114426669Y-97742380D01*
X114283812Y-97694761D01*
X114188574Y-97599523D01*
X114140955Y-97504285D01*
X114093336Y-97313809D01*
X114093336Y-97170952D01*
X114140955Y-96980476D01*
X114188574Y-96885238D01*
X114283812Y-96790000D01*
X114426669Y-96742380D01*
X114521907Y-96742380D01*
X114664764Y-96790000D01*
X114712383Y-96837619D01*
X115664764Y-97742380D02*
X115093336Y-97742380D01*
X115379050Y-97742380D02*
X115379050Y-96742380D01*
X115283812Y-96885238D01*
X115188574Y-96980476D01*
X115093336Y-97028095D01*
X116617145Y-97742380D02*
X116045717Y-97742380D01*
X116331431Y-97742380D02*
X116331431Y-96742380D01*
X116236193Y-96885238D01*
X116140955Y-96980476D01*
X116045717Y-97028095D01*
%TO.C,R30*%
X96277142Y-121052380D02*
X95943809Y-120576190D01*
X95705714Y-121052380D02*
X95705714Y-120052380D01*
X96086666Y-120052380D01*
X96181904Y-120100000D01*
X96229523Y-120147619D01*
X96277142Y-120242857D01*
X96277142Y-120385714D01*
X96229523Y-120480952D01*
X96181904Y-120528571D01*
X96086666Y-120576190D01*
X95705714Y-120576190D01*
X96610476Y-120052380D02*
X97229523Y-120052380D01*
X96896190Y-120433333D01*
X97039047Y-120433333D01*
X97134285Y-120480952D01*
X97181904Y-120528571D01*
X97229523Y-120623809D01*
X97229523Y-120861904D01*
X97181904Y-120957142D01*
X97134285Y-121004761D01*
X97039047Y-121052380D01*
X96753333Y-121052380D01*
X96658095Y-121004761D01*
X96610476Y-120957142D01*
X97848571Y-120052380D02*
X97943809Y-120052380D01*
X98039047Y-120100000D01*
X98086666Y-120147619D01*
X98134285Y-120242857D01*
X98181904Y-120433333D01*
X98181904Y-120671428D01*
X98134285Y-120861904D01*
X98086666Y-120957142D01*
X98039047Y-121004761D01*
X97943809Y-121052380D01*
X97848571Y-121052380D01*
X97753333Y-121004761D01*
X97705714Y-120957142D01*
X97658095Y-120861904D01*
X97610476Y-120671428D01*
X97610476Y-120433333D01*
X97658095Y-120242857D01*
X97705714Y-120147619D01*
X97753333Y-120100000D01*
X97848571Y-120052380D01*
%TO.C,C3*%
X116873333Y-110817142D02*
X116825714Y-110864761D01*
X116682857Y-110912380D01*
X116587619Y-110912380D01*
X116444761Y-110864761D01*
X116349523Y-110769523D01*
X116301904Y-110674285D01*
X116254285Y-110483809D01*
X116254285Y-110340952D01*
X116301904Y-110150476D01*
X116349523Y-110055238D01*
X116444761Y-109960000D01*
X116587619Y-109912380D01*
X116682857Y-109912380D01*
X116825714Y-109960000D01*
X116873333Y-110007619D01*
X117206666Y-109912380D02*
X117825714Y-109912380D01*
X117492380Y-110293333D01*
X117635238Y-110293333D01*
X117730476Y-110340952D01*
X117778095Y-110388571D01*
X117825714Y-110483809D01*
X117825714Y-110721904D01*
X117778095Y-110817142D01*
X117730476Y-110864761D01*
X117635238Y-110912380D01*
X117349523Y-110912380D01*
X117254285Y-110864761D01*
X117206666Y-110817142D01*
%TO.C,R26*%
X87907142Y-115172380D02*
X87573809Y-114696190D01*
X87335714Y-115172380D02*
X87335714Y-114172380D01*
X87716666Y-114172380D01*
X87811904Y-114220000D01*
X87859523Y-114267619D01*
X87907142Y-114362857D01*
X87907142Y-114505714D01*
X87859523Y-114600952D01*
X87811904Y-114648571D01*
X87716666Y-114696190D01*
X87335714Y-114696190D01*
X88288095Y-114267619D02*
X88335714Y-114220000D01*
X88430952Y-114172380D01*
X88669047Y-114172380D01*
X88764285Y-114220000D01*
X88811904Y-114267619D01*
X88859523Y-114362857D01*
X88859523Y-114458095D01*
X88811904Y-114600952D01*
X88240476Y-115172380D01*
X88859523Y-115172380D01*
X89716666Y-114172380D02*
X89526190Y-114172380D01*
X89430952Y-114220000D01*
X89383333Y-114267619D01*
X89288095Y-114410476D01*
X89240476Y-114600952D01*
X89240476Y-114981904D01*
X89288095Y-115077142D01*
X89335714Y-115124761D01*
X89430952Y-115172380D01*
X89621428Y-115172380D01*
X89716666Y-115124761D01*
X89764285Y-115077142D01*
X89811904Y-114981904D01*
X89811904Y-114743809D01*
X89764285Y-114648571D01*
X89716666Y-114600952D01*
X89621428Y-114553333D01*
X89430952Y-114553333D01*
X89335714Y-114600952D01*
X89288095Y-114648571D01*
X89240476Y-114743809D01*
%TO.C,RV8*%
X131984761Y-69682380D02*
X131651428Y-69206190D01*
X131413333Y-69682380D02*
X131413333Y-68682380D01*
X131794285Y-68682380D01*
X131889523Y-68730000D01*
X131937142Y-68777619D01*
X131984761Y-68872857D01*
X131984761Y-69015714D01*
X131937142Y-69110952D01*
X131889523Y-69158571D01*
X131794285Y-69206190D01*
X131413333Y-69206190D01*
X132270476Y-68682380D02*
X132603809Y-69682380D01*
X132937142Y-68682380D01*
X133413333Y-69110952D02*
X133318095Y-69063333D01*
X133270476Y-69015714D01*
X133222857Y-68920476D01*
X133222857Y-68872857D01*
X133270476Y-68777619D01*
X133318095Y-68730000D01*
X133413333Y-68682380D01*
X133603809Y-68682380D01*
X133699047Y-68730000D01*
X133746666Y-68777619D01*
X133794285Y-68872857D01*
X133794285Y-68920476D01*
X133746666Y-69015714D01*
X133699047Y-69063333D01*
X133603809Y-69110952D01*
X133413333Y-69110952D01*
X133318095Y-69158571D01*
X133270476Y-69206190D01*
X133222857Y-69301428D01*
X133222857Y-69491904D01*
X133270476Y-69587142D01*
X133318095Y-69634761D01*
X133413333Y-69682380D01*
X133603809Y-69682380D01*
X133699047Y-69634761D01*
X133746666Y-69587142D01*
X133794285Y-69491904D01*
X133794285Y-69301428D01*
X133746666Y-69206190D01*
X133699047Y-69158571D01*
X133603809Y-69110952D01*
%TO.C,C15*%
X88257142Y-120097142D02*
X88209523Y-120144761D01*
X88066666Y-120192380D01*
X87971428Y-120192380D01*
X87828571Y-120144761D01*
X87733333Y-120049523D01*
X87685714Y-119954285D01*
X87638095Y-119763809D01*
X87638095Y-119620952D01*
X87685714Y-119430476D01*
X87733333Y-119335238D01*
X87828571Y-119240000D01*
X87971428Y-119192380D01*
X88066666Y-119192380D01*
X88209523Y-119240000D01*
X88257142Y-119287619D01*
X89209523Y-120192380D02*
X88638095Y-120192380D01*
X88923809Y-120192380D02*
X88923809Y-119192380D01*
X88828571Y-119335238D01*
X88733333Y-119430476D01*
X88638095Y-119478095D01*
X90114285Y-119192380D02*
X89638095Y-119192380D01*
X89590476Y-119668571D01*
X89638095Y-119620952D01*
X89733333Y-119573333D01*
X89971428Y-119573333D01*
X90066666Y-119620952D01*
X90114285Y-119668571D01*
X90161904Y-119763809D01*
X90161904Y-120001904D01*
X90114285Y-120097142D01*
X90066666Y-120144761D01*
X89971428Y-120192380D01*
X89733333Y-120192380D01*
X89638095Y-120144761D01*
X89590476Y-120097142D01*
%TO.C,J8*%
X90296666Y-110712380D02*
X90296666Y-111426666D01*
X90249047Y-111569523D01*
X90153809Y-111664761D01*
X90010952Y-111712380D01*
X89915714Y-111712380D01*
X90915714Y-111140952D02*
X90820476Y-111093333D01*
X90772857Y-111045714D01*
X90725238Y-110950476D01*
X90725238Y-110902857D01*
X90772857Y-110807619D01*
X90820476Y-110760000D01*
X90915714Y-110712380D01*
X91106190Y-110712380D01*
X91201428Y-110760000D01*
X91249047Y-110807619D01*
X91296666Y-110902857D01*
X91296666Y-110950476D01*
X91249047Y-111045714D01*
X91201428Y-111093333D01*
X91106190Y-111140952D01*
X90915714Y-111140952D01*
X90820476Y-111188571D01*
X90772857Y-111236190D01*
X90725238Y-111331428D01*
X90725238Y-111521904D01*
X90772857Y-111617142D01*
X90820476Y-111664761D01*
X90915714Y-111712380D01*
X91106190Y-111712380D01*
X91201428Y-111664761D01*
X91249047Y-111617142D01*
X91296666Y-111521904D01*
X91296666Y-111331428D01*
X91249047Y-111236190D01*
X91201428Y-111188571D01*
X91106190Y-111140952D01*
%TO.C,RV7*%
X131984761Y-76132380D02*
X131651428Y-75656190D01*
X131413333Y-76132380D02*
X131413333Y-75132380D01*
X131794285Y-75132380D01*
X131889523Y-75180000D01*
X131937142Y-75227619D01*
X131984761Y-75322857D01*
X131984761Y-75465714D01*
X131937142Y-75560952D01*
X131889523Y-75608571D01*
X131794285Y-75656190D01*
X131413333Y-75656190D01*
X132270476Y-75132380D02*
X132603809Y-76132380D01*
X132937142Y-75132380D01*
X133175238Y-75132380D02*
X133841904Y-75132380D01*
X133413333Y-76132380D01*
%TO.C,SW2*%
X122686666Y-83869761D02*
X122829523Y-83917380D01*
X123067619Y-83917380D01*
X123162857Y-83869761D01*
X123210476Y-83822142D01*
X123258095Y-83726904D01*
X123258095Y-83631666D01*
X123210476Y-83536428D01*
X123162857Y-83488809D01*
X123067619Y-83441190D01*
X122877142Y-83393571D01*
X122781904Y-83345952D01*
X122734285Y-83298333D01*
X122686666Y-83203095D01*
X122686666Y-83107857D01*
X122734285Y-83012619D01*
X122781904Y-82965000D01*
X122877142Y-82917380D01*
X123115238Y-82917380D01*
X123258095Y-82965000D01*
X123591428Y-82917380D02*
X123829523Y-83917380D01*
X124020000Y-83203095D01*
X124210476Y-83917380D01*
X124448571Y-82917380D01*
X124781904Y-83012619D02*
X124829523Y-82965000D01*
X124924761Y-82917380D01*
X125162857Y-82917380D01*
X125258095Y-82965000D01*
X125305714Y-83012619D01*
X125353333Y-83107857D01*
X125353333Y-83203095D01*
X125305714Y-83345952D01*
X124734285Y-83917380D01*
X125353333Y-83917380D01*
%TO.C,R32*%
X88257142Y-117682380D02*
X87923809Y-117206190D01*
X87685714Y-117682380D02*
X87685714Y-116682380D01*
X88066666Y-116682380D01*
X88161904Y-116730000D01*
X88209523Y-116777619D01*
X88257142Y-116872857D01*
X88257142Y-117015714D01*
X88209523Y-117110952D01*
X88161904Y-117158571D01*
X88066666Y-117206190D01*
X87685714Y-117206190D01*
X88590476Y-116682380D02*
X89209523Y-116682380D01*
X88876190Y-117063333D01*
X89019047Y-117063333D01*
X89114285Y-117110952D01*
X89161904Y-117158571D01*
X89209523Y-117253809D01*
X89209523Y-117491904D01*
X89161904Y-117587142D01*
X89114285Y-117634761D01*
X89019047Y-117682380D01*
X88733333Y-117682380D01*
X88638095Y-117634761D01*
X88590476Y-117587142D01*
X89590476Y-116777619D02*
X89638095Y-116730000D01*
X89733333Y-116682380D01*
X89971428Y-116682380D01*
X90066666Y-116730000D01*
X90114285Y-116777619D01*
X90161904Y-116872857D01*
X90161904Y-116968095D01*
X90114285Y-117110952D01*
X89542857Y-117682380D01*
X90161904Y-117682380D01*
%TO.C,R11*%
X128657142Y-101142380D02*
X128323809Y-100666190D01*
X128085714Y-101142380D02*
X128085714Y-100142380D01*
X128466666Y-100142380D01*
X128561904Y-100190000D01*
X128609523Y-100237619D01*
X128657142Y-100332857D01*
X128657142Y-100475714D01*
X128609523Y-100570952D01*
X128561904Y-100618571D01*
X128466666Y-100666190D01*
X128085714Y-100666190D01*
X129609523Y-101142380D02*
X129038095Y-101142380D01*
X129323809Y-101142380D02*
X129323809Y-100142380D01*
X129228571Y-100285238D01*
X129133333Y-100380476D01*
X129038095Y-100428095D01*
X130561904Y-101142380D02*
X129990476Y-101142380D01*
X130276190Y-101142380D02*
X130276190Y-100142380D01*
X130180952Y-100285238D01*
X130085714Y-100380476D01*
X129990476Y-100428095D01*
%TO.C,C9*%
X141003333Y-84597142D02*
X140955714Y-84644761D01*
X140812857Y-84692380D01*
X140717619Y-84692380D01*
X140574761Y-84644761D01*
X140479523Y-84549523D01*
X140431904Y-84454285D01*
X140384285Y-84263809D01*
X140384285Y-84120952D01*
X140431904Y-83930476D01*
X140479523Y-83835238D01*
X140574761Y-83740000D01*
X140717619Y-83692380D01*
X140812857Y-83692380D01*
X140955714Y-83740000D01*
X141003333Y-83787619D01*
X141479523Y-84692380D02*
X141670000Y-84692380D01*
X141765238Y-84644761D01*
X141812857Y-84597142D01*
X141908095Y-84454285D01*
X141955714Y-84263809D01*
X141955714Y-83882857D01*
X141908095Y-83787619D01*
X141860476Y-83740000D01*
X141765238Y-83692380D01*
X141574761Y-83692380D01*
X141479523Y-83740000D01*
X141431904Y-83787619D01*
X141384285Y-83882857D01*
X141384285Y-84120952D01*
X141431904Y-84216190D01*
X141479523Y-84263809D01*
X141574761Y-84311428D01*
X141765238Y-84311428D01*
X141860476Y-84263809D01*
X141908095Y-84216190D01*
X141955714Y-84120952D01*
%TO.C,R17*%
X115867142Y-108402380D02*
X115533809Y-107926190D01*
X115295714Y-108402380D02*
X115295714Y-107402380D01*
X115676666Y-107402380D01*
X115771904Y-107450000D01*
X115819523Y-107497619D01*
X115867142Y-107592857D01*
X115867142Y-107735714D01*
X115819523Y-107830952D01*
X115771904Y-107878571D01*
X115676666Y-107926190D01*
X115295714Y-107926190D01*
X116819523Y-108402380D02*
X116248095Y-108402380D01*
X116533809Y-108402380D02*
X116533809Y-107402380D01*
X116438571Y-107545238D01*
X116343333Y-107640476D01*
X116248095Y-107688095D01*
X117152857Y-107402380D02*
X117819523Y-107402380D01*
X117390952Y-108402380D01*
%TO.C,J2*%
X115246666Y-82042380D02*
X115246666Y-82756666D01*
X115199047Y-82899523D01*
X115103809Y-82994761D01*
X114960952Y-83042380D01*
X114865714Y-83042380D01*
X115675238Y-82137619D02*
X115722857Y-82090000D01*
X115818095Y-82042380D01*
X116056190Y-82042380D01*
X116151428Y-82090000D01*
X116199047Y-82137619D01*
X116246666Y-82232857D01*
X116246666Y-82328095D01*
X116199047Y-82470952D01*
X115627619Y-83042380D01*
X116246666Y-83042380D01*
%TO.C,R40*%
X146017142Y-76392380D02*
X145683809Y-75916190D01*
X145445714Y-76392380D02*
X145445714Y-75392380D01*
X145826666Y-75392380D01*
X145921904Y-75440000D01*
X145969523Y-75487619D01*
X146017142Y-75582857D01*
X146017142Y-75725714D01*
X145969523Y-75820952D01*
X145921904Y-75868571D01*
X145826666Y-75916190D01*
X145445714Y-75916190D01*
X146874285Y-75725714D02*
X146874285Y-76392380D01*
X146636190Y-75344761D02*
X146398095Y-76059047D01*
X147017142Y-76059047D01*
X147588571Y-75392380D02*
X147683809Y-75392380D01*
X147779047Y-75440000D01*
X147826666Y-75487619D01*
X147874285Y-75582857D01*
X147921904Y-75773333D01*
X147921904Y-76011428D01*
X147874285Y-76201904D01*
X147826666Y-76297142D01*
X147779047Y-76344761D01*
X147683809Y-76392380D01*
X147588571Y-76392380D01*
X147493333Y-76344761D01*
X147445714Y-76297142D01*
X147398095Y-76201904D01*
X147350476Y-76011428D01*
X147350476Y-75773333D01*
X147398095Y-75582857D01*
X147445714Y-75487619D01*
X147493333Y-75440000D01*
X147588571Y-75392380D01*
%TO.C,R14*%
X154107142Y-74962380D02*
X153773809Y-74486190D01*
X153535714Y-74962380D02*
X153535714Y-73962380D01*
X153916666Y-73962380D01*
X154011904Y-74010000D01*
X154059523Y-74057619D01*
X154107142Y-74152857D01*
X154107142Y-74295714D01*
X154059523Y-74390952D01*
X154011904Y-74438571D01*
X153916666Y-74486190D01*
X153535714Y-74486190D01*
X155059523Y-74962380D02*
X154488095Y-74962380D01*
X154773809Y-74962380D02*
X154773809Y-73962380D01*
X154678571Y-74105238D01*
X154583333Y-74200476D01*
X154488095Y-74248095D01*
X155916666Y-74295714D02*
X155916666Y-74962380D01*
X155678571Y-73914761D02*
X155440476Y-74629047D01*
X156059523Y-74629047D01*
%TO.C,R41*%
X120637142Y-99662380D02*
X120303809Y-99186190D01*
X120065714Y-99662380D02*
X120065714Y-98662380D01*
X120446666Y-98662380D01*
X120541904Y-98710000D01*
X120589523Y-98757619D01*
X120637142Y-98852857D01*
X120637142Y-98995714D01*
X120589523Y-99090952D01*
X120541904Y-99138571D01*
X120446666Y-99186190D01*
X120065714Y-99186190D01*
X121494285Y-98995714D02*
X121494285Y-99662380D01*
X121256190Y-98614761D02*
X121018095Y-99329047D01*
X121637142Y-99329047D01*
X122541904Y-99662380D02*
X121970476Y-99662380D01*
X122256190Y-99662380D02*
X122256190Y-98662380D01*
X122160952Y-98805238D01*
X122065714Y-98900476D01*
X121970476Y-98948095D01*
%TO.C,R18*%
X128777142Y-96122380D02*
X128443809Y-95646190D01*
X128205714Y-96122380D02*
X128205714Y-95122380D01*
X128586666Y-95122380D01*
X128681904Y-95170000D01*
X128729523Y-95217619D01*
X128777142Y-95312857D01*
X128777142Y-95455714D01*
X128729523Y-95550952D01*
X128681904Y-95598571D01*
X128586666Y-95646190D01*
X128205714Y-95646190D01*
X129729523Y-96122380D02*
X129158095Y-96122380D01*
X129443809Y-96122380D02*
X129443809Y-95122380D01*
X129348571Y-95265238D01*
X129253333Y-95360476D01*
X129158095Y-95408095D01*
X130300952Y-95550952D02*
X130205714Y-95503333D01*
X130158095Y-95455714D01*
X130110476Y-95360476D01*
X130110476Y-95312857D01*
X130158095Y-95217619D01*
X130205714Y-95170000D01*
X130300952Y-95122380D01*
X130491428Y-95122380D01*
X130586666Y-95170000D01*
X130634285Y-95217619D01*
X130681904Y-95312857D01*
X130681904Y-95360476D01*
X130634285Y-95455714D01*
X130586666Y-95503333D01*
X130491428Y-95550952D01*
X130300952Y-95550952D01*
X130205714Y-95598571D01*
X130158095Y-95646190D01*
X130110476Y-95741428D01*
X130110476Y-95931904D01*
X130158095Y-96027142D01*
X130205714Y-96074761D01*
X130300952Y-96122380D01*
X130491428Y-96122380D01*
X130586666Y-96074761D01*
X130634285Y-96027142D01*
X130681904Y-95931904D01*
X130681904Y-95741428D01*
X130634285Y-95646190D01*
X130586666Y-95598571D01*
X130491428Y-95550952D01*
%TO.C,RV4*%
X89534761Y-69912380D02*
X89201428Y-69436190D01*
X88963333Y-69912380D02*
X88963333Y-68912380D01*
X89344285Y-68912380D01*
X89439523Y-68960000D01*
X89487142Y-69007619D01*
X89534761Y-69102857D01*
X89534761Y-69245714D01*
X89487142Y-69340952D01*
X89439523Y-69388571D01*
X89344285Y-69436190D01*
X88963333Y-69436190D01*
X89820476Y-68912380D02*
X90153809Y-69912380D01*
X90487142Y-68912380D01*
X91249047Y-69245714D02*
X91249047Y-69912380D01*
X91010952Y-68864761D02*
X90772857Y-69579047D01*
X91391904Y-69579047D01*
%TO.C,R2*%
X127383333Y-93612380D02*
X127050000Y-93136190D01*
X126811904Y-93612380D02*
X126811904Y-92612380D01*
X127192857Y-92612380D01*
X127288095Y-92660000D01*
X127335714Y-92707619D01*
X127383333Y-92802857D01*
X127383333Y-92945714D01*
X127335714Y-93040952D01*
X127288095Y-93088571D01*
X127192857Y-93136190D01*
X126811904Y-93136190D01*
X127764285Y-92707619D02*
X127811904Y-92660000D01*
X127907142Y-92612380D01*
X128145238Y-92612380D01*
X128240476Y-92660000D01*
X128288095Y-92707619D01*
X128335714Y-92802857D01*
X128335714Y-92898095D01*
X128288095Y-93040952D01*
X127716666Y-93612380D01*
X128335714Y-93612380D01*
%TO.C,J4*%
X100446666Y-110142380D02*
X100446666Y-110856666D01*
X100399047Y-110999523D01*
X100303809Y-111094761D01*
X100160952Y-111142380D01*
X100065714Y-111142380D01*
X101351428Y-110475714D02*
X101351428Y-111142380D01*
X101113333Y-110094761D02*
X100875238Y-110809047D01*
X101494285Y-110809047D01*
%TO.C,R9*%
X133263333Y-96162380D02*
X132930000Y-95686190D01*
X132691904Y-96162380D02*
X132691904Y-95162380D01*
X133072857Y-95162380D01*
X133168095Y-95210000D01*
X133215714Y-95257619D01*
X133263333Y-95352857D01*
X133263333Y-95495714D01*
X133215714Y-95590952D01*
X133168095Y-95638571D01*
X133072857Y-95686190D01*
X132691904Y-95686190D01*
X133739523Y-96162380D02*
X133930000Y-96162380D01*
X134025238Y-96114761D01*
X134072857Y-96067142D01*
X134168095Y-95924285D01*
X134215714Y-95733809D01*
X134215714Y-95352857D01*
X134168095Y-95257619D01*
X134120476Y-95210000D01*
X134025238Y-95162380D01*
X133834761Y-95162380D01*
X133739523Y-95210000D01*
X133691904Y-95257619D01*
X133644285Y-95352857D01*
X133644285Y-95590952D01*
X133691904Y-95686190D01*
X133739523Y-95733809D01*
X133834761Y-95781428D01*
X134025238Y-95781428D01*
X134120476Y-95733809D01*
X134168095Y-95686190D01*
X134215714Y-95590952D01*
%TO.C,J7*%
X117796666Y-96092380D02*
X117796666Y-96806666D01*
X117749047Y-96949523D01*
X117653809Y-97044761D01*
X117510952Y-97092380D01*
X117415714Y-97092380D01*
X118177619Y-96092380D02*
X118844285Y-96092380D01*
X118415714Y-97092380D01*
%TO.C,R6*%
X121233333Y-97152380D02*
X120900000Y-96676190D01*
X120661904Y-97152380D02*
X120661904Y-96152380D01*
X121042857Y-96152380D01*
X121138095Y-96200000D01*
X121185714Y-96247619D01*
X121233333Y-96342857D01*
X121233333Y-96485714D01*
X121185714Y-96580952D01*
X121138095Y-96628571D01*
X121042857Y-96676190D01*
X120661904Y-96676190D01*
X122090476Y-96152380D02*
X121900000Y-96152380D01*
X121804761Y-96200000D01*
X121757142Y-96247619D01*
X121661904Y-96390476D01*
X121614285Y-96580952D01*
X121614285Y-96961904D01*
X121661904Y-97057142D01*
X121709523Y-97104761D01*
X121804761Y-97152380D01*
X121995238Y-97152380D01*
X122090476Y-97104761D01*
X122138095Y-97057142D01*
X122185714Y-96961904D01*
X122185714Y-96723809D01*
X122138095Y-96628571D01*
X122090476Y-96580952D01*
X121995238Y-96533333D01*
X121804761Y-96533333D01*
X121709523Y-96580952D01*
X121661904Y-96628571D01*
X121614285Y-96723809D01*
%TO.C,R39*%
X138937142Y-87862380D02*
X138603809Y-87386190D01*
X138365714Y-87862380D02*
X138365714Y-86862380D01*
X138746666Y-86862380D01*
X138841904Y-86910000D01*
X138889523Y-86957619D01*
X138937142Y-87052857D01*
X138937142Y-87195714D01*
X138889523Y-87290952D01*
X138841904Y-87338571D01*
X138746666Y-87386190D01*
X138365714Y-87386190D01*
X139270476Y-86862380D02*
X139889523Y-86862380D01*
X139556190Y-87243333D01*
X139699047Y-87243333D01*
X139794285Y-87290952D01*
X139841904Y-87338571D01*
X139889523Y-87433809D01*
X139889523Y-87671904D01*
X139841904Y-87767142D01*
X139794285Y-87814761D01*
X139699047Y-87862380D01*
X139413333Y-87862380D01*
X139318095Y-87814761D01*
X139270476Y-87767142D01*
X140365714Y-87862380D02*
X140556190Y-87862380D01*
X140651428Y-87814761D01*
X140699047Y-87767142D01*
X140794285Y-87624285D01*
X140841904Y-87433809D01*
X140841904Y-87052857D01*
X140794285Y-86957619D01*
X140746666Y-86910000D01*
X140651428Y-86862380D01*
X140460952Y-86862380D01*
X140365714Y-86910000D01*
X140318095Y-86957619D01*
X140270476Y-87052857D01*
X140270476Y-87290952D01*
X140318095Y-87386190D01*
X140365714Y-87433809D01*
X140460952Y-87481428D01*
X140651428Y-87481428D01*
X140746666Y-87433809D01*
X140794285Y-87386190D01*
X140841904Y-87290952D01*
%TO.C,C8*%
X125123333Y-104587142D02*
X125075714Y-104634761D01*
X124932857Y-104682380D01*
X124837619Y-104682380D01*
X124694761Y-104634761D01*
X124599523Y-104539523D01*
X124551904Y-104444285D01*
X124504285Y-104253809D01*
X124504285Y-104110952D01*
X124551904Y-103920476D01*
X124599523Y-103825238D01*
X124694761Y-103730000D01*
X124837619Y-103682380D01*
X124932857Y-103682380D01*
X125075714Y-103730000D01*
X125123333Y-103777619D01*
X125694761Y-104110952D02*
X125599523Y-104063333D01*
X125551904Y-104015714D01*
X125504285Y-103920476D01*
X125504285Y-103872857D01*
X125551904Y-103777619D01*
X125599523Y-103730000D01*
X125694761Y-103682380D01*
X125885238Y-103682380D01*
X125980476Y-103730000D01*
X126028095Y-103777619D01*
X126075714Y-103872857D01*
X126075714Y-103920476D01*
X126028095Y-104015714D01*
X125980476Y-104063333D01*
X125885238Y-104110952D01*
X125694761Y-104110952D01*
X125599523Y-104158571D01*
X125551904Y-104206190D01*
X125504285Y-104301428D01*
X125504285Y-104491904D01*
X125551904Y-104587142D01*
X125599523Y-104634761D01*
X125694761Y-104682380D01*
X125885238Y-104682380D01*
X125980476Y-104634761D01*
X126028095Y-104587142D01*
X126075714Y-104491904D01*
X126075714Y-104301428D01*
X126028095Y-104206190D01*
X125980476Y-104158571D01*
X125885238Y-104110952D01*
%TO.C,R21*%
X134927142Y-91142380D02*
X134593809Y-90666190D01*
X134355714Y-91142380D02*
X134355714Y-90142380D01*
X134736666Y-90142380D01*
X134831904Y-90190000D01*
X134879523Y-90237619D01*
X134927142Y-90332857D01*
X134927142Y-90475714D01*
X134879523Y-90570952D01*
X134831904Y-90618571D01*
X134736666Y-90666190D01*
X134355714Y-90666190D01*
X135308095Y-90237619D02*
X135355714Y-90190000D01*
X135450952Y-90142380D01*
X135689047Y-90142380D01*
X135784285Y-90190000D01*
X135831904Y-90237619D01*
X135879523Y-90332857D01*
X135879523Y-90428095D01*
X135831904Y-90570952D01*
X135260476Y-91142380D01*
X135879523Y-91142380D01*
X136831904Y-91142380D02*
X136260476Y-91142380D01*
X136546190Y-91142380D02*
X136546190Y-90142380D01*
X136450952Y-90285238D01*
X136355714Y-90380476D01*
X136260476Y-90428095D01*
%TO.C,SW1*%
X105336666Y-97919761D02*
X105479523Y-97967380D01*
X105717619Y-97967380D01*
X105812857Y-97919761D01*
X105860476Y-97872142D01*
X105908095Y-97776904D01*
X105908095Y-97681666D01*
X105860476Y-97586428D01*
X105812857Y-97538809D01*
X105717619Y-97491190D01*
X105527142Y-97443571D01*
X105431904Y-97395952D01*
X105384285Y-97348333D01*
X105336666Y-97253095D01*
X105336666Y-97157857D01*
X105384285Y-97062619D01*
X105431904Y-97015000D01*
X105527142Y-96967380D01*
X105765238Y-96967380D01*
X105908095Y-97015000D01*
X106241428Y-96967380D02*
X106479523Y-97967380D01*
X106670000Y-97253095D01*
X106860476Y-97967380D01*
X107098571Y-96967380D01*
X108003333Y-97967380D02*
X107431904Y-97967380D01*
X107717619Y-97967380D02*
X107717619Y-96967380D01*
X107622380Y-97110238D01*
X107527142Y-97205476D01*
X107431904Y-97253095D01*
%TO.C,R25*%
X154107142Y-72452380D02*
X153773809Y-71976190D01*
X153535714Y-72452380D02*
X153535714Y-71452380D01*
X153916666Y-71452380D01*
X154011904Y-71500000D01*
X154059523Y-71547619D01*
X154107142Y-71642857D01*
X154107142Y-71785714D01*
X154059523Y-71880952D01*
X154011904Y-71928571D01*
X153916666Y-71976190D01*
X153535714Y-71976190D01*
X154488095Y-71547619D02*
X154535714Y-71500000D01*
X154630952Y-71452380D01*
X154869047Y-71452380D01*
X154964285Y-71500000D01*
X155011904Y-71547619D01*
X155059523Y-71642857D01*
X155059523Y-71738095D01*
X155011904Y-71880952D01*
X154440476Y-72452380D01*
X155059523Y-72452380D01*
X155964285Y-71452380D02*
X155488095Y-71452380D01*
X155440476Y-71928571D01*
X155488095Y-71880952D01*
X155583333Y-71833333D01*
X155821428Y-71833333D01*
X155916666Y-71880952D01*
X155964285Y-71928571D01*
X156011904Y-72023809D01*
X156011904Y-72261904D01*
X155964285Y-72357142D01*
X155916666Y-72404761D01*
X155821428Y-72452380D01*
X155583333Y-72452380D01*
X155488095Y-72404761D01*
X155440476Y-72357142D01*
%TO.C,R43*%
X115867142Y-105892380D02*
X115533809Y-105416190D01*
X115295714Y-105892380D02*
X115295714Y-104892380D01*
X115676666Y-104892380D01*
X115771904Y-104940000D01*
X115819523Y-104987619D01*
X115867142Y-105082857D01*
X115867142Y-105225714D01*
X115819523Y-105320952D01*
X115771904Y-105368571D01*
X115676666Y-105416190D01*
X115295714Y-105416190D01*
X116724285Y-105225714D02*
X116724285Y-105892380D01*
X116486190Y-104844761D02*
X116248095Y-105559047D01*
X116867142Y-105559047D01*
X117152857Y-104892380D02*
X117771904Y-104892380D01*
X117438571Y-105273333D01*
X117581428Y-105273333D01*
X117676666Y-105320952D01*
X117724285Y-105368571D01*
X117771904Y-105463809D01*
X117771904Y-105701904D01*
X117724285Y-105797142D01*
X117676666Y-105844761D01*
X117581428Y-105892380D01*
X117295714Y-105892380D01*
X117200476Y-105844761D01*
X117152857Y-105797142D01*
%TO.C,R12*%
X112387142Y-113422380D02*
X112053809Y-112946190D01*
X111815714Y-113422380D02*
X111815714Y-112422380D01*
X112196666Y-112422380D01*
X112291904Y-112470000D01*
X112339523Y-112517619D01*
X112387142Y-112612857D01*
X112387142Y-112755714D01*
X112339523Y-112850952D01*
X112291904Y-112898571D01*
X112196666Y-112946190D01*
X111815714Y-112946190D01*
X113339523Y-113422380D02*
X112768095Y-113422380D01*
X113053809Y-113422380D02*
X113053809Y-112422380D01*
X112958571Y-112565238D01*
X112863333Y-112660476D01*
X112768095Y-112708095D01*
X113720476Y-112517619D02*
X113768095Y-112470000D01*
X113863333Y-112422380D01*
X114101428Y-112422380D01*
X114196666Y-112470000D01*
X114244285Y-112517619D01*
X114291904Y-112612857D01*
X114291904Y-112708095D01*
X114244285Y-112850952D01*
X113672857Y-113422380D01*
X114291904Y-113422380D01*
%TO.C,C7*%
X121113333Y-102077142D02*
X121065714Y-102124761D01*
X120922857Y-102172380D01*
X120827619Y-102172380D01*
X120684761Y-102124761D01*
X120589523Y-102029523D01*
X120541904Y-101934285D01*
X120494285Y-101743809D01*
X120494285Y-101600952D01*
X120541904Y-101410476D01*
X120589523Y-101315238D01*
X120684761Y-101220000D01*
X120827619Y-101172380D01*
X120922857Y-101172380D01*
X121065714Y-101220000D01*
X121113333Y-101267619D01*
X121446666Y-101172380D02*
X122113333Y-101172380D01*
X121684761Y-102172380D01*
%TO.C,J1*%
X97496666Y-96092380D02*
X97496666Y-96806666D01*
X97449047Y-96949523D01*
X97353809Y-97044761D01*
X97210952Y-97092380D01*
X97115714Y-97092380D01*
X98496666Y-97092380D02*
X97925238Y-97092380D01*
X98210952Y-97092380D02*
X98210952Y-96092380D01*
X98115714Y-96235238D01*
X98020476Y-96330476D01*
X97925238Y-96378095D01*
%TO.C,C13*%
X106462383Y-111207142D02*
X106414764Y-111254761D01*
X106271907Y-111302380D01*
X106176669Y-111302380D01*
X106033812Y-111254761D01*
X105938574Y-111159523D01*
X105890955Y-111064285D01*
X105843336Y-110873809D01*
X105843336Y-110730952D01*
X105890955Y-110540476D01*
X105938574Y-110445238D01*
X106033812Y-110350000D01*
X106176669Y-110302380D01*
X106271907Y-110302380D01*
X106414764Y-110350000D01*
X106462383Y-110397619D01*
X107414764Y-111302380D02*
X106843336Y-111302380D01*
X107129050Y-111302380D02*
X107129050Y-110302380D01*
X107033812Y-110445238D01*
X106938574Y-110540476D01*
X106843336Y-110588095D01*
X107748098Y-110302380D02*
X108367145Y-110302380D01*
X108033812Y-110683333D01*
X108176669Y-110683333D01*
X108271907Y-110730952D01*
X108319526Y-110778571D01*
X108367145Y-110873809D01*
X108367145Y-111111904D01*
X108319526Y-111207142D01*
X108271907Y-111254761D01*
X108176669Y-111302380D01*
X107890955Y-111302380D01*
X107795717Y-111254761D01*
X107748098Y-111207142D01*
%TO.C,R8*%
X96753333Y-118542380D02*
X96420000Y-118066190D01*
X96181904Y-118542380D02*
X96181904Y-117542380D01*
X96562857Y-117542380D01*
X96658095Y-117590000D01*
X96705714Y-117637619D01*
X96753333Y-117732857D01*
X96753333Y-117875714D01*
X96705714Y-117970952D01*
X96658095Y-118018571D01*
X96562857Y-118066190D01*
X96181904Y-118066190D01*
X97324761Y-117970952D02*
X97229523Y-117923333D01*
X97181904Y-117875714D01*
X97134285Y-117780476D01*
X97134285Y-117732857D01*
X97181904Y-117637619D01*
X97229523Y-117590000D01*
X97324761Y-117542380D01*
X97515238Y-117542380D01*
X97610476Y-117590000D01*
X97658095Y-117637619D01*
X97705714Y-117732857D01*
X97705714Y-117780476D01*
X97658095Y-117875714D01*
X97610476Y-117923333D01*
X97515238Y-117970952D01*
X97324761Y-117970952D01*
X97229523Y-118018571D01*
X97181904Y-118066190D01*
X97134285Y-118161428D01*
X97134285Y-118351904D01*
X97181904Y-118447142D01*
X97229523Y-118494761D01*
X97324761Y-118542380D01*
X97515238Y-118542380D01*
X97610476Y-118494761D01*
X97658095Y-118447142D01*
X97705714Y-118351904D01*
X97705714Y-118161428D01*
X97658095Y-118066190D01*
X97610476Y-118018571D01*
X97515238Y-117970952D01*
%TO.C,R22*%
X111857142Y-105892380D02*
X111523809Y-105416190D01*
X111285714Y-105892380D02*
X111285714Y-104892380D01*
X111666666Y-104892380D01*
X111761904Y-104940000D01*
X111809523Y-104987619D01*
X111857142Y-105082857D01*
X111857142Y-105225714D01*
X111809523Y-105320952D01*
X111761904Y-105368571D01*
X111666666Y-105416190D01*
X111285714Y-105416190D01*
X112238095Y-104987619D02*
X112285714Y-104940000D01*
X112380952Y-104892380D01*
X112619047Y-104892380D01*
X112714285Y-104940000D01*
X112761904Y-104987619D01*
X112809523Y-105082857D01*
X112809523Y-105178095D01*
X112761904Y-105320952D01*
X112190476Y-105892380D01*
X112809523Y-105892380D01*
X113190476Y-104987619D02*
X113238095Y-104940000D01*
X113333333Y-104892380D01*
X113571428Y-104892380D01*
X113666666Y-104940000D01*
X113714285Y-104987619D01*
X113761904Y-105082857D01*
X113761904Y-105178095D01*
X113714285Y-105320952D01*
X113142857Y-105892380D01*
X113761904Y-105892380D01*
%TO.C,C4*%
X154583333Y-69847142D02*
X154535714Y-69894761D01*
X154392857Y-69942380D01*
X154297619Y-69942380D01*
X154154761Y-69894761D01*
X154059523Y-69799523D01*
X154011904Y-69704285D01*
X153964285Y-69513809D01*
X153964285Y-69370952D01*
X154011904Y-69180476D01*
X154059523Y-69085238D01*
X154154761Y-68990000D01*
X154297619Y-68942380D01*
X154392857Y-68942380D01*
X154535714Y-68990000D01*
X154583333Y-69037619D01*
X155440476Y-69275714D02*
X155440476Y-69942380D01*
X155202380Y-68894761D02*
X154964285Y-69609047D01*
X155583333Y-69609047D01*
%TO.C,R38*%
X119877142Y-107192380D02*
X119543809Y-106716190D01*
X119305714Y-107192380D02*
X119305714Y-106192380D01*
X119686666Y-106192380D01*
X119781904Y-106240000D01*
X119829523Y-106287619D01*
X119877142Y-106382857D01*
X119877142Y-106525714D01*
X119829523Y-106620952D01*
X119781904Y-106668571D01*
X119686666Y-106716190D01*
X119305714Y-106716190D01*
X120210476Y-106192380D02*
X120829523Y-106192380D01*
X120496190Y-106573333D01*
X120639047Y-106573333D01*
X120734285Y-106620952D01*
X120781904Y-106668571D01*
X120829523Y-106763809D01*
X120829523Y-107001904D01*
X120781904Y-107097142D01*
X120734285Y-107144761D01*
X120639047Y-107192380D01*
X120353333Y-107192380D01*
X120258095Y-107144761D01*
X120210476Y-107097142D01*
X121400952Y-106620952D02*
X121305714Y-106573333D01*
X121258095Y-106525714D01*
X121210476Y-106430476D01*
X121210476Y-106382857D01*
X121258095Y-106287619D01*
X121305714Y-106240000D01*
X121400952Y-106192380D01*
X121591428Y-106192380D01*
X121686666Y-106240000D01*
X121734285Y-106287619D01*
X121781904Y-106382857D01*
X121781904Y-106430476D01*
X121734285Y-106525714D01*
X121686666Y-106573333D01*
X121591428Y-106620952D01*
X121400952Y-106620952D01*
X121305714Y-106668571D01*
X121258095Y-106716190D01*
X121210476Y-106811428D01*
X121210476Y-107001904D01*
X121258095Y-107097142D01*
X121305714Y-107144761D01*
X121400952Y-107192380D01*
X121591428Y-107192380D01*
X121686666Y-107144761D01*
X121734285Y-107097142D01*
X121781904Y-107001904D01*
X121781904Y-106811428D01*
X121734285Y-106716190D01*
X121686666Y-106668571D01*
X121591428Y-106620952D01*
%TO.C,R37*%
X144537142Y-82182380D02*
X144203809Y-81706190D01*
X143965714Y-82182380D02*
X143965714Y-81182380D01*
X144346666Y-81182380D01*
X144441904Y-81230000D01*
X144489523Y-81277619D01*
X144537142Y-81372857D01*
X144537142Y-81515714D01*
X144489523Y-81610952D01*
X144441904Y-81658571D01*
X144346666Y-81706190D01*
X143965714Y-81706190D01*
X144870476Y-81182380D02*
X145489523Y-81182380D01*
X145156190Y-81563333D01*
X145299047Y-81563333D01*
X145394285Y-81610952D01*
X145441904Y-81658571D01*
X145489523Y-81753809D01*
X145489523Y-81991904D01*
X145441904Y-82087142D01*
X145394285Y-82134761D01*
X145299047Y-82182380D01*
X145013333Y-82182380D01*
X144918095Y-82134761D01*
X144870476Y-82087142D01*
X145822857Y-81182380D02*
X146489523Y-81182380D01*
X146060952Y-82182380D01*
%TO.C,R4*%
X92743333Y-118542380D02*
X92410000Y-118066190D01*
X92171904Y-118542380D02*
X92171904Y-117542380D01*
X92552857Y-117542380D01*
X92648095Y-117590000D01*
X92695714Y-117637619D01*
X92743333Y-117732857D01*
X92743333Y-117875714D01*
X92695714Y-117970952D01*
X92648095Y-118018571D01*
X92552857Y-118066190D01*
X92171904Y-118066190D01*
X93600476Y-117875714D02*
X93600476Y-118542380D01*
X93362380Y-117494761D02*
X93124285Y-118209047D01*
X93743333Y-118209047D01*
%TO.C,RV5*%
X80384761Y-112402380D02*
X80051428Y-111926190D01*
X79813333Y-112402380D02*
X79813333Y-111402380D01*
X80194285Y-111402380D01*
X80289523Y-111450000D01*
X80337142Y-111497619D01*
X80384761Y-111592857D01*
X80384761Y-111735714D01*
X80337142Y-111830952D01*
X80289523Y-111878571D01*
X80194285Y-111926190D01*
X79813333Y-111926190D01*
X80670476Y-111402380D02*
X81003809Y-112402380D01*
X81337142Y-111402380D01*
X82146666Y-111402380D02*
X81670476Y-111402380D01*
X81622857Y-111878571D01*
X81670476Y-111830952D01*
X81765714Y-111783333D01*
X82003809Y-111783333D01*
X82099047Y-111830952D01*
X82146666Y-111878571D01*
X82194285Y-111973809D01*
X82194285Y-112211904D01*
X82146666Y-112307142D01*
X82099047Y-112354761D01*
X82003809Y-112402380D01*
X81765714Y-112402380D01*
X81670476Y-112354761D01*
X81622857Y-112307142D01*
%TO.C,D1*%
X77531904Y-118962380D02*
X77531904Y-117962380D01*
X77770000Y-117962380D01*
X77912857Y-118010000D01*
X78008095Y-118105238D01*
X78055714Y-118200476D01*
X78103333Y-118390952D01*
X78103333Y-118533809D01*
X78055714Y-118724285D01*
X78008095Y-118819523D01*
X77912857Y-118914761D01*
X77770000Y-118962380D01*
X77531904Y-118962380D01*
X79055714Y-118962380D02*
X78484285Y-118962380D01*
X78770000Y-118962380D02*
X78770000Y-117962380D01*
X78674761Y-118105238D01*
X78579523Y-118200476D01*
X78484285Y-118248095D01*
%TO.C,R35*%
X126907142Y-91102380D02*
X126573809Y-90626190D01*
X126335714Y-91102380D02*
X126335714Y-90102380D01*
X126716666Y-90102380D01*
X126811904Y-90150000D01*
X126859523Y-90197619D01*
X126907142Y-90292857D01*
X126907142Y-90435714D01*
X126859523Y-90530952D01*
X126811904Y-90578571D01*
X126716666Y-90626190D01*
X126335714Y-90626190D01*
X127240476Y-90102380D02*
X127859523Y-90102380D01*
X127526190Y-90483333D01*
X127669047Y-90483333D01*
X127764285Y-90530952D01*
X127811904Y-90578571D01*
X127859523Y-90673809D01*
X127859523Y-90911904D01*
X127811904Y-91007142D01*
X127764285Y-91054761D01*
X127669047Y-91102380D01*
X127383333Y-91102380D01*
X127288095Y-91054761D01*
X127240476Y-91007142D01*
X128764285Y-90102380D02*
X128288095Y-90102380D01*
X128240476Y-90578571D01*
X128288095Y-90530952D01*
X128383333Y-90483333D01*
X128621428Y-90483333D01*
X128716666Y-90530952D01*
X128764285Y-90578571D01*
X128811904Y-90673809D01*
X128811904Y-90911904D01*
X128764285Y-91007142D01*
X128716666Y-91054761D01*
X128621428Y-91102380D01*
X128383333Y-91102380D01*
X128288095Y-91054761D01*
X128240476Y-91007142D01*
%TO.C,R29*%
X120407142Y-109702380D02*
X120073809Y-109226190D01*
X119835714Y-109702380D02*
X119835714Y-108702380D01*
X120216666Y-108702380D01*
X120311904Y-108750000D01*
X120359523Y-108797619D01*
X120407142Y-108892857D01*
X120407142Y-109035714D01*
X120359523Y-109130952D01*
X120311904Y-109178571D01*
X120216666Y-109226190D01*
X119835714Y-109226190D01*
X120788095Y-108797619D02*
X120835714Y-108750000D01*
X120930952Y-108702380D01*
X121169047Y-108702380D01*
X121264285Y-108750000D01*
X121311904Y-108797619D01*
X121359523Y-108892857D01*
X121359523Y-108988095D01*
X121311904Y-109130952D01*
X120740476Y-109702380D01*
X121359523Y-109702380D01*
X121835714Y-109702380D02*
X122026190Y-109702380D01*
X122121428Y-109654761D01*
X122169047Y-109607142D01*
X122264285Y-109464285D01*
X122311904Y-109273809D01*
X122311904Y-108892857D01*
X122264285Y-108797619D01*
X122216666Y-108750000D01*
X122121428Y-108702380D01*
X121930952Y-108702380D01*
X121835714Y-108750000D01*
X121788095Y-108797619D01*
X121740476Y-108892857D01*
X121740476Y-109130952D01*
X121788095Y-109226190D01*
X121835714Y-109273809D01*
X121930952Y-109321428D01*
X122121428Y-109321428D01*
X122216666Y-109273809D01*
X122264285Y-109226190D01*
X122311904Y-109130952D01*
%TO.C,U5*%
X149208095Y-68642380D02*
X149208095Y-69451904D01*
X149255714Y-69547142D01*
X149303333Y-69594761D01*
X149398571Y-69642380D01*
X149589047Y-69642380D01*
X149684285Y-69594761D01*
X149731904Y-69547142D01*
X149779523Y-69451904D01*
X149779523Y-68642380D01*
X150731904Y-68642380D02*
X150255714Y-68642380D01*
X150208095Y-69118571D01*
X150255714Y-69070952D01*
X150350952Y-69023333D01*
X150589047Y-69023333D01*
X150684285Y-69070952D01*
X150731904Y-69118571D01*
X150779523Y-69213809D01*
X150779523Y-69451904D01*
X150731904Y-69547142D01*
X150684285Y-69594761D01*
X150589047Y-69642380D01*
X150350952Y-69642380D01*
X150255714Y-69594761D01*
X150208095Y-69547142D01*
%TO.C,R31*%
X136517142Y-85352380D02*
X136183809Y-84876190D01*
X135945714Y-85352380D02*
X135945714Y-84352380D01*
X136326666Y-84352380D01*
X136421904Y-84400000D01*
X136469523Y-84447619D01*
X136517142Y-84542857D01*
X136517142Y-84685714D01*
X136469523Y-84780952D01*
X136421904Y-84828571D01*
X136326666Y-84876190D01*
X135945714Y-84876190D01*
X136850476Y-84352380D02*
X137469523Y-84352380D01*
X137136190Y-84733333D01*
X137279047Y-84733333D01*
X137374285Y-84780952D01*
X137421904Y-84828571D01*
X137469523Y-84923809D01*
X137469523Y-85161904D01*
X137421904Y-85257142D01*
X137374285Y-85304761D01*
X137279047Y-85352380D01*
X136993333Y-85352380D01*
X136898095Y-85304761D01*
X136850476Y-85257142D01*
X138421904Y-85352380D02*
X137850476Y-85352380D01*
X138136190Y-85352380D02*
X138136190Y-84352380D01*
X138040952Y-84495238D01*
X137945714Y-84590476D01*
X137850476Y-84638095D01*
%TO.C,Q2*%
X124554761Y-61647619D02*
X124459523Y-61600000D01*
X124364285Y-61504761D01*
X124221428Y-61361904D01*
X124126190Y-61314285D01*
X124030952Y-61314285D01*
X124078571Y-61552380D02*
X123983333Y-61504761D01*
X123888095Y-61409523D01*
X123840476Y-61219047D01*
X123840476Y-60885714D01*
X123888095Y-60695238D01*
X123983333Y-60600000D01*
X124078571Y-60552380D01*
X124269047Y-60552380D01*
X124364285Y-60600000D01*
X124459523Y-60695238D01*
X124507142Y-60885714D01*
X124507142Y-61219047D01*
X124459523Y-61409523D01*
X124364285Y-61504761D01*
X124269047Y-61552380D01*
X124078571Y-61552380D01*
X124888095Y-60647619D02*
X124935714Y-60600000D01*
X125030952Y-60552380D01*
X125269047Y-60552380D01*
X125364285Y-60600000D01*
X125411904Y-60647619D01*
X125459523Y-60742857D01*
X125459523Y-60838095D01*
X125411904Y-60980952D01*
X124840476Y-61552380D01*
X125459523Y-61552380D01*
%TO.C,J5*%
X85006666Y-82982380D02*
X85006666Y-83696666D01*
X84959047Y-83839523D01*
X84863809Y-83934761D01*
X84720952Y-83982380D01*
X84625714Y-83982380D01*
X85959047Y-82982380D02*
X85482857Y-82982380D01*
X85435238Y-83458571D01*
X85482857Y-83410952D01*
X85578095Y-83363333D01*
X85816190Y-83363333D01*
X85911428Y-83410952D01*
X85959047Y-83458571D01*
X86006666Y-83553809D01*
X86006666Y-83791904D01*
X85959047Y-83887142D01*
X85911428Y-83934761D01*
X85816190Y-83982380D01*
X85578095Y-83982380D01*
X85482857Y-83934761D01*
X85435238Y-83887142D01*
%TO.C,D2*%
X83281904Y-118962380D02*
X83281904Y-117962380D01*
X83520000Y-117962380D01*
X83662857Y-118010000D01*
X83758095Y-118105238D01*
X83805714Y-118200476D01*
X83853333Y-118390952D01*
X83853333Y-118533809D01*
X83805714Y-118724285D01*
X83758095Y-118819523D01*
X83662857Y-118914761D01*
X83520000Y-118962380D01*
X83281904Y-118962380D01*
X84234285Y-118057619D02*
X84281904Y-118010000D01*
X84377142Y-117962380D01*
X84615238Y-117962380D01*
X84710476Y-118010000D01*
X84758095Y-118057619D01*
X84805714Y-118152857D01*
X84805714Y-118248095D01*
X84758095Y-118390952D01*
X84186666Y-118962380D01*
X84805714Y-118962380D01*
%TO.C,C2*%
X108783333Y-119357142D02*
X108735714Y-119404761D01*
X108592857Y-119452380D01*
X108497619Y-119452380D01*
X108354761Y-119404761D01*
X108259523Y-119309523D01*
X108211904Y-119214285D01*
X108164285Y-119023809D01*
X108164285Y-118880952D01*
X108211904Y-118690476D01*
X108259523Y-118595238D01*
X108354761Y-118500000D01*
X108497619Y-118452380D01*
X108592857Y-118452380D01*
X108735714Y-118500000D01*
X108783333Y-118547619D01*
X109164285Y-118547619D02*
X109211904Y-118500000D01*
X109307142Y-118452380D01*
X109545238Y-118452380D01*
X109640476Y-118500000D01*
X109688095Y-118547619D01*
X109735714Y-118642857D01*
X109735714Y-118738095D01*
X109688095Y-118880952D01*
X109116666Y-119452380D01*
X109735714Y-119452380D01*
%TO.C,C10*%
X132787142Y-93557142D02*
X132739523Y-93604761D01*
X132596666Y-93652380D01*
X132501428Y-93652380D01*
X132358571Y-93604761D01*
X132263333Y-93509523D01*
X132215714Y-93414285D01*
X132168095Y-93223809D01*
X132168095Y-93080952D01*
X132215714Y-92890476D01*
X132263333Y-92795238D01*
X132358571Y-92700000D01*
X132501428Y-92652380D01*
X132596666Y-92652380D01*
X132739523Y-92700000D01*
X132787142Y-92747619D01*
X133739523Y-93652380D02*
X133168095Y-93652380D01*
X133453809Y-93652380D02*
X133453809Y-92652380D01*
X133358571Y-92795238D01*
X133263333Y-92890476D01*
X133168095Y-92938095D01*
X134358571Y-92652380D02*
X134453809Y-92652380D01*
X134549047Y-92700000D01*
X134596666Y-92747619D01*
X134644285Y-92842857D01*
X134691904Y-93033333D01*
X134691904Y-93271428D01*
X134644285Y-93461904D01*
X134596666Y-93557142D01*
X134549047Y-93604761D01*
X134453809Y-93652380D01*
X134358571Y-93652380D01*
X134263333Y-93604761D01*
X134215714Y-93557142D01*
X134168095Y-93461904D01*
X134120476Y-93271428D01*
X134120476Y-93033333D01*
X134168095Y-92842857D01*
X134215714Y-92747619D01*
X134263333Y-92700000D01*
X134358571Y-92652380D01*
%TO.C,R5*%
X131393333Y-91142380D02*
X131060000Y-90666190D01*
X130821904Y-91142380D02*
X130821904Y-90142380D01*
X131202857Y-90142380D01*
X131298095Y-90190000D01*
X131345714Y-90237619D01*
X131393333Y-90332857D01*
X131393333Y-90475714D01*
X131345714Y-90570952D01*
X131298095Y-90618571D01*
X131202857Y-90666190D01*
X130821904Y-90666190D01*
X132298095Y-90142380D02*
X131821904Y-90142380D01*
X131774285Y-90618571D01*
X131821904Y-90570952D01*
X131917142Y-90523333D01*
X132155238Y-90523333D01*
X132250476Y-90570952D01*
X132298095Y-90618571D01*
X132345714Y-90713809D01*
X132345714Y-90951904D01*
X132298095Y-91047142D01*
X132250476Y-91094761D01*
X132155238Y-91142380D01*
X131917142Y-91142380D01*
X131821904Y-91094761D01*
X131774285Y-91047142D01*
%TO.C,C1*%
X136993333Y-82747142D02*
X136945714Y-82794761D01*
X136802857Y-82842380D01*
X136707619Y-82842380D01*
X136564761Y-82794761D01*
X136469523Y-82699523D01*
X136421904Y-82604285D01*
X136374285Y-82413809D01*
X136374285Y-82270952D01*
X136421904Y-82080476D01*
X136469523Y-81985238D01*
X136564761Y-81890000D01*
X136707619Y-81842380D01*
X136802857Y-81842380D01*
X136945714Y-81890000D01*
X136993333Y-81937619D01*
X137945714Y-82842380D02*
X137374285Y-82842380D01*
X137660000Y-82842380D02*
X137660000Y-81842380D01*
X137564761Y-81985238D01*
X137469523Y-82080476D01*
X137374285Y-82128095D01*
%TO.C,U4*%
X122008095Y-89802380D02*
X122008095Y-90611904D01*
X122055714Y-90707142D01*
X122103333Y-90754761D01*
X122198571Y-90802380D01*
X122389047Y-90802380D01*
X122484285Y-90754761D01*
X122531904Y-90707142D01*
X122579523Y-90611904D01*
X122579523Y-89802380D01*
X123484285Y-90135714D02*
X123484285Y-90802380D01*
X123246190Y-89754761D02*
X123008095Y-90469047D01*
X123627142Y-90469047D01*
%TO.C,R1*%
X125123333Y-102172380D02*
X124790000Y-101696190D01*
X124551904Y-102172380D02*
X124551904Y-101172380D01*
X124932857Y-101172380D01*
X125028095Y-101220000D01*
X125075714Y-101267619D01*
X125123333Y-101362857D01*
X125123333Y-101505714D01*
X125075714Y-101600952D01*
X125028095Y-101648571D01*
X124932857Y-101696190D01*
X124551904Y-101696190D01*
X126075714Y-102172380D02*
X125504285Y-102172380D01*
X125790000Y-102172380D02*
X125790000Y-101172380D01*
X125694761Y-101315238D01*
X125599523Y-101410476D01*
X125504285Y-101458095D01*
%TO.C,R44*%
X120637142Y-104682380D02*
X120303809Y-104206190D01*
X120065714Y-104682380D02*
X120065714Y-103682380D01*
X120446666Y-103682380D01*
X120541904Y-103730000D01*
X120589523Y-103777619D01*
X120637142Y-103872857D01*
X120637142Y-104015714D01*
X120589523Y-104110952D01*
X120541904Y-104158571D01*
X120446666Y-104206190D01*
X120065714Y-104206190D01*
X121494285Y-104015714D02*
X121494285Y-104682380D01*
X121256190Y-103634761D02*
X121018095Y-104349047D01*
X121637142Y-104349047D01*
X122446666Y-104015714D02*
X122446666Y-104682380D01*
X122208571Y-103634761D02*
X121970476Y-104349047D01*
X122589523Y-104349047D01*
%TO.C,R24*%
X100287142Y-119452380D02*
X99953809Y-118976190D01*
X99715714Y-119452380D02*
X99715714Y-118452380D01*
X100096666Y-118452380D01*
X100191904Y-118500000D01*
X100239523Y-118547619D01*
X100287142Y-118642857D01*
X100287142Y-118785714D01*
X100239523Y-118880952D01*
X100191904Y-118928571D01*
X100096666Y-118976190D01*
X99715714Y-118976190D01*
X100668095Y-118547619D02*
X100715714Y-118500000D01*
X100810952Y-118452380D01*
X101049047Y-118452380D01*
X101144285Y-118500000D01*
X101191904Y-118547619D01*
X101239523Y-118642857D01*
X101239523Y-118738095D01*
X101191904Y-118880952D01*
X100620476Y-119452380D01*
X101239523Y-119452380D01*
X102096666Y-118785714D02*
X102096666Y-119452380D01*
X101858571Y-118404761D02*
X101620476Y-119119047D01*
X102239523Y-119119047D01*
%TO.C,R20*%
X144537142Y-84692380D02*
X144203809Y-84216190D01*
X143965714Y-84692380D02*
X143965714Y-83692380D01*
X144346666Y-83692380D01*
X144441904Y-83740000D01*
X144489523Y-83787619D01*
X144537142Y-83882857D01*
X144537142Y-84025714D01*
X144489523Y-84120952D01*
X144441904Y-84168571D01*
X144346666Y-84216190D01*
X143965714Y-84216190D01*
X144918095Y-83787619D02*
X144965714Y-83740000D01*
X145060952Y-83692380D01*
X145299047Y-83692380D01*
X145394285Y-83740000D01*
X145441904Y-83787619D01*
X145489523Y-83882857D01*
X145489523Y-83978095D01*
X145441904Y-84120952D01*
X144870476Y-84692380D01*
X145489523Y-84692380D01*
X146108571Y-83692380D02*
X146203809Y-83692380D01*
X146299047Y-83740000D01*
X146346666Y-83787619D01*
X146394285Y-83882857D01*
X146441904Y-84073333D01*
X146441904Y-84311428D01*
X146394285Y-84501904D01*
X146346666Y-84597142D01*
X146299047Y-84644761D01*
X146203809Y-84692380D01*
X146108571Y-84692380D01*
X146013333Y-84644761D01*
X145965714Y-84597142D01*
X145918095Y-84501904D01*
X145870476Y-84311428D01*
X145870476Y-84073333D01*
X145918095Y-83882857D01*
X145965714Y-83787619D01*
X146013333Y-83740000D01*
X146108571Y-83692380D01*
%TO.C,R42*%
X150027142Y-75992380D02*
X149693809Y-75516190D01*
X149455714Y-75992380D02*
X149455714Y-74992380D01*
X149836666Y-74992380D01*
X149931904Y-75040000D01*
X149979523Y-75087619D01*
X150027142Y-75182857D01*
X150027142Y-75325714D01*
X149979523Y-75420952D01*
X149931904Y-75468571D01*
X149836666Y-75516190D01*
X149455714Y-75516190D01*
X150884285Y-75325714D02*
X150884285Y-75992380D01*
X150646190Y-74944761D02*
X150408095Y-75659047D01*
X151027142Y-75659047D01*
X151360476Y-75087619D02*
X151408095Y-75040000D01*
X151503333Y-74992380D01*
X151741428Y-74992380D01*
X151836666Y-75040000D01*
X151884285Y-75087619D01*
X151931904Y-75182857D01*
X151931904Y-75278095D01*
X151884285Y-75420952D01*
X151312857Y-75992380D01*
X151931904Y-75992380D01*
%TO.C,J3*%
X125396666Y-82042380D02*
X125396666Y-82756666D01*
X125349047Y-82899523D01*
X125253809Y-82994761D01*
X125110952Y-83042380D01*
X125015714Y-83042380D01*
X125777619Y-82042380D02*
X126396666Y-82042380D01*
X126063333Y-82423333D01*
X126206190Y-82423333D01*
X126301428Y-82470952D01*
X126349047Y-82518571D01*
X126396666Y-82613809D01*
X126396666Y-82851904D01*
X126349047Y-82947142D01*
X126301428Y-82994761D01*
X126206190Y-83042380D01*
X125920476Y-83042380D01*
X125825238Y-82994761D01*
X125777619Y-82947142D01*
%TO.C,R36*%
X112387142Y-115932380D02*
X112053809Y-115456190D01*
X111815714Y-115932380D02*
X111815714Y-114932380D01*
X112196666Y-114932380D01*
X112291904Y-114980000D01*
X112339523Y-115027619D01*
X112387142Y-115122857D01*
X112387142Y-115265714D01*
X112339523Y-115360952D01*
X112291904Y-115408571D01*
X112196666Y-115456190D01*
X111815714Y-115456190D01*
X112720476Y-114932380D02*
X113339523Y-114932380D01*
X113006190Y-115313333D01*
X113149047Y-115313333D01*
X113244285Y-115360952D01*
X113291904Y-115408571D01*
X113339523Y-115503809D01*
X113339523Y-115741904D01*
X113291904Y-115837142D01*
X113244285Y-115884761D01*
X113149047Y-115932380D01*
X112863333Y-115932380D01*
X112768095Y-115884761D01*
X112720476Y-115837142D01*
X114196666Y-114932380D02*
X114006190Y-114932380D01*
X113910952Y-114980000D01*
X113863333Y-115027619D01*
X113768095Y-115170476D01*
X113720476Y-115360952D01*
X113720476Y-115741904D01*
X113768095Y-115837142D01*
X113815714Y-115884761D01*
X113910952Y-115932380D01*
X114101428Y-115932380D01*
X114196666Y-115884761D01*
X114244285Y-115837142D01*
X114291904Y-115741904D01*
X114291904Y-115503809D01*
X114244285Y-115408571D01*
X114196666Y-115360952D01*
X114101428Y-115313333D01*
X113910952Y-115313333D01*
X113815714Y-115360952D01*
X113768095Y-115408571D01*
X113720476Y-115503809D01*
%TO.C,C14*%
X112387142Y-110817142D02*
X112339523Y-110864761D01*
X112196666Y-110912380D01*
X112101428Y-110912380D01*
X111958571Y-110864761D01*
X111863333Y-110769523D01*
X111815714Y-110674285D01*
X111768095Y-110483809D01*
X111768095Y-110340952D01*
X111815714Y-110150476D01*
X111863333Y-110055238D01*
X111958571Y-109960000D01*
X112101428Y-109912380D01*
X112196666Y-109912380D01*
X112339523Y-109960000D01*
X112387142Y-110007619D01*
X113339523Y-110912380D02*
X112768095Y-110912380D01*
X113053809Y-110912380D02*
X113053809Y-109912380D01*
X112958571Y-110055238D01*
X112863333Y-110150476D01*
X112768095Y-110198095D01*
X114196666Y-110245714D02*
X114196666Y-110912380D01*
X113958571Y-109864761D02*
X113720476Y-110579047D01*
X114339523Y-110579047D01*
%TO.C,R13*%
X158117142Y-69942380D02*
X157783809Y-69466190D01*
X157545714Y-69942380D02*
X157545714Y-68942380D01*
X157926666Y-68942380D01*
X158021904Y-68990000D01*
X158069523Y-69037619D01*
X158117142Y-69132857D01*
X158117142Y-69275714D01*
X158069523Y-69370952D01*
X158021904Y-69418571D01*
X157926666Y-69466190D01*
X157545714Y-69466190D01*
X159069523Y-69942380D02*
X158498095Y-69942380D01*
X158783809Y-69942380D02*
X158783809Y-68942380D01*
X158688571Y-69085238D01*
X158593333Y-69180476D01*
X158498095Y-69228095D01*
X159402857Y-68942380D02*
X160021904Y-68942380D01*
X159688571Y-69323333D01*
X159831428Y-69323333D01*
X159926666Y-69370952D01*
X159974285Y-69418571D01*
X160021904Y-69513809D01*
X160021904Y-69751904D01*
X159974285Y-69847142D01*
X159926666Y-69894761D01*
X159831428Y-69942380D01*
X159545714Y-69942380D01*
X159450476Y-69894761D01*
X159402857Y-69847142D01*
%TO.C,R3*%
X112333333Y-108402380D02*
X112000000Y-107926190D01*
X111761904Y-108402380D02*
X111761904Y-107402380D01*
X112142857Y-107402380D01*
X112238095Y-107450000D01*
X112285714Y-107497619D01*
X112333333Y-107592857D01*
X112333333Y-107735714D01*
X112285714Y-107830952D01*
X112238095Y-107878571D01*
X112142857Y-107926190D01*
X111761904Y-107926190D01*
X112666666Y-107402380D02*
X113285714Y-107402380D01*
X112952380Y-107783333D01*
X113095238Y-107783333D01*
X113190476Y-107830952D01*
X113238095Y-107878571D01*
X113285714Y-107973809D01*
X113285714Y-108211904D01*
X113238095Y-108307142D01*
X113190476Y-108354761D01*
X113095238Y-108402380D01*
X112809523Y-108402380D01*
X112714285Y-108354761D01*
X112666666Y-108307142D01*
%TO.C,J9*%
X105096666Y-82042380D02*
X105096666Y-82756666D01*
X105049047Y-82899523D01*
X104953809Y-82994761D01*
X104810952Y-83042380D01*
X104715714Y-83042380D01*
X105620476Y-83042380D02*
X105810952Y-83042380D01*
X105906190Y-82994761D01*
X105953809Y-82947142D01*
X106049047Y-82804285D01*
X106096666Y-82613809D01*
X106096666Y-82232857D01*
X106049047Y-82137619D01*
X106001428Y-82090000D01*
X105906190Y-82042380D01*
X105715714Y-82042380D01*
X105620476Y-82090000D01*
X105572857Y-82137619D01*
X105525238Y-82232857D01*
X105525238Y-82470952D01*
X105572857Y-82566190D01*
X105620476Y-82613809D01*
X105715714Y-82661428D01*
X105906190Y-82661428D01*
X106001428Y-82613809D01*
X106049047Y-82566190D01*
X106096666Y-82470952D01*
%TO.C,R10*%
X150027142Y-78502380D02*
X149693809Y-78026190D01*
X149455714Y-78502380D02*
X149455714Y-77502380D01*
X149836666Y-77502380D01*
X149931904Y-77550000D01*
X149979523Y-77597619D01*
X150027142Y-77692857D01*
X150027142Y-77835714D01*
X149979523Y-77930952D01*
X149931904Y-77978571D01*
X149836666Y-78026190D01*
X149455714Y-78026190D01*
X150979523Y-78502380D02*
X150408095Y-78502380D01*
X150693809Y-78502380D02*
X150693809Y-77502380D01*
X150598571Y-77645238D01*
X150503333Y-77740476D01*
X150408095Y-77788095D01*
X151598571Y-77502380D02*
X151693809Y-77502380D01*
X151789047Y-77550000D01*
X151836666Y-77597619D01*
X151884285Y-77692857D01*
X151931904Y-77883333D01*
X151931904Y-78121428D01*
X151884285Y-78311904D01*
X151836666Y-78407142D01*
X151789047Y-78454761D01*
X151693809Y-78502380D01*
X151598571Y-78502380D01*
X151503333Y-78454761D01*
X151455714Y-78407142D01*
X151408095Y-78311904D01*
X151360476Y-78121428D01*
X151360476Y-77883333D01*
X151408095Y-77692857D01*
X151455714Y-77597619D01*
X151503333Y-77550000D01*
X151598571Y-77502380D01*
%TO.C,R34*%
X87907142Y-112662380D02*
X87573809Y-112186190D01*
X87335714Y-112662380D02*
X87335714Y-111662380D01*
X87716666Y-111662380D01*
X87811904Y-111710000D01*
X87859523Y-111757619D01*
X87907142Y-111852857D01*
X87907142Y-111995714D01*
X87859523Y-112090952D01*
X87811904Y-112138571D01*
X87716666Y-112186190D01*
X87335714Y-112186190D01*
X88240476Y-111662380D02*
X88859523Y-111662380D01*
X88526190Y-112043333D01*
X88669047Y-112043333D01*
X88764285Y-112090952D01*
X88811904Y-112138571D01*
X88859523Y-112233809D01*
X88859523Y-112471904D01*
X88811904Y-112567142D01*
X88764285Y-112614761D01*
X88669047Y-112662380D01*
X88383333Y-112662380D01*
X88288095Y-112614761D01*
X88240476Y-112567142D01*
X89716666Y-111995714D02*
X89716666Y-112662380D01*
X89478571Y-111614761D02*
X89240476Y-112329047D01*
X89859523Y-112329047D01*
%TO.C,RV2*%
X74734761Y-69912380D02*
X74401428Y-69436190D01*
X74163333Y-69912380D02*
X74163333Y-68912380D01*
X74544285Y-68912380D01*
X74639523Y-68960000D01*
X74687142Y-69007619D01*
X74734761Y-69102857D01*
X74734761Y-69245714D01*
X74687142Y-69340952D01*
X74639523Y-69388571D01*
X74544285Y-69436190D01*
X74163333Y-69436190D01*
X75020476Y-68912380D02*
X75353809Y-69912380D01*
X75687142Y-68912380D01*
X75972857Y-69007619D02*
X76020476Y-68960000D01*
X76115714Y-68912380D01*
X76353809Y-68912380D01*
X76449047Y-68960000D01*
X76496666Y-69007619D01*
X76544285Y-69102857D01*
X76544285Y-69198095D01*
X76496666Y-69340952D01*
X75925238Y-69912380D01*
X76544285Y-69912380D01*
D11*
%TO.C,U1*%
X106270000Y-105540000D02*
X108220000Y-105540000D01*
X106270000Y-110660000D02*
X104320000Y-110660000D01*
X106270000Y-110660000D02*
X108220000Y-110660000D01*
X106270000Y-105540000D02*
X102820000Y-105540000D01*
%TO.C,R33*%
X104702742Y-120952500D02*
X105177258Y-120952500D01*
X104702742Y-119907500D02*
X105177258Y-119907500D01*
%TO.C,R19*%
X116802742Y-113877500D02*
X117277258Y-113877500D01*
X116802742Y-114922500D02*
X117277258Y-114922500D01*
%TO.C,RV6*%
X102365000Y-112510000D02*
X102365000Y-117580000D01*
X92595000Y-112510000D02*
X92595000Y-117580000D01*
X92595000Y-112510000D02*
X102365000Y-112510000D01*
X92595000Y-117580000D02*
X102365000Y-117580000D01*
%TO.C,RV1*%
X69500000Y-109210000D02*
X69500000Y-107720000D01*
X69500000Y-109210000D02*
X74220000Y-109210000D01*
X69500000Y-103550000D02*
X69500000Y-103020000D01*
X69500000Y-106000000D02*
X69500000Y-105170000D01*
X69500000Y-99460000D02*
X74220000Y-99460000D01*
X78030000Y-99470000D02*
X81090000Y-99470000D01*
X81090000Y-109210000D02*
X81090000Y-99470000D01*
X78030000Y-109210000D02*
X81090000Y-109210000D01*
X69500000Y-100650000D02*
X69500000Y-99470000D01*
%TO.C,C12*%
X92769420Y-121520000D02*
X93050580Y-121520000D01*
X92769420Y-122540000D02*
X93050580Y-122540000D01*
%TO.C,R27*%
X129182742Y-99087500D02*
X129657258Y-99087500D01*
X129182742Y-100132500D02*
X129657258Y-100132500D01*
%TO.C,R15*%
X125052742Y-101162500D02*
X125527258Y-101162500D01*
X125052742Y-100117500D02*
X125527258Y-100117500D01*
%TO.C,U2*%
X142370000Y-70330000D02*
X138920000Y-70330000D01*
X142370000Y-75450000D02*
X140420000Y-75450000D01*
X142370000Y-70330000D02*
X144320000Y-70330000D01*
X142370000Y-75450000D02*
X144320000Y-75450000D01*
%TO.C,U3*%
X71170000Y-122060000D02*
X69220000Y-122060000D01*
X71170000Y-111940000D02*
X67720000Y-111940000D01*
X71170000Y-111940000D02*
X73120000Y-111940000D01*
X71170000Y-122060000D02*
X73120000Y-122060000D01*
%TO.C,R23*%
X146422742Y-79357500D02*
X146897258Y-79357500D01*
X146422742Y-80402500D02*
X146897258Y-80402500D01*
%TO.C,RV3*%
X69500000Y-86780000D02*
X69500000Y-85600000D01*
X69500000Y-89680000D02*
X69500000Y-89150000D01*
X81090000Y-95340000D02*
X81090000Y-85600000D01*
X69500000Y-92130000D02*
X69500000Y-91300000D01*
X69500000Y-95340000D02*
X74220000Y-95340000D01*
X69500000Y-85590000D02*
X74220000Y-85590000D01*
X78030000Y-85600000D02*
X81090000Y-85600000D01*
X78030000Y-95340000D02*
X81090000Y-95340000D01*
X69500000Y-95340000D02*
X69500000Y-93850000D01*
%TO.C,R16*%
X135332742Y-89087500D02*
X135807258Y-89087500D01*
X135332742Y-90132500D02*
X135807258Y-90132500D01*
%TO.C,R7*%
X139342742Y-90827500D02*
X139817258Y-90827500D01*
X139342742Y-91872500D02*
X139817258Y-91872500D01*
D10*
%TO.C,J6*%
X106075000Y-92195000D02*
X102265000Y-92195000D01*
X102265000Y-88385000D02*
X106075000Y-88385000D01*
X106075000Y-94100000D02*
X108615000Y-94100000D01*
X102265000Y-94735000D02*
X106075000Y-94735000D01*
X99670000Y-84290000D02*
X108670000Y-84290000D01*
X99725000Y-94100000D02*
X102265000Y-94100000D01*
X106075000Y-94735000D02*
X106075000Y-94100000D01*
X99670000Y-84290000D02*
X99670000Y-94790000D01*
X102265000Y-94100000D02*
X102265000Y-94735000D01*
X99670000Y-94790000D02*
X108670000Y-94790000D01*
X108670000Y-84290000D02*
X108670000Y-94790000D01*
X102265000Y-88385000D02*
G75*
G03*
X102265000Y-92195000I1904999J-1905000D01*
G01*
X106075000Y-92195000D02*
G75*
G03*
X106075000Y-88385000I-1905000J1905000D01*
G01*
X105470000Y-90290000D02*
G75*
G03*
X105470000Y-90290000I-1300000J0D01*
G01*
X105966051Y-90290000D02*
G75*
G03*
X105966051Y-90290000I-1796051J0D01*
G01*
D11*
%TO.C,Q1*%
X129540000Y-65060000D02*
X130190000Y-65060000D01*
X129540000Y-65060000D02*
X128890000Y-65060000D01*
X129540000Y-61940000D02*
X127865000Y-61940000D01*
X129540000Y-61940000D02*
X130190000Y-61940000D01*
%TO.C,C6*%
X125269420Y-98640000D02*
X125550580Y-98640000D01*
X125269420Y-97620000D02*
X125550580Y-97620000D01*
%TO.C,C5*%
X131419420Y-90120000D02*
X131700580Y-90120000D01*
X131419420Y-89100000D02*
X131700580Y-89100000D01*
%TO.C,R28*%
X140932742Y-83682500D02*
X141407258Y-83682500D01*
X140932742Y-82637500D02*
X141407258Y-82637500D01*
%TO.C,C11*%
X116276241Y-102730000D02*
X116276241Y-104788000D01*
X115835241Y-102730000D02*
X115835241Y-104885000D01*
X117036241Y-102730000D02*
X117036241Y-104456000D01*
X117636241Y-99385000D02*
X117636241Y-100650000D01*
X118596241Y-101288000D02*
X118596241Y-102092000D01*
X116596241Y-98704000D02*
X116596241Y-100650000D01*
X117676241Y-99425000D02*
X117676241Y-103955000D01*
X115595241Y-98468000D02*
X115595241Y-100650000D01*
X117076241Y-98948000D02*
X117076241Y-100650000D01*
X115435241Y-98460000D02*
X115435241Y-104920000D01*
X117276241Y-102730000D02*
X117276241Y-104297000D01*
X116996241Y-102730000D02*
X116996241Y-104480000D01*
X116116241Y-102730000D02*
X116116241Y-104831000D01*
X117396241Y-102730000D02*
X117396241Y-104206000D01*
X115875241Y-102730000D02*
X115875241Y-104879000D01*
X118236241Y-100181000D02*
X118236241Y-103199000D01*
X116436241Y-98643000D02*
X116436241Y-100650000D01*
X116716241Y-98756000D02*
X116716241Y-100650000D01*
X116636241Y-102730000D02*
X116636241Y-104660000D01*
X117476241Y-99240000D02*
X117476241Y-100650000D01*
X116876241Y-98834000D02*
X116876241Y-100650000D01*
X117116241Y-102730000D02*
X117116241Y-104406000D01*
X115875241Y-98501000D02*
X115875241Y-100650000D01*
X116396241Y-102730000D02*
X116396241Y-104751000D01*
X116676241Y-98738000D02*
X116676241Y-100650000D01*
X115995241Y-98523000D02*
X115995241Y-100650000D01*
X115515241Y-98463000D02*
X115515241Y-104917000D01*
X118316241Y-100340000D02*
X118316241Y-103040000D01*
X116196241Y-98569000D02*
X116196241Y-100650000D01*
X117076241Y-102730000D02*
X117076241Y-104432000D01*
X117516241Y-99274000D02*
X117516241Y-100650000D01*
X116676241Y-102730000D02*
X116676241Y-104642000D01*
X115835241Y-98495000D02*
X115835241Y-100650000D01*
X116916241Y-98856000D02*
X116916241Y-100650000D01*
X116516241Y-98672000D02*
X116516241Y-100650000D01*
X117596241Y-99347000D02*
X117596241Y-100650000D01*
X116236241Y-102730000D02*
X116236241Y-104800000D01*
X116796241Y-98794000D02*
X116796241Y-100650000D01*
X118116241Y-99976000D02*
X118116241Y-103404000D01*
X116076241Y-102730000D02*
X116076241Y-104840000D01*
X116396241Y-98629000D02*
X116396241Y-100650000D01*
X116996241Y-98900000D02*
X116996241Y-100650000D01*
X115675241Y-98475000D02*
X115675241Y-100650000D01*
X117236241Y-102730000D02*
X117236241Y-104326000D01*
X116876241Y-102730000D02*
X116876241Y-104546000D01*
X116035241Y-102730000D02*
X116035241Y-104849000D01*
X117636241Y-102730000D02*
X117636241Y-103995000D01*
X116076241Y-98540000D02*
X116076241Y-100650000D01*
X116356241Y-98616000D02*
X116356241Y-100650000D01*
X117356241Y-99142000D02*
X117356241Y-100650000D01*
X115795241Y-102730000D02*
X115795241Y-104891000D01*
X117036241Y-98924000D02*
X117036241Y-100650000D01*
X116796241Y-102730000D02*
X116796241Y-104586000D01*
X116316241Y-98604000D02*
X116316241Y-100650000D01*
X117356241Y-102730000D02*
X117356241Y-104238000D01*
X116035241Y-98531000D02*
X116035241Y-100650000D01*
X115715241Y-102730000D02*
X115715241Y-104901000D01*
X117236241Y-99054000D02*
X117236241Y-100650000D01*
X116956241Y-102730000D02*
X116956241Y-104502000D01*
X115635241Y-98472000D02*
X115635241Y-100650000D01*
X116156241Y-98559000D02*
X116156241Y-100650000D01*
X116556241Y-102730000D02*
X116556241Y-104692000D01*
X116756241Y-102730000D02*
X116756241Y-104606000D01*
X117956241Y-99746000D02*
X117956241Y-103634000D01*
X117396241Y-99174000D02*
X117396241Y-100650000D01*
X117196241Y-99026000D02*
X117196241Y-100650000D01*
X116756241Y-98774000D02*
X116756241Y-100650000D01*
X117436241Y-102730000D02*
X117436241Y-104174000D01*
X116236241Y-98580000D02*
X116236241Y-100650000D01*
X115355241Y-98460000D02*
X115355241Y-104920000D01*
X118156241Y-100040000D02*
X118156241Y-103340000D01*
X117316241Y-99112000D02*
X117316241Y-100650000D01*
X117796241Y-99553000D02*
X117796241Y-103827000D01*
X117596241Y-102730000D02*
X117596241Y-104033000D01*
X115755241Y-98484000D02*
X115755241Y-100650000D01*
X116436241Y-102730000D02*
X116436241Y-104737000D01*
X117436241Y-99206000D02*
X117436241Y-100650000D01*
X116276241Y-98592000D02*
X116276241Y-100650000D01*
X117556241Y-102730000D02*
X117556241Y-104070000D01*
X115675241Y-102730000D02*
X115675241Y-104905000D01*
X116476241Y-102730000D02*
X116476241Y-104723000D01*
X118476241Y-100750000D02*
X118476241Y-102630000D01*
X115995241Y-102730000D02*
X115995241Y-104857000D01*
X117876241Y-99646000D02*
X117876241Y-103734000D01*
X116596241Y-102730000D02*
X116596241Y-104676000D01*
X116836241Y-102730000D02*
X116836241Y-104566000D01*
X115555241Y-98466000D02*
X115555241Y-104914000D01*
X118436241Y-100631000D02*
X118436241Y-102749000D01*
X118396241Y-100525000D02*
X118396241Y-102855000D01*
X115395241Y-98460000D02*
X115395241Y-104920000D01*
X117196241Y-102730000D02*
X117196241Y-104354000D01*
X115915241Y-102730000D02*
X115915241Y-104872000D01*
X117716241Y-99466000D02*
X117716241Y-103914000D01*
X116556241Y-98688000D02*
X116556241Y-100650000D01*
X116196241Y-102730000D02*
X116196241Y-104811000D01*
X118516241Y-100888000D02*
X118516241Y-102492000D01*
X116956241Y-98878000D02*
X116956241Y-100650000D01*
X116356241Y-102730000D02*
X116356241Y-104764000D01*
X115595241Y-102730000D02*
X115595241Y-104912000D01*
X116516241Y-102730000D02*
X116516241Y-104708000D01*
X115915241Y-98508000D02*
X115915241Y-100650000D01*
X115715241Y-98479000D02*
X115715241Y-100650000D01*
X118276241Y-100258000D02*
X118276241Y-103122000D01*
X117836241Y-99598000D02*
X117836241Y-103782000D01*
X116836241Y-98814000D02*
X116836241Y-100650000D01*
X115635241Y-102730000D02*
X115635241Y-104908000D01*
X117996241Y-99800000D02*
X117996241Y-103580000D01*
X115475241Y-98462000D02*
X115475241Y-104918000D01*
X117156241Y-102730000D02*
X117156241Y-104380000D01*
X118076241Y-99914000D02*
X118076241Y-103466000D01*
X117916241Y-99695000D02*
X117916241Y-103685000D01*
X112170000Y-99536000D02*
X112170000Y-100166000D01*
X115955241Y-98515000D02*
X115955241Y-100650000D01*
X117276241Y-99083000D02*
X117276241Y-100650000D01*
X116156241Y-102730000D02*
X116156241Y-104821000D01*
X118196241Y-100109000D02*
X118196241Y-103271000D01*
X116636241Y-98720000D02*
X116636241Y-100650000D01*
X117476241Y-102730000D02*
X117476241Y-104140000D01*
X118556241Y-101057000D02*
X118556241Y-102323000D01*
X117556241Y-99310000D02*
X117556241Y-100650000D01*
X116316241Y-102730000D02*
X116316241Y-104776000D01*
X116116241Y-98549000D02*
X116116241Y-100650000D01*
X111855000Y-99851000D02*
X112485000Y-99851000D01*
X117156241Y-99000000D02*
X117156241Y-100650000D01*
X116916241Y-102730000D02*
X116916241Y-104524000D01*
X116476241Y-98657000D02*
X116476241Y-100650000D01*
X118356241Y-100428000D02*
X118356241Y-102952000D01*
X117316241Y-102730000D02*
X117316241Y-104268000D01*
X117116241Y-98974000D02*
X117116241Y-100650000D01*
X116716241Y-102730000D02*
X116716241Y-104624000D01*
X115755241Y-102730000D02*
X115755241Y-104896000D01*
X115795241Y-98489000D02*
X115795241Y-100650000D01*
X117516241Y-102730000D02*
X117516241Y-104106000D01*
X115955241Y-102730000D02*
X115955241Y-104865000D01*
X118036241Y-99856000D02*
X118036241Y-103524000D01*
X117756241Y-99508000D02*
X117756241Y-103872000D01*
X118625241Y-101690000D02*
G75*
G03*
X118625241Y-101690000I-3270000J0D01*
G01*
%TO.C,R30*%
X96682742Y-121507500D02*
X97157258Y-121507500D01*
X96682742Y-122552500D02*
X97157258Y-122552500D01*
%TO.C,C3*%
X116899420Y-112400000D02*
X117180580Y-112400000D01*
X116899420Y-111380000D02*
X117180580Y-111380000D01*
%TO.C,R26*%
X88312742Y-116672500D02*
X88787258Y-116672500D01*
X88312742Y-115627500D02*
X88787258Y-115627500D01*
%TO.C,RV8*%
X137465000Y-70360000D02*
X137465000Y-75430000D01*
X127695000Y-75430000D02*
X137465000Y-75430000D01*
X127695000Y-70360000D02*
X137465000Y-70360000D01*
X127695000Y-70360000D02*
X127695000Y-75430000D01*
%TO.C,C15*%
X88759420Y-121680000D02*
X89040580Y-121680000D01*
X88759420Y-120660000D02*
X89040580Y-120660000D01*
D10*
%TO.C,J8*%
X82375000Y-108720000D02*
X84915000Y-108720000D01*
X82320000Y-109410000D02*
X91320000Y-109410000D01*
X82320000Y-98910000D02*
X91320000Y-98910000D01*
X91320000Y-98910000D02*
X91320000Y-109410000D01*
X84915000Y-109355000D02*
X88725000Y-109355000D01*
X88725000Y-108720000D02*
X91265000Y-108720000D01*
X88725000Y-109355000D02*
X88725000Y-108720000D01*
X84915000Y-103005000D02*
X88725000Y-103005000D01*
X82320000Y-98910000D02*
X82320000Y-109410000D01*
X84915000Y-108720000D02*
X84915000Y-109355000D01*
X88725000Y-106815000D02*
X84915000Y-106815000D01*
X88725000Y-106815000D02*
G75*
G03*
X88725000Y-103005000I-1905000J1905000D01*
G01*
X84915000Y-103005000D02*
G75*
G03*
X84915000Y-106815000I1904999J-1905000D01*
G01*
X88616051Y-104910000D02*
G75*
G03*
X88616051Y-104910000I-1796051J0D01*
G01*
X88120000Y-104910000D02*
G75*
G03*
X88120000Y-104910000I-1300000J0D01*
G01*
D11*
%TO.C,RV7*%
X127695000Y-76810000D02*
X137465000Y-76810000D01*
X127695000Y-81880000D02*
X137465000Y-81880000D01*
X127695000Y-76810000D02*
X127695000Y-81880000D01*
X137465000Y-76810000D02*
X137465000Y-81880000D01*
%TO.C,SW2*%
X119955000Y-84735000D02*
X128085000Y-84735000D01*
X128085000Y-84735000D02*
X128085000Y-89815000D01*
X128085000Y-89815000D02*
X119955000Y-89815000D01*
X119955000Y-89815000D02*
X119955000Y-84735000D01*
X122476515Y-89847472D02*
G75*
G03*
X124020002Y-90274993I1543485J2572472D01*
G01*
X125563487Y-84702521D02*
G75*
G03*
X124020000Y-84275000I-1543487J-2572479D01*
G01*
X124019998Y-90274993D02*
G75*
G03*
X125563485Y-89847472I2J2999993D01*
G01*
X124020004Y-84275001D02*
G75*
G03*
X122476517Y-84702521I6J-3000029D01*
G01*
%TO.C,R32*%
X88662742Y-119182500D02*
X89137258Y-119182500D01*
X88662742Y-118137500D02*
X89137258Y-118137500D01*
%TO.C,R11*%
X129062742Y-101597500D02*
X129537258Y-101597500D01*
X129062742Y-102642500D02*
X129537258Y-102642500D01*
%TO.C,C9*%
X141029420Y-86180000D02*
X141310580Y-86180000D01*
X141029420Y-85160000D02*
X141310580Y-85160000D01*
%TO.C,R17*%
X116272742Y-109902500D02*
X116747258Y-109902500D01*
X116272742Y-108857500D02*
X116747258Y-108857500D01*
D10*
%TO.C,J2*%
X107270000Y-70240000D02*
X116270000Y-70240000D01*
X107270000Y-70240000D02*
X107270000Y-80740000D01*
X116270000Y-70240000D02*
X116270000Y-80740000D01*
X109865000Y-74335000D02*
X113675000Y-74335000D01*
X107270000Y-80740000D02*
X116270000Y-80740000D01*
X109865000Y-80685000D02*
X113675000Y-80685000D01*
X107325000Y-80050000D02*
X109865000Y-80050000D01*
X113675000Y-78145000D02*
X109865000Y-78145000D01*
X113675000Y-80685000D02*
X113675000Y-80050000D01*
X109865000Y-80050000D02*
X109865000Y-80685000D01*
X113675000Y-80050000D02*
X116215000Y-80050000D01*
X113675000Y-78145000D02*
G75*
G03*
X113675000Y-74335000I-1905000J1905000D01*
G01*
X109865000Y-74335000D02*
G75*
G03*
X109865000Y-78145000I1904999J-1905000D01*
G01*
X113566051Y-76240000D02*
G75*
G03*
X113566051Y-76240000I-1796051J0D01*
G01*
X113070000Y-76240000D02*
G75*
G03*
X113070000Y-76240000I-1300000J0D01*
G01*
D11*
%TO.C,R40*%
X146422742Y-76847500D02*
X146897258Y-76847500D01*
X146422742Y-77892500D02*
X146897258Y-77892500D01*
%TO.C,R14*%
X154512742Y-75417500D02*
X154987258Y-75417500D01*
X154512742Y-76462500D02*
X154987258Y-76462500D01*
%TO.C,R41*%
X121042742Y-100117500D02*
X121517258Y-100117500D01*
X121042742Y-101162500D02*
X121517258Y-101162500D01*
%TO.C,R18*%
X129182742Y-96577500D02*
X129657258Y-96577500D01*
X129182742Y-97622500D02*
X129657258Y-97622500D01*
%TO.C,RV4*%
X92830000Y-81470000D02*
X95890000Y-81470000D01*
X84300000Y-81470000D02*
X89020000Y-81470000D01*
X84300000Y-81470000D02*
X84300000Y-79980000D01*
X92830000Y-71730000D02*
X95890000Y-71730000D01*
X84300000Y-71720000D02*
X89020000Y-71720000D01*
X95890000Y-81470000D02*
X95890000Y-71730000D01*
X84300000Y-72910000D02*
X84300000Y-71730000D01*
X84300000Y-78260000D02*
X84300000Y-77430000D01*
X84300000Y-75810000D02*
X84300000Y-75280000D01*
%TO.C,R2*%
X127312742Y-94067500D02*
X127787258Y-94067500D01*
X127312742Y-95112500D02*
X127787258Y-95112500D01*
D10*
%TO.C,J4*%
X92525000Y-108150000D02*
X95065000Y-108150000D01*
X95065000Y-108785000D02*
X98875000Y-108785000D01*
X92470000Y-98340000D02*
X92470000Y-108840000D01*
X92470000Y-108840000D02*
X101470000Y-108840000D01*
X98875000Y-108150000D02*
X101415000Y-108150000D01*
X98875000Y-108785000D02*
X98875000Y-108150000D01*
X92470000Y-98340000D02*
X101470000Y-98340000D01*
X95065000Y-108150000D02*
X95065000Y-108785000D01*
X95065000Y-102435000D02*
X98875000Y-102435000D01*
X98875000Y-106245000D02*
X95065000Y-106245000D01*
X101470000Y-98340000D02*
X101470000Y-108840000D01*
X95065000Y-102435000D02*
G75*
G03*
X95065000Y-106245000I1904999J-1905000D01*
G01*
X98875000Y-106245000D02*
G75*
G03*
X98875000Y-102435000I-1905000J1905000D01*
G01*
X98270000Y-104340000D02*
G75*
G03*
X98270000Y-104340000I-1300000J0D01*
G01*
X98766051Y-104340000D02*
G75*
G03*
X98766051Y-104340000I-1796051J0D01*
G01*
D11*
%TO.C,R9*%
X133192742Y-96617500D02*
X133667258Y-96617500D01*
X133192742Y-97662500D02*
X133667258Y-97662500D01*
D10*
%TO.C,J7*%
X118820000Y-84290000D02*
X118820000Y-94790000D01*
X116225000Y-94100000D02*
X118765000Y-94100000D01*
X112415000Y-94100000D02*
X112415000Y-94735000D01*
X109820000Y-94790000D02*
X118820000Y-94790000D01*
X109820000Y-84290000D02*
X109820000Y-94790000D01*
X116225000Y-94735000D02*
X116225000Y-94100000D01*
X112415000Y-94735000D02*
X116225000Y-94735000D01*
X109875000Y-94100000D02*
X112415000Y-94100000D01*
X109820000Y-84290000D02*
X118820000Y-84290000D01*
X116225000Y-92195000D02*
X112415000Y-92195000D01*
X112415000Y-88385000D02*
X116225000Y-88385000D01*
X116225000Y-92195000D02*
G75*
G03*
X116225000Y-88385000I-1905000J1905000D01*
G01*
X112415000Y-88385000D02*
G75*
G03*
X112415000Y-92195000I1904999J-1905000D01*
G01*
X116116051Y-90290000D02*
G75*
G03*
X116116051Y-90290000I-1796051J0D01*
G01*
X115620000Y-90290000D02*
G75*
G03*
X115620000Y-90290000I-1300000J0D01*
G01*
D11*
%TO.C,R6*%
X121162742Y-97607500D02*
X121637258Y-97607500D01*
X121162742Y-98652500D02*
X121637258Y-98652500D01*
%TO.C,R39*%
X139342742Y-88317500D02*
X139817258Y-88317500D01*
X139342742Y-89362500D02*
X139817258Y-89362500D01*
%TO.C,C8*%
X125149420Y-105150000D02*
X125430580Y-105150000D01*
X125149420Y-106170000D02*
X125430580Y-106170000D01*
%TO.C,R21*%
X135332742Y-91597500D02*
X135807258Y-91597500D01*
X135332742Y-92642500D02*
X135807258Y-92642500D01*
%TO.C,SW1*%
X102605000Y-98785000D02*
X110735000Y-98785000D01*
X110735000Y-98785000D02*
X110735000Y-103865000D01*
X110735000Y-103865000D02*
X102605000Y-103865000D01*
X102605000Y-103865000D02*
X102605000Y-98785000D01*
X106670004Y-98325001D02*
G75*
G03*
X105126517Y-98752521I6J-3000029D01*
G01*
X108213487Y-98752521D02*
G75*
G03*
X106670000Y-98325000I-1543487J-2572479D01*
G01*
X105126515Y-103897472D02*
G75*
G03*
X106670002Y-104324993I1543485J2572472D01*
G01*
X106669998Y-104324993D02*
G75*
G03*
X108213485Y-103897472I2J2999993D01*
G01*
%TO.C,R25*%
X154512742Y-72907500D02*
X154987258Y-72907500D01*
X154512742Y-73952500D02*
X154987258Y-73952500D01*
%TO.C,R43*%
X116272742Y-106347500D02*
X116747258Y-106347500D01*
X116272742Y-107392500D02*
X116747258Y-107392500D01*
%TO.C,R12*%
X112792742Y-114922500D02*
X113267258Y-114922500D01*
X112792742Y-113877500D02*
X113267258Y-113877500D01*
%TO.C,C7*%
X121139420Y-102640000D02*
X121420580Y-102640000D01*
X121139420Y-103660000D02*
X121420580Y-103660000D01*
D10*
%TO.C,J1*%
X95925000Y-94735000D02*
X95925000Y-94100000D01*
X95925000Y-94100000D02*
X98465000Y-94100000D01*
X95925000Y-92195000D02*
X92115000Y-92195000D01*
X92115000Y-88385000D02*
X95925000Y-88385000D01*
X89520000Y-84290000D02*
X98520000Y-84290000D01*
X92115000Y-94735000D02*
X95925000Y-94735000D01*
X92115000Y-94100000D02*
X92115000Y-94735000D01*
X89575000Y-94100000D02*
X92115000Y-94100000D01*
X89520000Y-84290000D02*
X89520000Y-94790000D01*
X98520000Y-84290000D02*
X98520000Y-94790000D01*
X89520000Y-94790000D02*
X98520000Y-94790000D01*
X95925000Y-92195000D02*
G75*
G03*
X95925000Y-88385000I-1905000J1905000D01*
G01*
X92115000Y-88385000D02*
G75*
G03*
X92115000Y-92195000I1904999J-1905000D01*
G01*
X95816051Y-90290000D02*
G75*
G03*
X95816051Y-90290000I-1796051J0D01*
G01*
X95320000Y-90290000D02*
G75*
G03*
X95320000Y-90290000I-1300000J0D01*
G01*
D11*
%TO.C,C13*%
X109226241Y-112800000D02*
X109226241Y-114210000D01*
X109826241Y-113474000D02*
X109826241Y-117026000D01*
X108386241Y-116290000D02*
X108386241Y-118220000D01*
X110146241Y-114085000D02*
X110146241Y-116415000D01*
X108786241Y-112484000D02*
X108786241Y-114210000D01*
X109226241Y-116290000D02*
X109226241Y-117700000D01*
X110226241Y-114310000D02*
X110226241Y-116190000D01*
X108826241Y-112508000D02*
X108826241Y-114210000D01*
X109746241Y-113360000D02*
X109746241Y-117140000D01*
X107425241Y-112035000D02*
X107425241Y-114210000D01*
X107585241Y-112055000D02*
X107585241Y-114210000D01*
X109306241Y-112870000D02*
X109306241Y-114210000D01*
X109186241Y-116290000D02*
X109186241Y-117734000D01*
X109626241Y-113206000D02*
X109626241Y-117294000D01*
X107785241Y-116290000D02*
X107785241Y-118409000D01*
X107545241Y-112049000D02*
X107545241Y-114210000D01*
X108746241Y-112460000D02*
X108746241Y-114210000D01*
X108306241Y-112248000D02*
X108306241Y-114210000D01*
X108906241Y-112560000D02*
X108906241Y-114210000D01*
X107385241Y-112032000D02*
X107385241Y-114210000D01*
X108466241Y-116290000D02*
X108466241Y-118184000D01*
X107866241Y-112109000D02*
X107866241Y-114210000D01*
X108506241Y-116290000D02*
X108506241Y-118166000D01*
X109426241Y-112985000D02*
X109426241Y-117515000D01*
X108866241Y-112534000D02*
X108866241Y-114210000D01*
X108786241Y-116290000D02*
X108786241Y-118016000D01*
X108346241Y-116290000D02*
X108346241Y-118236000D01*
X107665241Y-112068000D02*
X107665241Y-114210000D01*
X108866241Y-116290000D02*
X108866241Y-117966000D01*
X110186241Y-114191000D02*
X110186241Y-116309000D01*
X110306241Y-114617000D02*
X110306241Y-115883000D01*
X110266241Y-114448000D02*
X110266241Y-116052000D01*
X109986241Y-113741000D02*
X109986241Y-116759000D01*
X110026241Y-113818000D02*
X110026241Y-116682000D01*
X109106241Y-112702000D02*
X109106241Y-114210000D01*
X108106241Y-116290000D02*
X108106241Y-118324000D01*
X109146241Y-116290000D02*
X109146241Y-117766000D01*
X108986241Y-112614000D02*
X108986241Y-114210000D01*
X108066241Y-116290000D02*
X108066241Y-118336000D01*
X107866241Y-116290000D02*
X107866241Y-118391000D01*
X107505241Y-116290000D02*
X107505241Y-118456000D01*
X108906241Y-116290000D02*
X108906241Y-117940000D01*
X109146241Y-112734000D02*
X109146241Y-114210000D01*
X107745241Y-116290000D02*
X107745241Y-118417000D01*
X107465241Y-116290000D02*
X107465241Y-118461000D01*
X108426241Y-112298000D02*
X108426241Y-114210000D01*
X108546241Y-116290000D02*
X108546241Y-118146000D01*
X108746241Y-116290000D02*
X108746241Y-118040000D01*
X108266241Y-112232000D02*
X108266241Y-114210000D01*
X109706241Y-113306000D02*
X109706241Y-117194000D01*
X109386241Y-112945000D02*
X109386241Y-114210000D01*
X109066241Y-112672000D02*
X109066241Y-114210000D01*
X107665241Y-116290000D02*
X107665241Y-118432000D01*
X108186241Y-112203000D02*
X108186241Y-114210000D01*
X108026241Y-116290000D02*
X108026241Y-118348000D01*
X109026241Y-112643000D02*
X109026241Y-114210000D01*
X107906241Y-116290000D02*
X107906241Y-118381000D01*
X109906241Y-113600000D02*
X109906241Y-116900000D01*
X108946241Y-112586000D02*
X108946241Y-114210000D01*
X108706241Y-112438000D02*
X108706241Y-114210000D01*
X108306241Y-116290000D02*
X108306241Y-118252000D01*
X107585241Y-116290000D02*
X107585241Y-118445000D01*
X109306241Y-116290000D02*
X109306241Y-117630000D01*
X108666241Y-116290000D02*
X108666241Y-118084000D01*
X108466241Y-112316000D02*
X108466241Y-114210000D01*
X108586241Y-116290000D02*
X108586241Y-118126000D01*
X109866241Y-113536000D02*
X109866241Y-116964000D01*
X108986241Y-116290000D02*
X108986241Y-117886000D01*
X108586241Y-112374000D02*
X108586241Y-114210000D01*
X108266241Y-116290000D02*
X108266241Y-118268000D01*
X108706241Y-116290000D02*
X108706241Y-118062000D01*
X109546241Y-113113000D02*
X109546241Y-117387000D01*
X103920000Y-113096000D02*
X103920000Y-113726000D01*
X109946241Y-113669000D02*
X109946241Y-116831000D01*
X108146241Y-112189000D02*
X108146241Y-114210000D01*
X107986241Y-116290000D02*
X107986241Y-118360000D01*
X107265241Y-112023000D02*
X107265241Y-118477000D01*
X107906241Y-112119000D02*
X107906241Y-114210000D01*
X108146241Y-116290000D02*
X108146241Y-118311000D01*
X108386241Y-112280000D02*
X108386241Y-114210000D01*
X110346241Y-114848000D02*
X110346241Y-115652000D01*
X109066241Y-116290000D02*
X109066241Y-117828000D01*
X107505241Y-112044000D02*
X107505241Y-114210000D01*
X107425241Y-116290000D02*
X107425241Y-118465000D01*
X107465241Y-112039000D02*
X107465241Y-114210000D01*
X107385241Y-116290000D02*
X107385241Y-118468000D01*
X107105241Y-112020000D02*
X107105241Y-118480000D01*
X109386241Y-116290000D02*
X109386241Y-117555000D01*
X107625241Y-116290000D02*
X107625241Y-118439000D01*
X108186241Y-116290000D02*
X108186241Y-118297000D01*
X108026241Y-112152000D02*
X108026241Y-114210000D01*
X109266241Y-112834000D02*
X109266241Y-114210000D01*
X109586241Y-113158000D02*
X109586241Y-117342000D01*
X110066241Y-113900000D02*
X110066241Y-116600000D01*
X107305241Y-112026000D02*
X107305241Y-118474000D01*
X107785241Y-112091000D02*
X107785241Y-114210000D01*
X107545241Y-116290000D02*
X107545241Y-118451000D01*
X109506241Y-113068000D02*
X109506241Y-117432000D01*
X108226241Y-116290000D02*
X108226241Y-118283000D01*
X108626241Y-112394000D02*
X108626241Y-114210000D01*
X107705241Y-116290000D02*
X107705241Y-118425000D01*
X108626241Y-116290000D02*
X108626241Y-118106000D01*
X107345241Y-116290000D02*
X107345241Y-118472000D01*
X108666241Y-112416000D02*
X108666241Y-114210000D01*
X110106241Y-113988000D02*
X110106241Y-116512000D01*
X109026241Y-116290000D02*
X109026241Y-117857000D01*
X107145241Y-112020000D02*
X107145241Y-118480000D01*
X107946241Y-116290000D02*
X107946241Y-118371000D01*
X107705241Y-112075000D02*
X107705241Y-114210000D01*
X108346241Y-112264000D02*
X108346241Y-114210000D01*
X107826241Y-116290000D02*
X107826241Y-118400000D01*
X108106241Y-112176000D02*
X108106241Y-114210000D01*
X107745241Y-112083000D02*
X107745241Y-114210000D01*
X109786241Y-113416000D02*
X109786241Y-117084000D01*
X108426241Y-116290000D02*
X108426241Y-118202000D01*
X108506241Y-112334000D02*
X108506241Y-114210000D01*
X107225241Y-112022000D02*
X107225241Y-118478000D01*
X109186241Y-112766000D02*
X109186241Y-114210000D01*
X107345241Y-112028000D02*
X107345241Y-114210000D01*
X109466241Y-113026000D02*
X109466241Y-117474000D01*
X109346241Y-116290000D02*
X109346241Y-117593000D01*
X109346241Y-112907000D02*
X109346241Y-114210000D01*
X103605000Y-113411000D02*
X104235000Y-113411000D01*
X108066241Y-112164000D02*
X108066241Y-114210000D01*
X107986241Y-112140000D02*
X107986241Y-114210000D01*
X107946241Y-112129000D02*
X107946241Y-114210000D01*
X109266241Y-116290000D02*
X109266241Y-117666000D01*
X107185241Y-112020000D02*
X107185241Y-118480000D01*
X109666241Y-113255000D02*
X109666241Y-117245000D01*
X107625241Y-112061000D02*
X107625241Y-114210000D01*
X108546241Y-112354000D02*
X108546241Y-114210000D01*
X109106241Y-116290000D02*
X109106241Y-117798000D01*
X108226241Y-112217000D02*
X108226241Y-114210000D01*
X107826241Y-112100000D02*
X107826241Y-114210000D01*
X108946241Y-116290000D02*
X108946241Y-117914000D01*
X108826241Y-116290000D02*
X108826241Y-117992000D01*
X110375241Y-115250000D02*
G75*
G03*
X110375241Y-115250000I-3270000J0D01*
G01*
%TO.C,R8*%
X96682742Y-118997500D02*
X97157258Y-118997500D01*
X96682742Y-120042500D02*
X97157258Y-120042500D01*
%TO.C,R22*%
X112262742Y-106347500D02*
X112737258Y-106347500D01*
X112262742Y-107392500D02*
X112737258Y-107392500D01*
%TO.C,C4*%
X154609420Y-70410000D02*
X154890580Y-70410000D01*
X154609420Y-71430000D02*
X154890580Y-71430000D01*
%TO.C,R38*%
X120282742Y-107647500D02*
X120757258Y-107647500D01*
X120282742Y-108692500D02*
X120757258Y-108692500D01*
%TO.C,R37*%
X144942742Y-83682500D02*
X145417258Y-83682500D01*
X144942742Y-82637500D02*
X145417258Y-82637500D01*
%TO.C,R4*%
X92672742Y-120042500D02*
X93147258Y-120042500D01*
X92672742Y-118997500D02*
X93147258Y-118997500D01*
%TO.C,RV5*%
X85865000Y-113080000D02*
X85865000Y-118150000D01*
X76095000Y-113080000D02*
X85865000Y-113080000D01*
X76095000Y-118150000D02*
X85865000Y-118150000D01*
X76095000Y-113080000D02*
X76095000Y-118150000D01*
%TO.C,D1*%
X76020000Y-119510000D02*
X76020000Y-121510000D01*
X76020000Y-119510000D02*
X79920000Y-119510000D01*
X76020000Y-121510000D02*
X79920000Y-121510000D01*
%TO.C,R35*%
X127312742Y-92602500D02*
X127787258Y-92602500D01*
X127312742Y-91557500D02*
X127787258Y-91557500D01*
%TO.C,R29*%
X120812742Y-111202500D02*
X121287258Y-111202500D01*
X120812742Y-110157500D02*
X121287258Y-110157500D01*
%TO.C,U5*%
X148610000Y-70330000D02*
X151330000Y-70330000D01*
X148610000Y-75050000D02*
X148610000Y-74820000D01*
X151330000Y-73740000D02*
X151330000Y-75050000D01*
X151330000Y-75050000D02*
X148610000Y-75050000D01*
X151330000Y-70330000D02*
X151330000Y-71640000D01*
X148610000Y-70330000D02*
X148610000Y-70560000D01*
X147470000Y-70560000D02*
X148610000Y-70560000D01*
%TO.C,R31*%
X136922742Y-85807500D02*
X137397258Y-85807500D01*
X136922742Y-86852500D02*
X137397258Y-86852500D01*
%TO.C,Q2*%
X124650000Y-65060000D02*
X125300000Y-65060000D01*
X124650000Y-61940000D02*
X125300000Y-61940000D01*
X124650000Y-61940000D02*
X122975000Y-61940000D01*
X124650000Y-65060000D02*
X124000000Y-65060000D01*
%TO.C,J5*%
X82740000Y-87130000D02*
X85340000Y-87130000D01*
X82740000Y-85860000D02*
X82740000Y-84530000D01*
X82740000Y-87130000D02*
X82740000Y-97350000D01*
X82740000Y-97350000D02*
X87940000Y-97350000D01*
X82740000Y-84530000D02*
X84070000Y-84530000D01*
X87940000Y-84530000D02*
X87940000Y-97350000D01*
X85340000Y-84530000D02*
X87940000Y-84530000D01*
X85340000Y-87130000D02*
X85340000Y-84530000D01*
%TO.C,D2*%
X81770000Y-121510000D02*
X85670000Y-121510000D01*
X81770000Y-119510000D02*
X85670000Y-119510000D01*
X81770000Y-119510000D02*
X81770000Y-121510000D01*
%TO.C,C2*%
X108809420Y-120940000D02*
X109090580Y-120940000D01*
X108809420Y-119920000D02*
X109090580Y-119920000D01*
%TO.C,C10*%
X133289420Y-94120000D02*
X133570580Y-94120000D01*
X133289420Y-95140000D02*
X133570580Y-95140000D01*
%TO.C,R5*%
X131322742Y-91597500D02*
X131797258Y-91597500D01*
X131322742Y-92642500D02*
X131797258Y-92642500D01*
%TO.C,C1*%
X137019420Y-83310000D02*
X137300580Y-83310000D01*
X137019420Y-84330000D02*
X137300580Y-84330000D01*
%TO.C,U4*%
X124130000Y-96210000D02*
X121410000Y-96210000D01*
X120270000Y-91720000D02*
X121410000Y-91720000D01*
X124130000Y-91490000D02*
X124130000Y-92800000D01*
X124130000Y-94900000D02*
X124130000Y-96210000D01*
X121410000Y-91490000D02*
X124130000Y-91490000D01*
X121410000Y-91490000D02*
X121410000Y-91720000D01*
X121410000Y-96210000D02*
X121410000Y-95980000D01*
%TO.C,R1*%
X125052742Y-102627500D02*
X125527258Y-102627500D01*
X125052742Y-103672500D02*
X125527258Y-103672500D01*
%TO.C,R44*%
X121042742Y-106182500D02*
X121517258Y-106182500D01*
X121042742Y-105137500D02*
X121517258Y-105137500D01*
%TO.C,R24*%
X100692742Y-119907500D02*
X101167258Y-119907500D01*
X100692742Y-120952500D02*
X101167258Y-120952500D01*
%TO.C,R20*%
X144942742Y-85147500D02*
X145417258Y-85147500D01*
X144942742Y-86192500D02*
X145417258Y-86192500D01*
%TO.C,R42*%
X150432742Y-77492500D02*
X150907258Y-77492500D01*
X150432742Y-76447500D02*
X150907258Y-76447500D01*
D10*
%TO.C,J3*%
X117420000Y-70240000D02*
X117420000Y-80740000D01*
X120015000Y-74335000D02*
X123825000Y-74335000D01*
X123825000Y-78145000D02*
X120015000Y-78145000D01*
X123825000Y-80685000D02*
X123825000Y-80050000D01*
X117475000Y-80050000D02*
X120015000Y-80050000D01*
X123825000Y-80050000D02*
X126365000Y-80050000D01*
X126420000Y-70240000D02*
X126420000Y-80740000D01*
X117420000Y-70240000D02*
X126420000Y-70240000D01*
X120015000Y-80050000D02*
X120015000Y-80685000D01*
X120015000Y-80685000D02*
X123825000Y-80685000D01*
X117420000Y-80740000D02*
X126420000Y-80740000D01*
X120015000Y-74335000D02*
G75*
G03*
X120015000Y-78145000I1904999J-1905000D01*
G01*
X123825000Y-78145000D02*
G75*
G03*
X123825000Y-74335000I-1905000J1905000D01*
G01*
X123220000Y-76240000D02*
G75*
G03*
X123220000Y-76240000I-1300000J0D01*
G01*
X123716051Y-76240000D02*
G75*
G03*
X123716051Y-76240000I-1796051J0D01*
G01*
D11*
%TO.C,R36*%
X112792742Y-116387500D02*
X113267258Y-116387500D01*
X112792742Y-117432500D02*
X113267258Y-117432500D01*
%TO.C,C14*%
X112889420Y-112400000D02*
X113170580Y-112400000D01*
X112889420Y-111380000D02*
X113170580Y-111380000D01*
%TO.C,R13*%
X158522742Y-70397500D02*
X158997258Y-70397500D01*
X158522742Y-71442500D02*
X158997258Y-71442500D01*
%TO.C,R3*%
X112262742Y-109902500D02*
X112737258Y-109902500D01*
X112262742Y-108857500D02*
X112737258Y-108857500D01*
D10*
%TO.C,J9*%
X103525000Y-78145000D02*
X99715000Y-78145000D01*
X97120000Y-70240000D02*
X97120000Y-80740000D01*
X106120000Y-70240000D02*
X106120000Y-80740000D01*
X99715000Y-80050000D02*
X99715000Y-80685000D01*
X99715000Y-74335000D02*
X103525000Y-74335000D01*
X97120000Y-70240000D02*
X106120000Y-70240000D01*
X97175000Y-80050000D02*
X99715000Y-80050000D01*
X103525000Y-80050000D02*
X106065000Y-80050000D01*
X103525000Y-80685000D02*
X103525000Y-80050000D01*
X99715000Y-80685000D02*
X103525000Y-80685000D01*
X97120000Y-80740000D02*
X106120000Y-80740000D01*
X99715000Y-74335000D02*
G75*
G03*
X99715000Y-78145000I1904999J-1905000D01*
G01*
X103525000Y-78145000D02*
G75*
G03*
X103525000Y-74335000I-1905000J1905000D01*
G01*
X102920000Y-76240000D02*
G75*
G03*
X102920000Y-76240000I-1300000J0D01*
G01*
X103416051Y-76240000D02*
G75*
G03*
X103416051Y-76240000I-1796051J0D01*
G01*
D11*
%TO.C,R10*%
X150432742Y-78957500D02*
X150907258Y-78957500D01*
X150432742Y-80002500D02*
X150907258Y-80002500D01*
%TO.C,R34*%
X88312742Y-114162500D02*
X88787258Y-114162500D01*
X88312742Y-113117500D02*
X88787258Y-113117500D01*
%TO.C,RV2*%
X69500000Y-81470000D02*
X74220000Y-81470000D01*
X69500000Y-72910000D02*
X69500000Y-71730000D01*
X81090000Y-81470000D02*
X81090000Y-71730000D01*
X69500000Y-81470000D02*
X69500000Y-79980000D01*
X69500000Y-71720000D02*
X74220000Y-71720000D01*
X78030000Y-71730000D02*
X81090000Y-71730000D01*
X69500000Y-75810000D02*
X69500000Y-75280000D01*
X78030000Y-81470000D02*
X81090000Y-81470000D01*
X69500000Y-78260000D02*
X69500000Y-77430000D01*
%TD*%
D12*
%TO.C,J6*%
X104170000Y-96770000D03*
X104170000Y-93670000D03*
X104170000Y-85370000D03*
%TD*%
%TO.C,J8*%
X86820000Y-111390000D03*
X86820000Y-108290000D03*
X86820000Y-99990000D03*
%TD*%
%TO.C,J2*%
X111770000Y-82720000D03*
X111770000Y-79620000D03*
X111770000Y-71320000D03*
%TD*%
%TO.C,J4*%
X96970000Y-110820000D03*
X96970000Y-107720000D03*
X96970000Y-99420000D03*
%TD*%
%TO.C,J7*%
X114320000Y-96770000D03*
X114320000Y-93670000D03*
X114320000Y-85370000D03*
%TD*%
%TO.C,J1*%
X94020000Y-96770000D03*
X94020000Y-93670000D03*
X94020000Y-85370000D03*
%TD*%
%TO.C,J3*%
X121920000Y-82720000D03*
X121920000Y-79620000D03*
X121920000Y-71320000D03*
%TD*%
%TO.C,J9*%
X101620000Y-82720000D03*
X101620000Y-79620000D03*
X101620000Y-71320000D03*
%TD*%
%LPC*%
D13*
%TO.C,U1*%
X103795000Y-106195000D03*
X103795000Y-107465000D03*
X103795000Y-108735000D03*
X103795000Y-110005000D03*
X108745000Y-110005000D03*
X108745000Y-108735000D03*
X108745000Y-107465000D03*
X108745000Y-106195000D03*
%TD*%
D14*
%TO.C,R33*%
X104115000Y-120430000D03*
X105765000Y-120430000D03*
%TD*%
%TO.C,R19*%
X116215000Y-114400000D03*
X117865000Y-114400000D03*
%TD*%
D15*
%TO.C,RV6*%
X100020000Y-115040000D03*
X97480000Y-115040000D03*
X94940000Y-115040000D03*
%TD*%
D16*
%TO.C,RV1*%
X76120000Y-99540000D03*
X76120000Y-109140000D03*
D17*
X68620000Y-101840000D03*
D18*
X68620000Y-104340000D03*
X68620000Y-106840000D03*
%TD*%
D19*
%TO.C,C12*%
X92135000Y-122030000D03*
X93685000Y-122030000D03*
%TD*%
D14*
%TO.C,R27*%
X128595000Y-99610000D03*
X130245000Y-99610000D03*
%TD*%
%TO.C,R15*%
X124465000Y-100640000D03*
X126115000Y-100640000D03*
%TD*%
D13*
%TO.C,U2*%
X139895000Y-70985000D03*
X139895000Y-72255000D03*
X139895000Y-73525000D03*
X139895000Y-74795000D03*
X144845000Y-74795000D03*
X144845000Y-73525000D03*
X144845000Y-72255000D03*
X144845000Y-70985000D03*
%TD*%
D20*
%TO.C,U3*%
X68595000Y-112555000D03*
X68595000Y-113825000D03*
X68595000Y-115095000D03*
X68595000Y-116365000D03*
X68595000Y-117635000D03*
X68595000Y-118905000D03*
X68595000Y-120175000D03*
X68595000Y-121445000D03*
X73745000Y-121445000D03*
X73745000Y-120175000D03*
X73745000Y-118905000D03*
X73745000Y-117635000D03*
X73745000Y-116365000D03*
X73745000Y-115095000D03*
X73745000Y-113825000D03*
X73745000Y-112555000D03*
%TD*%
D14*
%TO.C,R23*%
X145835000Y-79880000D03*
X147485000Y-79880000D03*
%TD*%
D16*
%TO.C,RV3*%
X76120000Y-85670000D03*
X76120000Y-95270000D03*
D17*
X68620000Y-87970000D03*
D18*
X68620000Y-90470000D03*
X68620000Y-92970000D03*
%TD*%
D14*
%TO.C,R16*%
X134745000Y-89610000D03*
X136395000Y-89610000D03*
%TD*%
%TO.C,R7*%
X138755000Y-91350000D03*
X140405000Y-91350000D03*
%TD*%
D12*
%TO.C,J6*%
X104170000Y-96770000D03*
X104170000Y-93670000D03*
X104170000Y-85370000D03*
%TD*%
D21*
%TO.C,Q1*%
X128602500Y-62550000D03*
X128602500Y-64450000D03*
X130477500Y-63500000D03*
%TD*%
D19*
%TO.C,C6*%
X124635000Y-98130000D03*
X126185000Y-98130000D03*
%TD*%
%TO.C,C5*%
X130785000Y-89610000D03*
X132335000Y-89610000D03*
%TD*%
D14*
%TO.C,R28*%
X140345000Y-83160000D03*
X141995000Y-83160000D03*
%TD*%
D22*
%TO.C,C11*%
X114105241Y-101690000D03*
D23*
X116605241Y-101690000D03*
%TD*%
D14*
%TO.C,R30*%
X96095000Y-122030000D03*
X97745000Y-122030000D03*
%TD*%
D19*
%TO.C,C3*%
X116265000Y-111890000D03*
X117815000Y-111890000D03*
%TD*%
D14*
%TO.C,R26*%
X87725000Y-116150000D03*
X89375000Y-116150000D03*
%TD*%
D15*
%TO.C,RV8*%
X135120000Y-72890000D03*
X132580000Y-72890000D03*
X130040000Y-72890000D03*
%TD*%
D19*
%TO.C,C15*%
X88125000Y-121170000D03*
X89675000Y-121170000D03*
%TD*%
D12*
%TO.C,J8*%
X86820000Y-111390000D03*
X86820000Y-108290000D03*
X86820000Y-99990000D03*
%TD*%
D15*
%TO.C,RV7*%
X135120000Y-79340000D03*
X132580000Y-79340000D03*
X130040000Y-79340000D03*
%TD*%
D24*
%TO.C,SW2*%
X121480000Y-87275000D03*
X124020000Y-87275000D03*
X126560000Y-87275000D03*
%TD*%
D14*
%TO.C,R32*%
X88075000Y-118660000D03*
X89725000Y-118660000D03*
%TD*%
%TO.C,R11*%
X128475000Y-102120000D03*
X130125000Y-102120000D03*
%TD*%
D19*
%TO.C,C9*%
X140395000Y-85670000D03*
X141945000Y-85670000D03*
%TD*%
D14*
%TO.C,R17*%
X115685000Y-109380000D03*
X117335000Y-109380000D03*
%TD*%
D12*
%TO.C,J2*%
X111770000Y-82720000D03*
X111770000Y-79620000D03*
X111770000Y-71320000D03*
%TD*%
D14*
%TO.C,R40*%
X145835000Y-77370000D03*
X147485000Y-77370000D03*
%TD*%
%TO.C,R14*%
X153925000Y-75940000D03*
X155575000Y-75940000D03*
%TD*%
%TO.C,R41*%
X120455000Y-100640000D03*
X122105000Y-100640000D03*
%TD*%
%TO.C,R18*%
X128595000Y-97100000D03*
X130245000Y-97100000D03*
%TD*%
D16*
%TO.C,RV4*%
X90920000Y-81400000D03*
X90920000Y-71800000D03*
D17*
X83420000Y-74100000D03*
D18*
X83420000Y-76600000D03*
X83420000Y-79100000D03*
%TD*%
D14*
%TO.C,R2*%
X126725000Y-94590000D03*
X128375000Y-94590000D03*
%TD*%
D12*
%TO.C,J4*%
X96970000Y-110820000D03*
X96970000Y-107720000D03*
X96970000Y-99420000D03*
%TD*%
D14*
%TO.C,R9*%
X132605000Y-97140000D03*
X134255000Y-97140000D03*
%TD*%
D12*
%TO.C,J7*%
X114320000Y-96770000D03*
X114320000Y-93670000D03*
X114320000Y-85370000D03*
%TD*%
D14*
%TO.C,R6*%
X120575000Y-98130000D03*
X122225000Y-98130000D03*
%TD*%
%TO.C,R39*%
X138755000Y-88840000D03*
X140405000Y-88840000D03*
%TD*%
D19*
%TO.C,C8*%
X124515000Y-105660000D03*
X126065000Y-105660000D03*
%TD*%
D14*
%TO.C,R21*%
X134745000Y-92120000D03*
X136395000Y-92120000D03*
%TD*%
D24*
%TO.C,SW1*%
X104130000Y-101325000D03*
X106670000Y-101325000D03*
X109210000Y-101325000D03*
%TD*%
D14*
%TO.C,R25*%
X153925000Y-73430000D03*
X155575000Y-73430000D03*
%TD*%
%TO.C,R43*%
X115685000Y-106870000D03*
X117335000Y-106870000D03*
%TD*%
%TO.C,R12*%
X112205000Y-114400000D03*
X113855000Y-114400000D03*
%TD*%
D19*
%TO.C,C7*%
X120505000Y-103150000D03*
X122055000Y-103150000D03*
%TD*%
D12*
%TO.C,J1*%
X94020000Y-96770000D03*
X94020000Y-93670000D03*
X94020000Y-85370000D03*
%TD*%
D22*
%TO.C,C13*%
X105855241Y-115250000D03*
D23*
X108355241Y-115250000D03*
%TD*%
D14*
%TO.C,R8*%
X96095000Y-119520000D03*
X97745000Y-119520000D03*
%TD*%
%TO.C,R22*%
X111675000Y-106870000D03*
X113325000Y-106870000D03*
%TD*%
D19*
%TO.C,C4*%
X153975000Y-70920000D03*
X155525000Y-70920000D03*
%TD*%
D14*
%TO.C,R38*%
X119695000Y-108170000D03*
X121345000Y-108170000D03*
%TD*%
%TO.C,R37*%
X144355000Y-83160000D03*
X146005000Y-83160000D03*
%TD*%
%TO.C,R4*%
X92085000Y-119520000D03*
X93735000Y-119520000D03*
%TD*%
D15*
%TO.C,RV5*%
X83520000Y-115610000D03*
X80980000Y-115610000D03*
X78440000Y-115610000D03*
%TD*%
D25*
%TO.C,D1*%
X76620000Y-120510000D03*
X79920000Y-120510000D03*
%TD*%
D14*
%TO.C,R35*%
X126725000Y-92080000D03*
X128375000Y-92080000D03*
%TD*%
%TO.C,R29*%
X120225000Y-110680000D03*
X121875000Y-110680000D03*
%TD*%
D26*
%TO.C,U5*%
X148020000Y-71190000D03*
D27*
X148107500Y-72690000D03*
D26*
X148020000Y-74190000D03*
%TD*%
D14*
%TO.C,R31*%
X136335000Y-86330000D03*
X137985000Y-86330000D03*
%TD*%
D21*
%TO.C,Q2*%
X123712500Y-62550000D03*
X123712500Y-64450000D03*
X125587500Y-63500000D03*
%TD*%
D28*
%TO.C,J5*%
X84070000Y-85860000D03*
D29*
X86610000Y-85860000D03*
X84070000Y-88400000D03*
X86610000Y-88400000D03*
X84070000Y-90940000D03*
X86610000Y-90940000D03*
X84070000Y-93480000D03*
X86610000Y-93480000D03*
X84070000Y-96020000D03*
X86610000Y-96020000D03*
%TD*%
D25*
%TO.C,D2*%
X82370000Y-120510000D03*
X85670000Y-120510000D03*
%TD*%
D19*
%TO.C,C2*%
X108175000Y-120430000D03*
X109725000Y-120430000D03*
%TD*%
%TO.C,C10*%
X132655000Y-94630000D03*
X134205000Y-94630000D03*
%TD*%
D14*
%TO.C,R5*%
X130735000Y-92120000D03*
X132385000Y-92120000D03*
%TD*%
D19*
%TO.C,C1*%
X136385000Y-83820000D03*
X137935000Y-83820000D03*
%TD*%
D26*
%TO.C,U4*%
X120820000Y-92350000D03*
D27*
X120907500Y-93850000D03*
D26*
X120820000Y-95350000D03*
%TD*%
D14*
%TO.C,R1*%
X124465000Y-103150000D03*
X126115000Y-103150000D03*
%TD*%
%TO.C,R44*%
X120455000Y-105660000D03*
X122105000Y-105660000D03*
%TD*%
%TO.C,R24*%
X100105000Y-120430000D03*
X101755000Y-120430000D03*
%TD*%
%TO.C,R20*%
X144355000Y-85670000D03*
X146005000Y-85670000D03*
%TD*%
%TO.C,R42*%
X149845000Y-76970000D03*
X151495000Y-76970000D03*
%TD*%
D12*
%TO.C,J3*%
X121920000Y-82720000D03*
X121920000Y-79620000D03*
X121920000Y-71320000D03*
%TD*%
D14*
%TO.C,R36*%
X112205000Y-116910000D03*
X113855000Y-116910000D03*
%TD*%
D19*
%TO.C,C14*%
X112255000Y-111890000D03*
X113805000Y-111890000D03*
%TD*%
D14*
%TO.C,R13*%
X157935000Y-70920000D03*
X159585000Y-70920000D03*
%TD*%
%TO.C,R3*%
X111675000Y-109380000D03*
X113325000Y-109380000D03*
%TD*%
D12*
%TO.C,J9*%
X101620000Y-82720000D03*
X101620000Y-79620000D03*
X101620000Y-71320000D03*
%TD*%
D14*
%TO.C,R10*%
X149845000Y-79480000D03*
X151495000Y-79480000D03*
%TD*%
%TO.C,R34*%
X87725000Y-113640000D03*
X89375000Y-113640000D03*
%TD*%
D16*
%TO.C,RV2*%
X76120000Y-81400000D03*
X76120000Y-71800000D03*
D17*
X68620000Y-74100000D03*
D18*
X68620000Y-76600000D03*
X68620000Y-79100000D03*
%TD*%
M02*
