%TF.GenerationSoftware,KiCad,Pcbnew,(6.0.9)*%
%TF.CreationDate,2022-12-23T01:27:24-06:00*%
%TF.ProjectId,CEM3340 VCO,43454d33-3334-4302-9056-434f2e6b6963,rev?*%
%TF.SameCoordinates,Original*%
%TF.FileFunction,Copper,L1,Top*%
%TF.FilePolarity,Positive*%
%FSLAX46Y46*%
G04 Gerber Fmt 4.6, Leading zero omitted, Abs format (unit mm)*
G04 Created by KiCad (PCBNEW (6.0.9)) date 2022-12-23 01:27:24*
%MOMM*%
%LPD*%
G01*
G04 APERTURE LIST*
G04 Aperture macros list*
%AMRoundRect*
0 Rectangle with rounded corners*
0 $1 Rounding radius*
0 $2 $3 $4 $5 $6 $7 $8 $9 X,Y pos of 4 corners*
0 Add a 4 corners polygon primitive as box body*
4,1,4,$2,$3,$4,$5,$6,$7,$8,$9,$2,$3,0*
0 Add four circle primitives for the rounded corners*
1,1,$1+$1,$2,$3*
1,1,$1+$1,$4,$5*
1,1,$1+$1,$6,$7*
1,1,$1+$1,$8,$9*
0 Add four rect primitives between the rounded corners*
20,1,$1+$1,$2,$3,$4,$5,0*
20,1,$1+$1,$4,$5,$6,$7,0*
20,1,$1+$1,$6,$7,$8,$9,0*
20,1,$1+$1,$8,$9,$2,$3,0*%
%AMFreePoly0*
4,1,9,3.862500,-0.866500,0.737500,-0.866500,0.737500,-0.450000,-0.737500,-0.450000,-0.737500,0.450000,0.737500,0.450000,0.737500,0.866500,3.862500,0.866500,3.862500,-0.866500,3.862500,-0.866500,$1*%
G04 Aperture macros list end*
%TA.AperFunction,SMDPad,CuDef*%
%ADD10RoundRect,0.150000X-0.825000X-0.150000X0.825000X-0.150000X0.825000X0.150000X-0.825000X0.150000X0*%
%TD*%
%TA.AperFunction,SMDPad,CuDef*%
%ADD11RoundRect,0.200000X-0.200000X-0.275000X0.200000X-0.275000X0.200000X0.275000X-0.200000X0.275000X0*%
%TD*%
%TA.AperFunction,ComponentPad*%
%ADD12C,1.440000*%
%TD*%
%TA.AperFunction,ComponentPad*%
%ADD13O,3.240000X2.720000*%
%TD*%
%TA.AperFunction,ComponentPad*%
%ADD14R,1.800000X1.800000*%
%TD*%
%TA.AperFunction,ComponentPad*%
%ADD15C,1.800000*%
%TD*%
%TA.AperFunction,SMDPad,CuDef*%
%ADD16RoundRect,0.225000X-0.225000X-0.250000X0.225000X-0.250000X0.225000X0.250000X-0.225000X0.250000X0*%
%TD*%
%TA.AperFunction,SMDPad,CuDef*%
%ADD17RoundRect,0.150000X-0.725000X-0.150000X0.725000X-0.150000X0.725000X0.150000X-0.725000X0.150000X0*%
%TD*%
%TA.AperFunction,ComponentPad*%
%ADD18R,2.500000X1.000000*%
%TD*%
%TA.AperFunction,SMDPad,CuDef*%
%ADD19RoundRect,0.150000X-0.587500X-0.150000X0.587500X-0.150000X0.587500X0.150000X-0.587500X0.150000X0*%
%TD*%
%TA.AperFunction,ComponentPad*%
%ADD20R,1.600000X1.600000*%
%TD*%
%TA.AperFunction,ComponentPad*%
%ADD21C,1.600000*%
%TD*%
%TA.AperFunction,ComponentPad*%
%ADD22C,2.000000*%
%TD*%
%TA.AperFunction,SMDPad,CuDef*%
%ADD23R,0.900000X1.200000*%
%TD*%
%TA.AperFunction,SMDPad,CuDef*%
%ADD24R,1.300000X0.900000*%
%TD*%
%TA.AperFunction,SMDPad,CuDef*%
%ADD25FreePoly0,0.000000*%
%TD*%
%TA.AperFunction,ComponentPad*%
%ADD26R,1.700000X1.700000*%
%TD*%
%TA.AperFunction,ComponentPad*%
%ADD27O,1.700000X1.700000*%
%TD*%
G04 APERTURE END LIST*
D10*
%TO.P,U1,1*%
%TO.N,Net-(R22-Pad2)*%
X103795000Y-106195000D03*
%TO.P,U1,2,-*%
%TO.N,Net-(R20-Pad2)*%
X103795000Y-107465000D03*
%TO.P,U1,3,+*%
%TO.N,TRI_OUT*%
X103795000Y-108735000D03*
%TO.P,U1,4,V-*%
%TO.N,-12VA*%
X103795000Y-110005000D03*
%TO.P,U1,5,+*%
%TO.N,Net-(R31-Pad2)*%
X108745000Y-110005000D03*
%TO.P,U1,6,-*%
%TO.N,Net-(R24-Pad2)*%
X108745000Y-108735000D03*
%TO.P,U1,7*%
%TO.N,Net-(R40-Pad2)*%
X108745000Y-107465000D03*
%TO.P,U1,8,V+*%
%TO.N,+12VA*%
X108745000Y-106195000D03*
%TD*%
D11*
%TO.P,R33,1*%
%TO.N,Net-(C14-Pad1)*%
X104115000Y-120430000D03*
%TO.P,R33,2*%
%TO.N,GND*%
X105765000Y-120430000D03*
%TD*%
%TO.P,R19,1*%
%TO.N,PULSE_OUT*%
X116215000Y-114400000D03*
%TO.P,R19,2*%
%TO.N,PWM_IN*%
X117865000Y-114400000D03*
%TD*%
D12*
%TO.P,RV6,1,1*%
%TO.N,Net-(R15-Pad1)*%
X100020000Y-115040000D03*
%TO.P,RV6,2,2*%
%TO.N,-5VA*%
X97480000Y-115040000D03*
%TO.P,RV6,3,3*%
X94940000Y-115040000D03*
%TD*%
D13*
%TO.P,RV1,*%
%TO.N,*%
X76120000Y-99540000D03*
X76120000Y-109140000D03*
D14*
%TO.P,RV1,1,1*%
%TO.N,Net-(J1-Pad3)*%
X68620000Y-101840000D03*
D15*
%TO.P,RV1,2,2*%
%TO.N,Net-(RV1-Pad2)*%
X68620000Y-104340000D03*
%TO.P,RV1,3,3*%
%TO.N,GND*%
X68620000Y-106840000D03*
%TD*%
D16*
%TO.P,C12,1*%
%TO.N,GND*%
X92135000Y-122030000D03*
%TO.P,C12,2*%
%TO.N,-5VA*%
X93685000Y-122030000D03*
%TD*%
D11*
%TO.P,R27,1*%
%TO.N,SAW_OUT*%
X128595000Y-99610000D03*
%TO.P,R27,2*%
%TO.N,Net-(R27-Pad2)*%
X130245000Y-99610000D03*
%TD*%
%TO.P,R15,1*%
%TO.N,Net-(R15-Pad1)*%
X124465000Y-100640000D03*
%TO.P,R15,2*%
%TO.N,Net-(R15-Pad2)*%
X126115000Y-100640000D03*
%TD*%
D10*
%TO.P,U2,1*%
%TO.N,Net-(C14-Pad2)*%
X139895000Y-70985000D03*
%TO.P,U2,2,-*%
%TO.N,Net-(C14-Pad1)*%
X139895000Y-72255000D03*
%TO.P,U2,3,+*%
%TO.N,Net-(R27-Pad2)*%
X139895000Y-73525000D03*
%TO.P,U2,4,V-*%
%TO.N,-12VA*%
X139895000Y-74795000D03*
%TO.P,U2,5,+*%
%TO.N,Net-(R28-Pad2)*%
X144845000Y-74795000D03*
%TO.P,U2,6,-*%
%TO.N,Net-(C15-Pad1)*%
X144845000Y-73525000D03*
%TO.P,U2,7*%
%TO.N,Net-(C15-Pad2)*%
X144845000Y-72255000D03*
%TO.P,U2,8,V+*%
%TO.N,+12VA*%
X144845000Y-70985000D03*
%TD*%
D17*
%TO.P,U3,1,SCALE1*%
%TO.N,Net-(R15-Pad2)*%
X68595000Y-112555000D03*
%TO.P,U3,2,SCALE2*%
%TO.N,Net-(R16-Pad2)*%
X68595000Y-113825000D03*
%TO.P,U3,3,VEE*%
%TO.N,-5VA*%
X68595000Y-115095000D03*
%TO.P,U3,4,VP*%
%TO.N,PULSE_OUT*%
X68595000Y-116365000D03*
%TO.P,U3,5,VPWM*%
%TO.N,PWM_IN*%
X68595000Y-117635000D03*
%TO.P,U3,6,VHSI*%
%TO.N,H_SYNC*%
X68595000Y-118905000D03*
%TO.P,U3,7,VHFT*%
%TO.N,Net-(RV5-Pad1)*%
X68595000Y-120175000D03*
%TO.P,U3,8,VSO*%
%TO.N,SAW_OUT*%
X68595000Y-121445000D03*
%TO.P,U3,9,VSSI*%
%TO.N,S_SYNC*%
X73745000Y-121445000D03*
%TO.P,U3,10,VTO*%
%TO.N,TRI_OUT*%
X73745000Y-120175000D03*
%TO.P,U3,11,CAP*%
%TO.N,Net-(C4-Pad1)*%
X73745000Y-118905000D03*
%TO.P,U3,12,GND*%
%TO.N,GND*%
X73745000Y-117635000D03*
%TO.P,U3,13,VLFI*%
%TO.N,Net-(R1-Pad1)*%
X73745000Y-116365000D03*
%TO.P,U3,14,VS*%
%TO.N,Net-(R18-Pad1)*%
X73745000Y-115095000D03*
%TO.P,U3,15,VFCI*%
%TO.N,Net-(R10-Pad2)*%
X73745000Y-113825000D03*
%TO.P,U3,16,VCC*%
%TO.N,+12VA*%
X73745000Y-112555000D03*
%TD*%
D11*
%TO.P,R23,1*%
%TO.N,GND*%
X145835000Y-79880000D03*
%TO.P,R23,2*%
%TO.N,Net-(R23-Pad2)*%
X147485000Y-79880000D03*
%TD*%
D13*
%TO.P,RV3,*%
%TO.N,*%
X76120000Y-85670000D03*
X76120000Y-95270000D03*
D14*
%TO.P,RV3,1,1*%
%TO.N,+5VA*%
X68620000Y-87970000D03*
D15*
%TO.P,RV3,2,2*%
%TO.N,Net-(R12-Pad1)*%
X68620000Y-90470000D03*
%TO.P,RV3,3,3*%
%TO.N,GND*%
X68620000Y-92970000D03*
%TD*%
D11*
%TO.P,R16,1*%
%TO.N,-5VA*%
X134745000Y-89610000D03*
%TO.P,R16,2*%
%TO.N,Net-(R16-Pad2)*%
X136395000Y-89610000D03*
%TD*%
%TO.P,R7,1*%
%TO.N,Net-(R7-Pad1)*%
X138755000Y-91350000D03*
%TO.P,R7,2*%
%TO.N,Net-(D1-Pad1)*%
X140405000Y-91350000D03*
%TD*%
D18*
%TO.P,J6,1*%
%TO.N,GND*%
X104170000Y-96770000D03*
%TO.P,J6,2*%
%TO.N,unconnected-(J6-Pad2)*%
X104170000Y-93670000D03*
%TO.P,J6,3*%
%TO.N,Net-(J6-Pad3)*%
X104170000Y-85370000D03*
%TD*%
D19*
%TO.P,Q1,1,B*%
%TO.N,Net-(R23-Pad2)*%
X128602500Y-62550000D03*
%TO.P,Q1,2,E*%
%TO.N,Net-(R25-Pad1)*%
X128602500Y-64450000D03*
%TO.P,Q1,3,C*%
%TO.N,Net-(R24-Pad2)*%
X130477500Y-63500000D03*
%TD*%
D16*
%TO.P,C6,1*%
%TO.N,+12VA*%
X124635000Y-98130000D03*
%TO.P,C6,2*%
%TO.N,GND*%
X126185000Y-98130000D03*
%TD*%
%TO.P,C5,1*%
%TO.N,Net-(C5-Pad1)*%
X130785000Y-89610000D03*
%TO.P,C5,2*%
%TO.N,GND*%
X132335000Y-89610000D03*
%TD*%
D11*
%TO.P,R28,1*%
%TO.N,PULSE_OUT*%
X140345000Y-83160000D03*
%TO.P,R28,2*%
%TO.N,Net-(R28-Pad2)*%
X141995000Y-83160000D03*
%TD*%
D20*
%TO.P,C11,1*%
%TO.N,+12VA*%
X114105241Y-101690000D03*
D21*
%TO.P,C11,2*%
%TO.N,GND*%
X116605241Y-101690000D03*
%TD*%
D11*
%TO.P,R30,1*%
%TO.N,GND*%
X96095000Y-122030000D03*
%TO.P,R30,2*%
%TO.N,Net-(R28-Pad2)*%
X97745000Y-122030000D03*
%TD*%
D16*
%TO.P,C3,1*%
%TO.N,Net-(C3-Pad1)*%
X116265000Y-111890000D03*
%TO.P,C3,2*%
%TO.N,GND*%
X117815000Y-111890000D03*
%TD*%
D11*
%TO.P,R26,1*%
%TO.N,-12VA*%
X87725000Y-116150000D03*
%TO.P,R26,2*%
%TO.N,Net-(R26-Pad2)*%
X89375000Y-116150000D03*
%TD*%
D12*
%TO.P,RV8,1,1*%
%TO.N,Net-(R25-Pad2)*%
X135120000Y-72890000D03*
%TO.P,RV8,2,2*%
%TO.N,Net-(R26-Pad2)*%
X132580000Y-72890000D03*
%TO.P,RV8,3,3*%
%TO.N,Net-(R25-Pad1)*%
X130040000Y-72890000D03*
%TD*%
D16*
%TO.P,C15,1*%
%TO.N,Net-(C15-Pad1)*%
X88125000Y-121170000D03*
%TO.P,C15,2*%
%TO.N,Net-(C15-Pad2)*%
X89675000Y-121170000D03*
%TD*%
D18*
%TO.P,J8,1*%
%TO.N,GND*%
X86820000Y-111390000D03*
%TO.P,J8,2*%
%TO.N,unconnected-(J8-Pad2)*%
X86820000Y-108290000D03*
%TO.P,J8,3*%
%TO.N,Net-(J8-Pad3)*%
X86820000Y-99990000D03*
%TD*%
D12*
%TO.P,RV7,1,1*%
%TO.N,Net-(R22-Pad2)*%
X135120000Y-79340000D03*
%TO.P,RV7,2,2*%
X132580000Y-79340000D03*
%TO.P,RV7,3,3*%
%TO.N,Net-(R23-Pad2)*%
X130040000Y-79340000D03*
%TD*%
D22*
%TO.P,SW2,1,A*%
%TO.N,Net-(R7-Pad1)*%
X121480000Y-87275000D03*
%TO.P,SW2,2,B*%
%TO.N,Net-(C1-Pad2)*%
X124020000Y-87275000D03*
%TO.P,SW2,3,C*%
%TO.N,S_SYNC*%
X126560000Y-87275000D03*
%TD*%
D11*
%TO.P,R32,1*%
%TO.N,+12VA*%
X88075000Y-118660000D03*
%TO.P,R32,2*%
%TO.N,Net-(C14-Pad1)*%
X89725000Y-118660000D03*
%TD*%
%TO.P,R11,1*%
%TO.N,Net-(J2-Pad3)*%
X128475000Y-102120000D03*
%TO.P,R11,2*%
%TO.N,Net-(R10-Pad2)*%
X130125000Y-102120000D03*
%TD*%
D16*
%TO.P,C9,1*%
%TO.N,+12VA*%
X140395000Y-85670000D03*
%TO.P,C9,2*%
%TO.N,-12VA*%
X141945000Y-85670000D03*
%TD*%
D11*
%TO.P,R17,1*%
%TO.N,Net-(R10-Pad2)*%
X115685000Y-109380000D03*
%TO.P,R17,2*%
%TO.N,Net-(C5-Pad1)*%
X117335000Y-109380000D03*
%TD*%
D18*
%TO.P,J2,1*%
%TO.N,GND*%
X111770000Y-82720000D03*
%TO.P,J2,2*%
%TO.N,unconnected-(J2-Pad2)*%
X111770000Y-79620000D03*
%TO.P,J2,3*%
%TO.N,Net-(J2-Pad3)*%
X111770000Y-71320000D03*
%TD*%
D11*
%TO.P,R40,1*%
%TO.N,Net-(R24-Pad2)*%
X145835000Y-77370000D03*
%TO.P,R40,2*%
%TO.N,Net-(R40-Pad2)*%
X147485000Y-77370000D03*
%TD*%
%TO.P,R14,1*%
%TO.N,Net-(D1-Pad1)*%
X153925000Y-75940000D03*
%TO.P,R14,2*%
%TO.N,GND*%
X155575000Y-75940000D03*
%TD*%
%TO.P,R41,1*%
%TO.N,Net-(R22-Pad2)*%
X120455000Y-100640000D03*
%TO.P,R41,2*%
%TO.N,Net-(J6-Pad3)*%
X122105000Y-100640000D03*
%TD*%
%TO.P,R18,1*%
%TO.N,Net-(R18-Pad1)*%
X128595000Y-97100000D03*
%TO.P,R18,2*%
%TO.N,GND*%
X130245000Y-97100000D03*
%TD*%
D13*
%TO.P,RV4,*%
%TO.N,*%
X90920000Y-81400000D03*
X90920000Y-71800000D03*
D14*
%TO.P,RV4,1,1*%
%TO.N,+5VA*%
X83420000Y-74100000D03*
D15*
%TO.P,RV4,2,2*%
%TO.N,Net-(R13-Pad1)*%
X83420000Y-76600000D03*
%TO.P,RV4,3,3*%
%TO.N,GND*%
X83420000Y-79100000D03*
%TD*%
D11*
%TO.P,R2,1*%
%TO.N,Net-(R2-Pad1)*%
X126725000Y-94590000D03*
%TO.P,R2,2*%
%TO.N,PWM_IN*%
X128375000Y-94590000D03*
%TD*%
D18*
%TO.P,J4,1*%
%TO.N,GND*%
X96970000Y-110820000D03*
%TO.P,J4,2*%
%TO.N,unconnected-(J4-Pad2)*%
X96970000Y-107720000D03*
%TO.P,J4,3*%
%TO.N,Net-(C1-Pad1)*%
X96970000Y-99420000D03*
%TD*%
D11*
%TO.P,R9,1*%
%TO.N,+5VA*%
X132605000Y-97140000D03*
%TO.P,R9,2*%
%TO.N,Net-(R10-Pad2)*%
X134255000Y-97140000D03*
%TD*%
D18*
%TO.P,J7,1*%
%TO.N,GND*%
X114320000Y-96770000D03*
%TO.P,J7,2*%
%TO.N,unconnected-(J7-Pad2)*%
X114320000Y-93670000D03*
%TO.P,J7,3*%
%TO.N,Net-(J7-Pad3)*%
X114320000Y-85370000D03*
%TD*%
D11*
%TO.P,R6,1*%
%TO.N,PWM_IN*%
X120575000Y-98130000D03*
%TO.P,R6,2*%
%TO.N,GND*%
X122225000Y-98130000D03*
%TD*%
%TO.P,R39,1*%
%TO.N,Net-(C15-Pad2)*%
X138755000Y-88840000D03*
%TO.P,R39,2*%
%TO.N,Net-(C15-Pad1)*%
X140405000Y-88840000D03*
%TD*%
D16*
%TO.P,C8,1*%
%TO.N,+12VA*%
X124515000Y-105660000D03*
%TO.P,C8,2*%
%TO.N,-12VA*%
X126065000Y-105660000D03*
%TD*%
D11*
%TO.P,R21,1*%
%TO.N,Net-(R20-Pad2)*%
X134745000Y-92120000D03*
%TO.P,R21,2*%
%TO.N,GND*%
X136395000Y-92120000D03*
%TD*%
D22*
%TO.P,SW1,1,A*%
%TO.N,Net-(C2-Pad2)*%
X104130000Y-101325000D03*
%TO.P,SW1,2,B*%
%TO.N,Net-(RV1-Pad2)*%
X106670000Y-101325000D03*
%TO.P,SW1,3,C*%
%TO.N,Net-(R10-Pad1)*%
X109210000Y-101325000D03*
%TD*%
D11*
%TO.P,R25,1*%
%TO.N,Net-(R25-Pad1)*%
X153925000Y-73430000D03*
%TO.P,R25,2*%
%TO.N,Net-(R25-Pad2)*%
X155575000Y-73430000D03*
%TD*%
%TO.P,R43,1*%
%TO.N,Net-(C14-Pad2)*%
X115685000Y-106870000D03*
%TO.P,R43,2*%
%TO.N,Net-(J8-Pad3)*%
X117335000Y-106870000D03*
%TD*%
%TO.P,R12,1*%
%TO.N,Net-(R12-Pad1)*%
X112205000Y-114400000D03*
%TO.P,R12,2*%
%TO.N,Net-(R10-Pad2)*%
X113855000Y-114400000D03*
%TD*%
D16*
%TO.P,C7,1*%
%TO.N,-5VA*%
X120505000Y-103150000D03*
%TO.P,C7,2*%
%TO.N,GND*%
X122055000Y-103150000D03*
%TD*%
D18*
%TO.P,J1,1*%
%TO.N,GND*%
X94020000Y-96770000D03*
%TO.P,J1,2*%
%TO.N,unconnected-(J1-Pad2)*%
X94020000Y-93670000D03*
%TO.P,J1,3*%
%TO.N,Net-(J1-Pad3)*%
X94020000Y-85370000D03*
%TD*%
D20*
%TO.P,C13,1*%
%TO.N,GND*%
X105855241Y-115250000D03*
D21*
%TO.P,C13,2*%
%TO.N,-12VA*%
X108355241Y-115250000D03*
%TD*%
D11*
%TO.P,R8,1*%
%TO.N,Net-(R8-Pad1)*%
X96095000Y-119520000D03*
%TO.P,R8,2*%
%TO.N,Net-(R10-Pad2)*%
X97745000Y-119520000D03*
%TD*%
%TO.P,R22,1*%
%TO.N,GND*%
X111675000Y-106870000D03*
%TO.P,R22,2*%
%TO.N,Net-(R22-Pad2)*%
X113325000Y-106870000D03*
%TD*%
D16*
%TO.P,C4,1*%
%TO.N,Net-(C4-Pad1)*%
X153975000Y-70920000D03*
%TO.P,C4,2*%
%TO.N,GND*%
X155525000Y-70920000D03*
%TD*%
D11*
%TO.P,R38,1*%
%TO.N,Net-(C14-Pad2)*%
X119695000Y-108170000D03*
%TO.P,R38,2*%
%TO.N,Net-(C14-Pad1)*%
X121345000Y-108170000D03*
%TD*%
%TO.P,R37,1*%
%TO.N,GND*%
X144355000Y-83160000D03*
%TO.P,R37,2*%
%TO.N,Net-(R31-Pad2)*%
X146005000Y-83160000D03*
%TD*%
%TO.P,R4,1*%
%TO.N,Net-(R1-Pad1)*%
X92085000Y-119520000D03*
%TO.P,R4,2*%
%TO.N,Net-(C3-Pad1)*%
X93735000Y-119520000D03*
%TD*%
D12*
%TO.P,RV5,1,1*%
%TO.N,Net-(RV5-Pad1)*%
X83520000Y-115610000D03*
%TO.P,RV5,2,2*%
%TO.N,Net-(R8-Pad1)*%
X80980000Y-115610000D03*
%TO.P,RV5,3,3*%
%TO.N,GND*%
X78440000Y-115610000D03*
%TD*%
D23*
%TO.P,D1,1,K*%
%TO.N,Net-(D1-Pad1)*%
X76620000Y-120510000D03*
%TO.P,D1,2,A*%
%TO.N,H_SYNC*%
X79920000Y-120510000D03*
%TD*%
D11*
%TO.P,R35,1*%
%TO.N,Net-(C15-Pad1)*%
X126725000Y-92080000D03*
%TO.P,R35,2*%
%TO.N,GND*%
X128375000Y-92080000D03*
%TD*%
%TO.P,R29,1*%
%TO.N,GND*%
X120225000Y-110680000D03*
%TO.P,R29,2*%
%TO.N,Net-(R27-Pad2)*%
X121875000Y-110680000D03*
%TD*%
D24*
%TO.P,U5,1,GND*%
%TO.N,GND*%
X148020000Y-71190000D03*
D25*
%TO.P,U5,2,VI*%
%TO.N,-12VA*%
X148107500Y-72690000D03*
D24*
%TO.P,U5,3,VO*%
%TO.N,-5VA*%
X148020000Y-74190000D03*
%TD*%
D11*
%TO.P,R31,1*%
%TO.N,+12VA*%
X136335000Y-86330000D03*
%TO.P,R31,2*%
%TO.N,Net-(R31-Pad2)*%
X137985000Y-86330000D03*
%TD*%
D19*
%TO.P,Q2,1,B*%
%TO.N,Net-(R36-Pad2)*%
X123712500Y-62550000D03*
%TO.P,Q2,2,E*%
%TO.N,Net-(R25-Pad2)*%
X123712500Y-64450000D03*
%TO.P,Q2,3,C*%
%TO.N,Net-(R31-Pad2)*%
X125587500Y-63500000D03*
%TD*%
D26*
%TO.P,J5,1,Pin_1*%
%TO.N,-12VA*%
X84070000Y-85860000D03*
D27*
%TO.P,J5,2,Pin_2*%
X86610000Y-85860000D03*
%TO.P,J5,3,Pin_3*%
%TO.N,GND*%
X84070000Y-88400000D03*
%TO.P,J5,4,Pin_4*%
X86610000Y-88400000D03*
%TO.P,J5,5,Pin_5*%
X84070000Y-90940000D03*
%TO.P,J5,6,Pin_6*%
X86610000Y-90940000D03*
%TO.P,J5,7,Pin_7*%
X84070000Y-93480000D03*
%TO.P,J5,8,Pin_8*%
X86610000Y-93480000D03*
%TO.P,J5,9,Pin_9*%
%TO.N,+12VA*%
X84070000Y-96020000D03*
%TO.P,J5,10,Pin_10*%
X86610000Y-96020000D03*
%TD*%
D23*
%TO.P,D2,1,K*%
%TO.N,-5VA*%
X82370000Y-120510000D03*
%TO.P,D2,2,A*%
%TO.N,-12VA*%
X85670000Y-120510000D03*
%TD*%
D16*
%TO.P,C2,1*%
%TO.N,Net-(C2-Pad1)*%
X108175000Y-120430000D03*
%TO.P,C2,2*%
%TO.N,Net-(C2-Pad2)*%
X109725000Y-120430000D03*
%TD*%
%TO.P,C10,1*%
%TO.N,+5VA*%
X132655000Y-94630000D03*
%TO.P,C10,2*%
%TO.N,GND*%
X134205000Y-94630000D03*
%TD*%
D11*
%TO.P,R5,1*%
%TO.N,+5VA*%
X130735000Y-92120000D03*
%TO.P,R5,2*%
%TO.N,PWM_IN*%
X132385000Y-92120000D03*
%TD*%
D16*
%TO.P,C1,1*%
%TO.N,Net-(C1-Pad1)*%
X136385000Y-83820000D03*
%TO.P,C1,2*%
%TO.N,Net-(C1-Pad2)*%
X137935000Y-83820000D03*
%TD*%
D24*
%TO.P,U4,1,OUT*%
%TO.N,+5VA*%
X120820000Y-92350000D03*
D25*
%TO.P,U4,2,GND*%
%TO.N,GND*%
X120907500Y-93850000D03*
D24*
%TO.P,U4,3,IN*%
%TO.N,+12VA*%
X120820000Y-95350000D03*
%TD*%
D11*
%TO.P,R1,1*%
%TO.N,Net-(R1-Pad1)*%
X124465000Y-103150000D03*
%TO.P,R1,2*%
%TO.N,Net-(C2-Pad1)*%
X126115000Y-103150000D03*
%TD*%
%TO.P,R44,1*%
%TO.N,Net-(C15-Pad2)*%
X120455000Y-105660000D03*
%TO.P,R44,2*%
%TO.N,Net-(J9-Pad3)*%
X122105000Y-105660000D03*
%TD*%
%TO.P,R24,1*%
%TO.N,+12VA*%
X100105000Y-120430000D03*
%TO.P,R24,2*%
%TO.N,Net-(R24-Pad2)*%
X101755000Y-120430000D03*
%TD*%
%TO.P,R20,1*%
%TO.N,+12VA*%
X144355000Y-85670000D03*
%TO.P,R20,2*%
%TO.N,Net-(R20-Pad2)*%
X146005000Y-85670000D03*
%TD*%
%TO.P,R42,1*%
%TO.N,Net-(R40-Pad2)*%
X149845000Y-76970000D03*
%TO.P,R42,2*%
%TO.N,Net-(J7-Pad3)*%
X151495000Y-76970000D03*
%TD*%
D18*
%TO.P,J3,1*%
%TO.N,GND*%
X121920000Y-82720000D03*
%TO.P,J3,2*%
%TO.N,+5VA*%
X121920000Y-79620000D03*
%TO.P,J3,3*%
%TO.N,Net-(J3-Pad3)*%
X121920000Y-71320000D03*
%TD*%
D11*
%TO.P,R36,1*%
%TO.N,GND*%
X112205000Y-116910000D03*
%TO.P,R36,2*%
%TO.N,Net-(R36-Pad2)*%
X113855000Y-116910000D03*
%TD*%
D16*
%TO.P,C14,1*%
%TO.N,Net-(C14-Pad1)*%
X112255000Y-111890000D03*
%TO.P,C14,2*%
%TO.N,Net-(C14-Pad2)*%
X113805000Y-111890000D03*
%TD*%
D11*
%TO.P,R13,1*%
%TO.N,Net-(R13-Pad1)*%
X157935000Y-70920000D03*
%TO.P,R13,2*%
%TO.N,Net-(R10-Pad2)*%
X159585000Y-70920000D03*
%TD*%
%TO.P,R3,1*%
%TO.N,+12VA*%
X111675000Y-109380000D03*
%TO.P,R3,2*%
%TO.N,Net-(R1-Pad1)*%
X113325000Y-109380000D03*
%TD*%
D18*
%TO.P,J9,1*%
%TO.N,GND*%
X101620000Y-82720000D03*
%TO.P,J9,2*%
%TO.N,unconnected-(J9-Pad2)*%
X101620000Y-79620000D03*
%TO.P,J9,3*%
%TO.N,Net-(J9-Pad3)*%
X101620000Y-71320000D03*
%TD*%
D11*
%TO.P,R10,1*%
%TO.N,Net-(R10-Pad1)*%
X149845000Y-79480000D03*
%TO.P,R10,2*%
%TO.N,Net-(R10-Pad2)*%
X151495000Y-79480000D03*
%TD*%
%TO.P,R34,1*%
%TO.N,+12VA*%
X87725000Y-113640000D03*
%TO.P,R34,2*%
%TO.N,Net-(C15-Pad1)*%
X89375000Y-113640000D03*
%TD*%
D13*
%TO.P,RV2,*%
%TO.N,*%
X76120000Y-81400000D03*
X76120000Y-71800000D03*
D14*
%TO.P,RV2,1,1*%
%TO.N,Net-(J3-Pad3)*%
X68620000Y-74100000D03*
D15*
%TO.P,RV2,2,2*%
%TO.N,Net-(R2-Pad1)*%
X68620000Y-76600000D03*
%TO.P,RV2,3,3*%
%TO.N,GND*%
X68620000Y-79100000D03*
%TD*%
M02*
