%TF.GenerationSoftware,KiCad,Pcbnew,(6.0.9)*%
%TF.CreationDate,2022-12-23T01:27:24-06:00*%
%TF.ProjectId,CEM3340 VCO,43454d33-3334-4302-9056-434f2e6b6963,rev?*%
%TF.SameCoordinates,Original*%
%TF.FileFunction,Paste,Top*%
%TF.FilePolarity,Positive*%
%FSLAX46Y46*%
G04 Gerber Fmt 4.6, Leading zero omitted, Abs format (unit mm)*
G04 Created by KiCad (PCBNEW (6.0.9)) date 2022-12-23 01:27:24*
%MOMM*%
%LPD*%
G01*
G04 APERTURE LIST*
G04 Aperture macros list*
%AMRoundRect*
0 Rectangle with rounded corners*
0 $1 Rounding radius*
0 $2 $3 $4 $5 $6 $7 $8 $9 X,Y pos of 4 corners*
0 Add a 4 corners polygon primitive as box body*
4,1,4,$2,$3,$4,$5,$6,$7,$8,$9,$2,$3,0*
0 Add four circle primitives for the rounded corners*
1,1,$1+$1,$2,$3*
1,1,$1+$1,$4,$5*
1,1,$1+$1,$6,$7*
1,1,$1+$1,$8,$9*
0 Add four rect primitives between the rounded corners*
20,1,$1+$1,$2,$3,$4,$5,0*
20,1,$1+$1,$4,$5,$6,$7,0*
20,1,$1+$1,$6,$7,$8,$9,0*
20,1,$1+$1,$8,$9,$2,$3,0*%
%AMFreePoly0*
4,1,9,3.862500,-0.866500,0.737500,-0.866500,0.737500,-0.450000,-0.737500,-0.450000,-0.737500,0.450000,0.737500,0.450000,0.737500,0.866500,3.862500,0.866500,3.862500,-0.866500,3.862500,-0.866500,$1*%
G04 Aperture macros list end*
%ADD10RoundRect,0.150000X-0.825000X-0.150000X0.825000X-0.150000X0.825000X0.150000X-0.825000X0.150000X0*%
%ADD11RoundRect,0.200000X-0.200000X-0.275000X0.200000X-0.275000X0.200000X0.275000X-0.200000X0.275000X0*%
%ADD12RoundRect,0.225000X-0.225000X-0.250000X0.225000X-0.250000X0.225000X0.250000X-0.225000X0.250000X0*%
%ADD13RoundRect,0.150000X-0.725000X-0.150000X0.725000X-0.150000X0.725000X0.150000X-0.725000X0.150000X0*%
%ADD14RoundRect,0.150000X-0.587500X-0.150000X0.587500X-0.150000X0.587500X0.150000X-0.587500X0.150000X0*%
%ADD15R,0.900000X1.200000*%
%ADD16R,1.300000X0.900000*%
%ADD17FreePoly0,0.000000*%
G04 APERTURE END LIST*
D10*
%TO.C,U1*%
X103795000Y-106195000D03*
X103795000Y-107465000D03*
X103795000Y-108735000D03*
X103795000Y-110005000D03*
X108745000Y-110005000D03*
X108745000Y-108735000D03*
X108745000Y-107465000D03*
X108745000Y-106195000D03*
%TD*%
D11*
%TO.C,R33*%
X104115000Y-120430000D03*
X105765000Y-120430000D03*
%TD*%
%TO.C,R19*%
X116215000Y-114400000D03*
X117865000Y-114400000D03*
%TD*%
D12*
%TO.C,C12*%
X92135000Y-122030000D03*
X93685000Y-122030000D03*
%TD*%
D11*
%TO.C,R27*%
X128595000Y-99610000D03*
X130245000Y-99610000D03*
%TD*%
%TO.C,R15*%
X124465000Y-100640000D03*
X126115000Y-100640000D03*
%TD*%
D10*
%TO.C,U2*%
X139895000Y-70985000D03*
X139895000Y-72255000D03*
X139895000Y-73525000D03*
X139895000Y-74795000D03*
X144845000Y-74795000D03*
X144845000Y-73525000D03*
X144845000Y-72255000D03*
X144845000Y-70985000D03*
%TD*%
D13*
%TO.C,U3*%
X68595000Y-112555000D03*
X68595000Y-113825000D03*
X68595000Y-115095000D03*
X68595000Y-116365000D03*
X68595000Y-117635000D03*
X68595000Y-118905000D03*
X68595000Y-120175000D03*
X68595000Y-121445000D03*
X73745000Y-121445000D03*
X73745000Y-120175000D03*
X73745000Y-118905000D03*
X73745000Y-117635000D03*
X73745000Y-116365000D03*
X73745000Y-115095000D03*
X73745000Y-113825000D03*
X73745000Y-112555000D03*
%TD*%
D11*
%TO.C,R23*%
X145835000Y-79880000D03*
X147485000Y-79880000D03*
%TD*%
%TO.C,R16*%
X134745000Y-89610000D03*
X136395000Y-89610000D03*
%TD*%
%TO.C,R7*%
X138755000Y-91350000D03*
X140405000Y-91350000D03*
%TD*%
D14*
%TO.C,Q1*%
X128602500Y-62550000D03*
X128602500Y-64450000D03*
X130477500Y-63500000D03*
%TD*%
D12*
%TO.C,C6*%
X124635000Y-98130000D03*
X126185000Y-98130000D03*
%TD*%
%TO.C,C5*%
X130785000Y-89610000D03*
X132335000Y-89610000D03*
%TD*%
D11*
%TO.C,R28*%
X140345000Y-83160000D03*
X141995000Y-83160000D03*
%TD*%
%TO.C,R30*%
X96095000Y-122030000D03*
X97745000Y-122030000D03*
%TD*%
D12*
%TO.C,C3*%
X116265000Y-111890000D03*
X117815000Y-111890000D03*
%TD*%
D11*
%TO.C,R26*%
X87725000Y-116150000D03*
X89375000Y-116150000D03*
%TD*%
D12*
%TO.C,C15*%
X88125000Y-121170000D03*
X89675000Y-121170000D03*
%TD*%
D11*
%TO.C,R32*%
X88075000Y-118660000D03*
X89725000Y-118660000D03*
%TD*%
%TO.C,R11*%
X128475000Y-102120000D03*
X130125000Y-102120000D03*
%TD*%
D12*
%TO.C,C9*%
X140395000Y-85670000D03*
X141945000Y-85670000D03*
%TD*%
D11*
%TO.C,R17*%
X115685000Y-109380000D03*
X117335000Y-109380000D03*
%TD*%
%TO.C,R40*%
X145835000Y-77370000D03*
X147485000Y-77370000D03*
%TD*%
%TO.C,R14*%
X153925000Y-75940000D03*
X155575000Y-75940000D03*
%TD*%
%TO.C,R41*%
X120455000Y-100640000D03*
X122105000Y-100640000D03*
%TD*%
%TO.C,R18*%
X128595000Y-97100000D03*
X130245000Y-97100000D03*
%TD*%
%TO.C,R2*%
X126725000Y-94590000D03*
X128375000Y-94590000D03*
%TD*%
%TO.C,R9*%
X132605000Y-97140000D03*
X134255000Y-97140000D03*
%TD*%
%TO.C,R6*%
X120575000Y-98130000D03*
X122225000Y-98130000D03*
%TD*%
%TO.C,R39*%
X138755000Y-88840000D03*
X140405000Y-88840000D03*
%TD*%
D12*
%TO.C,C8*%
X124515000Y-105660000D03*
X126065000Y-105660000D03*
%TD*%
D11*
%TO.C,R21*%
X134745000Y-92120000D03*
X136395000Y-92120000D03*
%TD*%
%TO.C,R25*%
X153925000Y-73430000D03*
X155575000Y-73430000D03*
%TD*%
%TO.C,R43*%
X115685000Y-106870000D03*
X117335000Y-106870000D03*
%TD*%
%TO.C,R12*%
X112205000Y-114400000D03*
X113855000Y-114400000D03*
%TD*%
D12*
%TO.C,C7*%
X120505000Y-103150000D03*
X122055000Y-103150000D03*
%TD*%
D11*
%TO.C,R8*%
X96095000Y-119520000D03*
X97745000Y-119520000D03*
%TD*%
%TO.C,R22*%
X111675000Y-106870000D03*
X113325000Y-106870000D03*
%TD*%
D12*
%TO.C,C4*%
X153975000Y-70920000D03*
X155525000Y-70920000D03*
%TD*%
D11*
%TO.C,R38*%
X119695000Y-108170000D03*
X121345000Y-108170000D03*
%TD*%
%TO.C,R37*%
X144355000Y-83160000D03*
X146005000Y-83160000D03*
%TD*%
%TO.C,R4*%
X92085000Y-119520000D03*
X93735000Y-119520000D03*
%TD*%
D15*
%TO.C,D1*%
X76620000Y-120510000D03*
X79920000Y-120510000D03*
%TD*%
D11*
%TO.C,R35*%
X126725000Y-92080000D03*
X128375000Y-92080000D03*
%TD*%
%TO.C,R29*%
X120225000Y-110680000D03*
X121875000Y-110680000D03*
%TD*%
D16*
%TO.C,U5*%
X148020000Y-71190000D03*
D17*
X148107500Y-72690000D03*
D16*
X148020000Y-74190000D03*
%TD*%
D11*
%TO.C,R31*%
X136335000Y-86330000D03*
X137985000Y-86330000D03*
%TD*%
D14*
%TO.C,Q2*%
X123712500Y-62550000D03*
X123712500Y-64450000D03*
X125587500Y-63500000D03*
%TD*%
D15*
%TO.C,D2*%
X82370000Y-120510000D03*
X85670000Y-120510000D03*
%TD*%
D12*
%TO.C,C2*%
X108175000Y-120430000D03*
X109725000Y-120430000D03*
%TD*%
%TO.C,C10*%
X132655000Y-94630000D03*
X134205000Y-94630000D03*
%TD*%
D11*
%TO.C,R5*%
X130735000Y-92120000D03*
X132385000Y-92120000D03*
%TD*%
D12*
%TO.C,C1*%
X136385000Y-83820000D03*
X137935000Y-83820000D03*
%TD*%
D16*
%TO.C,U4*%
X120820000Y-92350000D03*
D17*
X120907500Y-93850000D03*
D16*
X120820000Y-95350000D03*
%TD*%
D11*
%TO.C,R1*%
X124465000Y-103150000D03*
X126115000Y-103150000D03*
%TD*%
%TO.C,R44*%
X120455000Y-105660000D03*
X122105000Y-105660000D03*
%TD*%
%TO.C,R24*%
X100105000Y-120430000D03*
X101755000Y-120430000D03*
%TD*%
%TO.C,R20*%
X144355000Y-85670000D03*
X146005000Y-85670000D03*
%TD*%
%TO.C,R42*%
X149845000Y-76970000D03*
X151495000Y-76970000D03*
%TD*%
%TO.C,R36*%
X112205000Y-116910000D03*
X113855000Y-116910000D03*
%TD*%
D12*
%TO.C,C14*%
X112255000Y-111890000D03*
X113805000Y-111890000D03*
%TD*%
D11*
%TO.C,R13*%
X157935000Y-70920000D03*
X159585000Y-70920000D03*
%TD*%
%TO.C,R3*%
X111675000Y-109380000D03*
X113325000Y-109380000D03*
%TD*%
%TO.C,R10*%
X149845000Y-79480000D03*
X151495000Y-79480000D03*
%TD*%
%TO.C,R34*%
X87725000Y-113640000D03*
X89375000Y-113640000D03*
%TD*%
M02*
