M48
; DRILL file {KiCad (6.0.9)} date Fri Dec 23 01:27:24 2022
; FORMAT={-:-/ absolute / inch / decimal}
; #@! TF.CreationDate,2022-12-23T01:27:24-06:00
; #@! TF.GenerationSoftware,Kicad,Pcbnew,(6.0.9)
; #@! TF.FileFunction,Plated,1,2,PTH
FMAT,2
INCH
; #@! TA.AperFunction,Plated,PTH,ComponentDrill
T1C0.0197
; #@! TA.AperFunction,Plated,PTH,ComponentDrill
T2C0.0315
; #@! TA.AperFunction,Plated,PTH,ComponentDrill
T3C0.0394
; #@! TA.AperFunction,Plated,PTH,ComponentDrill
T4C0.0429
; #@! TA.AperFunction,Plated,PTH,ComponentDrill
T5C0.0433
%
G90
G05
T2
X3.0882Y-4.5516
X3.1882Y-4.5516
X3.2882Y-4.5516
X3.7378Y-4.5291
X3.8378Y-4.5291
X3.9378Y-4.5291
X4.1675Y-4.5374
X4.266Y-4.5374
X4.4923Y-4.0035
X4.5908Y-4.0035
X5.1197Y-2.8697
X5.1197Y-3.1236
X5.2197Y-2.8697
X5.2197Y-3.1236
X5.3197Y-2.8697
X5.3197Y-3.1236
T3
X2.7016Y-2.9173
X2.7016Y-3.0157
X2.7016Y-3.1142
X2.7016Y-3.4634
X2.7016Y-3.5618
X2.7016Y-3.6602
X2.7016Y-4.0094
X2.7016Y-4.1079
X2.7016Y-4.2063
X3.2843Y-2.9173
X3.2843Y-3.0157
X3.2843Y-3.1142
X3.3098Y-3.3803
X3.3098Y-3.4803
X3.3098Y-3.5803
X3.3098Y-3.6803
X3.3098Y-3.7803
X3.4098Y-3.3803
X3.4098Y-3.4803
X3.4098Y-3.5803
X3.4098Y-3.6803
X3.4098Y-3.7803
T4
X4.0996Y-3.9892
X4.1996Y-3.9892
X4.2996Y-3.9892
X4.7827Y-3.436
X4.8827Y-3.436
X4.9827Y-3.436
T1
G00X3.3984Y-3.9366
M15
G01X3.4378Y-3.9366
M16
G05
G00X3.3984Y-4.2634
M15
G01X3.4378Y-4.2634
M16
G05
G00X3.3984Y-4.3854
M15
G01X3.4378Y-4.3854
M16
G05
G00X3.6819Y-3.361
M15
G01X3.7213Y-3.361
M16
G05
G00X3.6819Y-3.6878
M15
G01X3.7213Y-3.6878
M16
G05
G00X3.6819Y-3.8098
M15
G01X3.7213Y-3.8098
M16
G05
G00X3.798Y-3.9142
M15
G01X3.8374Y-3.9142
M16
G05
G00X3.798Y-4.2409
M15
G01X3.8374Y-4.2409
M16
G05
G00X3.798Y-4.363
M15
G01X3.8374Y-4.363
M16
G05
G00X3.9811Y-2.8079
M15
G01X4.0205Y-2.8079
M16
G05
G00X3.9811Y-3.1346
M15
G01X4.0205Y-3.1346
M16
G05
G00X3.9811Y-3.2567
M15
G01X4.0205Y-3.2567
M16
G05
G00X4.0815Y-3.361
M15
G01X4.1209Y-3.361
M16
G05
G00X4.0815Y-3.6878
M15
G01X4.1209Y-3.6878
M16
G05
G00X4.0815Y-3.8098
M15
G01X4.1209Y-3.8098
M16
G05
G00X4.3807Y-2.8079
M15
G01X4.4201Y-2.8079
M16
G05
G00X4.3807Y-3.1346
M15
G01X4.4201Y-3.1346
M16
G05
G00X4.3807Y-3.2567
M15
G01X4.4201Y-3.2567
M16
G05
G00X4.4811Y-3.361
M15
G01X4.5205Y-3.361
M16
G05
G00X4.4811Y-3.6878
M15
G01X4.5205Y-3.6878
M16
G05
G00X4.4811Y-3.8098
M15
G01X4.5205Y-3.8098
M16
G05
G00X4.7803Y-2.8079
M15
G01X4.8197Y-2.8079
M16
G05
G00X4.7803Y-3.1346
M15
G01X4.8197Y-3.1346
M16
G05
G00X4.7803Y-3.2567
M15
G01X4.8197Y-3.2567
M16
G05
T5
G00X2.9831Y-2.8268
M15
G01X3.0106Y-2.8268
M16
G05
G00X2.9831Y-3.2047
M15
G01X3.0106Y-3.2047
M16
G05
G00X2.9831Y-3.3728
M15
G01X3.0106Y-3.3728
M16
G05
G00X2.9831Y-3.7508
M15
G01X3.0106Y-3.7508
M16
G05
G00X2.9831Y-3.9189
M15
G01X3.0106Y-3.9189
M16
G05
G00X2.9831Y-4.2969
M15
G01X3.0106Y-4.2969
M16
G05
G00X3.5657Y-2.8268
M15
G01X3.5933Y-2.8268
M16
G05
G00X3.5657Y-3.2047
M15
G01X3.5933Y-3.2047
M16
G05
T0
M30
